<?xml version="1.0" standalone="no"?>
<!DOCTYPE svg PUBLIC "-//W3C//DTD SVG 1.1//EN" "http://www.w3.org/Graphics/SVG/1.1/DTD/svg11.dtd" >
<svg>
<metadata>
Created by FontForge 20090622 at Fri Mar 18 10:26:38 2016
 By deploy user
&#194;&#169; 2015 Connary Fagen
</metadata>
<defs>
<font id="VisbyCF-MediumOblique" horiz-adv-x="605" >
  <font-face 
    font-family="Visby CF Medium"
    font-weight="500"
    font-style="oblique"
    font-stretch="normal"
    units-per-em="1000"
    panose-1="0 0 6 0 0 0 0 0 0 0"
    ascent="800"
    descent="-200"
    x-height="520"
    cap-height="700"
    bbox="-233 -221.056 1159 964"
    underline-thickness="50"
    underline-position="-50"
    unicode-range="U+0020-U+FB02"
  />
<missing-glyph horiz-adv-x="500" 
d="M0 0v700h500v-700h-500zM250 395l170 255h-340zM280 350l170 -255v510zM80 50h340l-170 255zM50 605v-510l170 255z" />
    <glyph glyph-name="fi" unicode="fi" horiz-adv-x="530" 
d="M161 520h149l-7 -57h-149l-57 -463h-65l57 463h-53l8 57h52l4 30q6 47 26 80t50 48.5t58.5 22t60.5 6.5q101 0 171 -72l-32 -42q-60 57 -141 57q-52 0 -87.5 -24.5t-41.5 -79.5zM502 520l-64 -520h-65l64 520h65z" />
    <glyph glyph-name="fl" unicode="fl" horiz-adv-x="553" 
d="M534 700l-86 -700h-67l74 600q-58 50 -147 50q-134 0 -146 -110l-2 -20h151l-8 -57h-151l-57 -463h-65l57 463h-50l7 57h50l3 23q6 47 27.5 81t53.5 51t64 24.5t68 7.5q85 0 152 -45l5 38h67z" />
    <glyph glyph-name="f_f" unicode="ff" horiz-adv-x="751" 
d="M269 707q41 0 75.5 -15.5t51.5 -36.5l-32 -45q-33 40 -97 40q-91 0 -102 -102l-3 -28h188l-7 -57h-189l-57 -463h-65l57 463h-53l8 57h52l4 33q19 154 169 154zM639 707q41 0 75 -15.5t52 -36.5l-33 -45q-33 40 -96 40q-91 0 -103 -102l-3 -28h149l-8 -57h-148l-57 -463
h-65l57 463h-53l7 57h53l4 33q19 154 169 154z" />
    <glyph glyph-name=".notdef" horiz-adv-x="500" 
d="M0 0v700h500v-700h-500zM250 395l170 255h-340zM280 350l170 -255v510zM80 50h340l-170 255zM50 605v-510l170 255z" />
    <glyph glyph-name=".null" horiz-adv-x="0" 
 />
    <glyph glyph-name="nonmarkingreturn" horiz-adv-x="333" 
 />
    <glyph glyph-name="space" unicode=" " horiz-adv-x="310" 
 />
    <glyph glyph-name="exclam" unicode="!" horiz-adv-x="213" 
d="M51 188l63 512h71l-63 -512h-71zM112 79l-10 -79h-77l9 79h78z" />
    <glyph glyph-name="quotedbl" unicode="&#x22;" horiz-adv-x="289" 
d="M88 525l22 175h-65l-22 -175h65zM222 525l22 175h-65l-22 -175h65z" />
    <glyph glyph-name="numbersign" unicode="#" horiz-adv-x="550" 
d="M433 463l-44 -225h103l-8 -58h-106l-35 -180h-65l35 180h-147l-35 -180h-65l35 180h-77l8 58h80l44 225h-97l7 57h101l35 180h65l-35 -180h147l35 180h65l-35 -180h82l-7 -57h-86zM368 463h-147l-44 -225h147z" />
    <glyph glyph-name="dollar" unicode="$" horiz-adv-x="558" 
d="M309 386l14 -5q91 -34 135.5 -80t35.5 -124q-9 -77 -78 -127t-155 -56l-10 -84h-57l11 86q-69 10 -120 54.5t-63 108.5l57 16q7 -47 44.5 -80t88.5 -41l35 291l-13 5q-157 59 -143 185q8 67 66 114.5t135 55.5l10 85h57l-10 -85q70 -7 117.5 -48.5t63.5 -99.5l-59 -13
q-10 40 -43.5 69t-85.5 35zM255 407l29 239q-52 -8 -88.5 -39.5t-42.5 -77.5q-5 -45 20.5 -73t78.5 -48zM432 183q7 55 -24 84.5t-91 51.5l-16 6l-33 -273q64 6 110.5 41t53.5 90z" />
    <glyph glyph-name="percent" unicode="%" horiz-adv-x="698" 
d="M174 459q-52 0 -84.5 37t-25.5 89q6 51 45.5 85.5t89.5 34.5q53 0 85.5 -36.5t25.5 -89.5q-6 -50 -46 -85t-90 -35zM588 701l47 -33l-529 -668l-48 33zM176 512q30 0 54 21.5t28 51.5q3 29 -14.5 48t-45.5 19q-30 0 -54.5 -21t-28.5 -52q-3 -28 14.5 -47.5t46.5 -19.5z
M498 -5q-52 0 -84.5 37t-25.5 89q6 51 45.5 85.5t89.5 34.5q53 0 85.5 -36.5t25.5 -89.5q-6 -50 -46 -85t-90 -35zM500 48q30 0 54 21.5t28 51.5q3 29 -14.5 48t-45.5 19q-30 0 -54.5 -21t-28.5 -52q-3 -28 14.5 -47.5t46.5 -19.5z" />
    <glyph glyph-name="ampersand" unicode="&#x26;" horiz-adv-x="721" 
d="M568 343l-30 -238q-4 -32 4.5 -42.5t28.5 -10.5q37 0 72 24l-5 -60q-32 -22 -71 -22q-90 0 -78 96q3 24 3 30q-36 -62 -94.5 -96t-127.5 -34q-103 0 -166.5 59.5t-51.5 157.5q10 86 68.5 141t147.5 66l-138 286h445l-8 -57h-347l140 -278q-21 2 -51 2q-76 0 -130 -46.5
t-63 -119.5q-9 -71 35 -112t120 -41q84 0 146 53t71 127l14 115l8 57h136l-7 -57h-71z" />
    <glyph glyph-name="quotesingle" unicode="'" horiz-adv-x="155" 
d="M131 525l22 175h-65l-22 -175h65z" />
    <glyph glyph-name="parenleft" unicode="(" horiz-adv-x="249" 
d="M199 746l61 -2q-125 -186 -154 -427q-32 -256 45 -448l-58 2q-84 194 -51 452q29 247 157 423z" />
    <glyph glyph-name="parenright" unicode=")" horiz-adv-x="249" 
d="M95 746l57 -2q85 -178 55 -427q-32 -260 -160 -448l-62 2q125 193 158 452q29 242 -48 423z" />
    <glyph glyph-name="asterisk" unicode="*" horiz-adv-x="456" 
d="M292 539l61 -96l-50 -31l-55 94l-76 -94l-45 31l83 96l-108 30l20 55l110 -34l11 117h56l-16 -117l118 34l7 -55zM272 574h-32l-11 -29l21 -20l27 21z" />
    <glyph glyph-name="plus" unicode="+" horiz-adv-x="425" 
d="M368 255h-142l-17 -141h-52l17 141h-141l7 52h141l17 142h52l-17 -142h142z" />
    <glyph glyph-name="comma" unicode="," horiz-adv-x="200" 
d="M107 -135l94 155h-89l-61 -155h56z" />
    <glyph glyph-name="hyphen" unicode="-" horiz-adv-x="400" 
d="M350 307l-7 -52h-310l7 52h310z" />
    <glyph glyph-name="period" unicode="." horiz-adv-x="168" 
d="M90 79l-10 -79h-78l10 79h78z" />
    <glyph glyph-name="slash" unicode="/" horiz-adv-x="495" 
d="M-14 -130l447 875h65l-447 -875h-65z" />
    <glyph glyph-name="zero" unicode="0" horiz-adv-x="642" 
d="M362 707q122 0 189.5 -93.5t47.5 -251.5l-3 -26q-20 -160 -108 -251.5t-208 -91.5q-122 0 -189.5 93t-47.5 253l3 26q19 158 107.5 250t208.5 92zM532 339l3 26q16 129 -31.5 207t-143.5 78q-97 0 -165.5 -79.5t-84.5 -208.5l-3 -26q-16 -130 31.5 -207.5t143.5 -77.5
q97 0 165 79t85 209z" />
    <glyph glyph-name="one" unicode="1" horiz-adv-x="297" 
d="M175 0h-65l79 643h-95l8 57h159z" />
    <glyph glyph-name="two" unicode="2" horiz-adv-x="532" 
d="M13 21l207 216l72 72.5l60 60t39.5 44t30 46.5t11.5 46q9 65 -30 104t-101 39q-63 0 -114 -42t-60 -113l-2 -15h-65l2 18q11 89 80.5 149.5t160.5 60.5t148 -61t46 -146q-2 -19 -7.5 -36.5t-18.5 -38.5l-21.5 -34t-33.5 -40l-36.5 -39.5t-48 -49l-52.5 -53.5l-149 -151
h318l-8 -58h-431z" />
    <glyph glyph-name="three" unicode="3" horiz-adv-x="566" 
d="M555 700l-220 -284q78 -7 128 -62.5t39 -145.5q-12 -98 -88 -158t-176 -60q-102 0 -162 62.5t-49 151.5l65 -2q-8 -66 35.5 -110t111.5 -44q74 0 131.5 43.5t66.5 122.5q11 82 -47 123.5t-157 32.5l205 273l-336 -1l8 58h445z" />
    <glyph glyph-name="four" unicode="4" horiz-adv-x="547" 
d="M420 211l-26 -211h-65l26 211h-333l2 18l431 471h25l-53 -431h75l-7 -58h-75zM399 562l-263 -293h226z" />
    <glyph glyph-name="five" unicode="5" horiz-adv-x="568" 
d="M24 135l56 26q13 -46 54.5 -79.5t105.5 -33.5q73 0 133 51.5t71 134.5q10 80 -34 130t-111 50q-94 0 -172 -72l-58 14l86 344h343l-7 -57h-288l-58 -224q64 52 156 52q95 0 157.5 -68.5t49.5 -174.5q-13 -102 -91 -170t-178 -68q-82 0 -139 41.5t-76 103.5z" />
    <glyph glyph-name="six" unicode="6" horiz-adv-x="535" 
d="M276 431q89 0 148 -66.5t48 -157.5q-11 -90 -84 -153.5t-161 -63.5q-90 0 -150 65.5t-49 157.5q3 29 13.5 57.5t20.5 48.5t33 51t35.5 46l45 52l45.5 52l157 180h74l-245 -280q38 11 69 11zM228 48q63 0 117.5 47.5t63.5 117.5q9 69 -32 113t-104 44q-73 0 -123 -44.5
t-59 -118.5q-8 -68 33.5 -113.5t103.5 -45.5z" />
    <glyph glyph-name="seven" unicode="7" horiz-adv-x="495" 
d="M147 0h-69l328 643h-345l7 57h435z" />
    <glyph glyph-name="eight" unicode="8" horiz-adv-x="529" 
d="M472 529q-5 -43 -30 -80.5t-64 -60.5q48 -26 72.5 -74.5t16.5 -112.5q-11 -91 -83.5 -149.5t-159.5 -58.5q-89 0 -149.5 60.5t-48.5 153.5q8 64 44.5 111t91.5 73q-34 24 -50 62.5t-11 81.5q9 71 66 121.5t139 50.5q84 0 130 -52.5t36 -125.5zM409 535q6 46 -22.5 80
t-82.5 34q-56 0 -94.5 -36t-44.5 -84q-5 -47 25 -81t80 -34q52 0 92.5 36t46.5 85zM402 207q8 67 -30.5 108.5t-102.5 41.5q-65 0 -116.5 -43.5t-60.5 -112.5q-8 -66 31.5 -107.5t102.5 -41.5q64 0 115.5 43.5t60.5 111.5z" />
    <glyph glyph-name="nine" unicode="9" horiz-adv-x="535" 
d="M259 268q-89 0 -148.5 66.5t-48.5 157.5t84.5 154t161.5 63q90 0 150 -65t48 -158q-4 -29 -14.5 -57.5t-19.5 -48t-33 -51.5t-34.5 -45t-45 -53l-45.5 -52l-157 -180h-74l244 280q-37 -11 -68 -11zM307 651q-63 0 -117.5 -47.5t-63.5 -117.5q-9 -69 32 -113t103 -44
q74 0 123.5 44.5t58.5 118.5q9 68 -32.5 113.5t-103.5 45.5z" />
    <glyph glyph-name="colon" unicode=":" horiz-adv-x="184" 
d="M106 518l-10 -79h-78l10 79h78zM52 79l-10 -79h-78l10 79h78z" />
    <glyph glyph-name="semicolon" unicode=";" horiz-adv-x="228" 
d="M142 533l-10 -79h-78l10 79h78zM49 -135l94 155h-89l-61 -155h56z" />
    <glyph glyph-name="less" unicode="&#x3c;" horiz-adv-x="497" 
d="M120 240l350 178l8 63l-444 -227l-4 -27l389 -227l8 64z" />
    <glyph glyph-name="equal" unicode="=" horiz-adv-x="426" 
d="M392 347l-7 -52h-335l7 52h335zM381 267l-6 -52h-335l6 52h335z" />
    <glyph glyph-name="greater" unicode="&#x3e;" horiz-adv-x="497" 
d="M-8 0l445 227l3 27l-389 227l-8 -63l307 -178l-350 -176z" />
    <glyph glyph-name="question" unicode="?" horiz-adv-x="515" 
d="M304 707q-91 0 -160.5 -59.5t-81.5 -159.5l65 3q9 77 54.5 118t109.5 41q68 0 104.5 -39t28.5 -105q-4 -31 -25.5 -59.5t-50 -51.5l-57 -48t-50.5 -60t-27 -76l-4 -24h67l4 27q4 36 25.5 67t50 54l56.5 47t49.5 57.5t26.5 72.5q11 87 -42 141t-143 54zM272 79l-10 -79
h-78l10 79h78z" />
    <glyph glyph-name="at" unicode="@" horiz-adv-x="796" 
d="M535 108l59 -29q-106 -86 -236 -86q-65 0 -125 27t-104 73t-66 113.5t-13 143.5q13 102 74 185.5t145.5 127.5t170.5 44q90 0 164 -45t114 -129.5t27 -188.5q-11 -89 -54.5 -137.5t-98.5 -48.5q-48 0 -72 25t-19 71q-23 -50 -60.5 -74t-79.5 -24q-65 0 -110 51t-34 143
q7 57 38 100t69 62t77 19q43 0 75 -23t33 -64l9 76h53l-26 -216q-6 -48 6 -68.5t43 -20.5q33 0 57 33.5t33 101.5q16 130 -58.5 214t-187.5 84q-112 0 -211 -86.5t-115 -217.5q-15 -125 61.5 -208.5t186.5 -83.5q95 0 175 56zM363 214q45 0 83 37.5t45 98.5q7 56 -20.5 89.5
t-70.5 33.5t-81 -35t-45 -94q-8 -61 20 -95.5t69 -34.5z" />
    <glyph glyph-name="A" unicode="A" horiz-adv-x="697" 
d="M490 222h-307l-123 -222h-71l397 700h17l224 -700h-69zM473 280l-92 301l-166 -301h258z" />
    <glyph glyph-name="B" unicode="B" horiz-adv-x="601" 
d="M399 382q71 -22 102.5 -70t23.5 -113q-12 -97 -86 -148t-200 -51h-147l8 58h143q199 0 218 147q8 67 -38 106.5t-141 39.5h-147l-43 -351h-66l86 700h66l-42 -342l7 50h143q156 0 171 121q7 53 -28 83t-112 30h-146l7 58h144q104 0 157 -48t43 -129q-13 -108 -123 -141z
" />
    <glyph glyph-name="C" unicode="C" horiz-adv-x="657" 
d="M340 56q105 0 189 74l39 -51q-105 -86 -231 -86q-87 0 -161 45t-115.5 129t-28.5 186q19 152 136.5 253t251.5 101q126 0 212 -88l-45 -46q-63 71 -169 71q-108 0 -204.5 -86t-111.5 -211q-15 -123 58.5 -207t179.5 -84z" />
    <glyph glyph-name="D" unicode="D" horiz-adv-x="672" 
d="M118 700h194q150 0 236.5 -102t68.5 -252q-18 -146 -128.5 -246t-259.5 -100h-197zM552 352q15 126 -51.5 208t-193.5 82h-129l-72 -584h127q127 0 215 83.5t104 210.5z" />
    <glyph glyph-name="E" unicode="E" horiz-adv-x="572" 
d="M23 0l86 700h68l-86 -700h-68zM546 700l-8 -59h-368l7 59h369zM407 382l-8 -60h-268l7 60h269zM477 59l-7 -59h-379l8 59h378z" />
    <glyph glyph-name="F" unicode="F" horiz-adv-x="534" 
d="M163 641l-32 -261h300l-7 -60h-301l-39 -320h-68l86 700h436l-7 -59h-368z" />
    <glyph glyph-name="G" unicode="G" horiz-adv-x="754" 
d="M640 344l63 -3q-19 -155 -121 -251.5t-236 -96.5q-65 0 -124.5 27t-103 73t-65.5 114.5t-13 145.5q13 101 74 183.5t144.5 126.5t169.5 44q80 0 141.5 -27t95.5 -71l-46 -42q-27 36 -76.5 57.5t-115.5 21.5q-109 0 -207 -86t-113 -213q-16 -124 60 -208t182 -84
q95 0 172 62.5t107 165.5h-170l7 59h175v2z" />
    <glyph glyph-name="H" unicode="H" horiz-adv-x="671" 
d="M183 700l-86 -700h-66l86 700h66zM640 700l-86 -700h-67l39 314h-390l7 58h390l40 328h67z" />
    <glyph glyph-name="I" unicode="I" horiz-adv-x="212" 
d="M30 0l86 700h67l-86 -700h-67z" />
    <glyph glyph-name="J" unicode="J" horiz-adv-x="528" 
d="M11 76l48 42q45 -66 138 -66q164 0 191 221l53 427h65l-54 -436q-17 -141 -86.5 -206t-170.5 -65q-121 0 -184 83z" />
    <glyph glyph-name="K" unicode="K" horiz-adv-x="698" 
d="M318 360l293 -360h-83l-257 316l-151 -143l4 38l-26 -211h-67l86 700h67l-54 -439l463 439h83z" />
    <glyph glyph-name="L" unicode="L" horiz-adv-x="556" 
d="M34 0l86 700h66l-86 -700h-66zM477 58l-8 -58h-369l8 58h369z" />
    <glyph glyph-name="M" unicode="M" horiz-adv-x="893" 
d="M776 0h-68l62 504l-362 -501h-8l-239 501l-62 -504h-68l86 700h15l284 -589l431 589h15z" />
    <glyph glyph-name="N" unicode="N" horiz-adv-x="703" 
d="M586 0h-9l-412 541l-66 -541h-68l86 700h9l412 -543l67 543h67z" />
    <glyph glyph-name="O" unicode="O" horiz-adv-x="776" 
d="M426 707q67 0 126.5 -26.5t103 -73t64.5 -114.5t12 -146q-19 -152 -135.5 -253t-252.5 -101t-230.5 103.5t-75.5 256.5q19 152 136.5 253t251.5 101zM661 353q16 127 -54.5 209t-182.5 82q-109 0 -204.5 -84.5t-110.5 -212.5q-16 -126 57 -208.5t180 -82.5q114 0 207 84
t108 213z" />
    <glyph glyph-name="P" unicode="P" horiz-adv-x="603" 
d="M111 700h217q116 0 177.5 -59.5t50.5 -155.5q-12 -98 -86 -154.5t-191 -56.5h-153l-34 -274h-67zM492 491q9 72 -35 111.5t-133 39.5h-153l-38 -310h150q91 0 145 40t64 119z" />
    <glyph glyph-name="Q" unicode="Q" horiz-adv-x="802" 
d="M689 347q-17 -136 -116 -235l95 -112h-77l-63 73q-105 -80 -227 -80q-136 0 -230.5 103.5t-75.5 256.5q19 152 136.5 253t251.5 101q67 0 126.5 -26.5t103 -73t64.5 -114.5t12 -146zM451 254l80 -93q74 80 87 192q16 127 -54.5 209t-182.5 82q-109 0 -204.5 -84.5
t-110.5 -212.5q-16 -126 57 -208.5t180 -82.5q101 0 185 65l-114 133h77z" />
    <glyph glyph-name="R" unicode="R" horiz-adv-x="621" 
d="M485 0l-186 274h-20h-153l-34 -274h-67l86 700h217q116 0 177.5 -59.5t50.5 -155.5q-10 -78 -59.5 -130.5t-130.5 -71.5l201 -283h-82zM133 332h150q91 0 145 40t64 119q9 72 -35 111.5t-133 39.5h-153z" />
    <glyph glyph-name="S" unicode="S" horiz-adv-x="578" 
d="M262 408l73 -27q95 -34 141.5 -80t36.5 -124q-10 -82 -89.5 -133t-173.5 -51q-84 0 -149 46.5t-79 119.5l60 16q9 -54 58 -89t112 -35q73 0 131 35.5t66 96.5q7 55 -25 84.5t-95 51.5l-86 31q-164 59 -149 185q9 74 79 123t159 49q86 0 143.5 -43t75.5 -107l-61 -13
q-11 45 -53.5 75t-106.5 30q-67 0 -115.5 -33t-55.5 -87q-6 -45 20.5 -73t82.5 -48z" />
    <glyph glyph-name="T" unicode="T" horiz-adv-x="608" 
d="M582 639h-214l-79 -639h-69l79 639h-215l8 61h498z" />
    <glyph glyph-name="U" unicode="U" horiz-adv-x="669" 
d="M643 700l-54 -439q-15 -124 -97.5 -196t-198.5 -72q-118 0 -184 73.5t-50 197.5l53 436h65l-54 -438q-13 -102 33.5 -156.5t138.5 -54.5q93 0 155 56t75 158l53 435h65z" />
    <glyph glyph-name="V" unicode="V" horiz-adv-x="704" 
d="M722 700l-404 -700h-17l-233 700h71l183 -577l328 577h72z" />
    <glyph glyph-name="W" unicode="W" horiz-adv-x="1039" 
d="M714 0h-11l-155 563l-298 -563h-10l-157 700h70l115 -544l286 544h17l150 -544l251 544h70z" />
    <glyph glyph-name="X" unicode="X" horiz-adv-x="707" 
d="M392 361l213 -361h-75l-182 308l-257 -308h-75l301 361l-200 339h75l169 -286l239 286h76z" />
    <glyph glyph-name="Y" unicode="Y" horiz-adv-x="657" 
d="M312 0h-65l42 338l-215 362h73l179 -307l258 307h73l-303 -362z" />
    <glyph glyph-name="Z" unicode="Z" horiz-adv-x="621" 
d="M543 0h-551l507 643h-402l7 57h521l-507 -642h433z" />
    <glyph glyph-name="bracketleft" unicode="[" horiz-adv-x="243" 
d="M59 -73h87l-7 -57h-153l107 875h153l-7 -57h-87z" />
    <glyph glyph-name="backslash" unicode="\" horiz-adv-x="495" 
d="M93 745h65l233 -875h-65z" />
    <glyph glyph-name="bracketright" unicode="]" horiz-adv-x="243" 
d="M87 688l6 57h153l-107 -875h-153l7 57h88l93 761h-87z" />
    <glyph glyph-name="asciicircum" unicode="^" horiz-adv-x="474" 
d="M274 637l-157 -162h-57l195 225h50l139 -225h-56z" />
    <glyph glyph-name="underscore" unicode="_" horiz-adv-x="590" 
d="M502 0l-7 -58h-500l7 58h500z" />
    <glyph glyph-name="grave" unicode="`" horiz-adv-x="164" 
d="M144 767h-93l89 -145h57z" />
    <glyph glyph-name="a" unicode="a" 
d="M432 0l13 107q-28 -54 -83 -84t-117 -30q-95 0 -163.5 72t-53.5 198q8 63 37 115t69 83.5t84.5 48t86.5 16.5q63 0 111 -29t67 -81l13 104h65l-64 -520h-65zM253 51q73 0 137.5 56t76.5 156t-37 153t-121 53t-138 -56.5t-78 -155.5q-12 -98 38.5 -152t121.5 -54z" />
    <glyph glyph-name="b" unicode="b" horiz-adv-x="595" 
d="M334 526q94 0 162.5 -72t53.5 -197q-10 -84 -57 -146.5t-104.5 -90t-115.5 -27.5q-63 0 -112.5 31.5t-65.5 85.5l-13 -110h-65l86 700h66l-35 -280q32 51 85.5 78.5t114.5 27.5zM269 51q73 0 138.5 56t78.5 156q12 97 -39 151.5t-121 54.5q-73 0 -138 -55t-77 -157
q-12 -98 38 -152t120 -54z" />
    <glyph glyph-name="c" unicode="c" horiz-adv-x="546" 
d="M255 51q46 0 91 22.5t75 65.5l57 -24q-39 -59 -101 -90.5t-124 -31.5q-94 0 -165 72t-56 198q15 123 102 193t180 70q63 0 117.5 -32t81.5 -92l-61 -20q-19 43 -57 64.5t-83 21.5q-72 0 -137.5 -56t-78.5 -155q-12 -98 38.5 -152t120.5 -54z" />
    <glyph glyph-name="d" unicode="d" horiz-adv-x="609" 
d="M302 526q62 0 109.5 -28.5t67.5 -80.5l35 283h66l-86 -700h-65l13 107q-28 -54 -83.5 -84t-117.5 -30q-95 0 -163.5 72t-53.5 198q8 63 37 115t69.5 83.5t84.5 48t87 16.5zM249 51q72 0 137 56t78 156q12 100 -38 153t-121 53q-72 0 -138 -56.5t-78 -155.5
q-12 -98 38.5 -152t121.5 -54z" />
    <glyph glyph-name="e" unicode="e" horiz-adv-x="595" 
d="M533 232h-433q-5 -86 44.5 -133.5t116.5 -47.5q92 0 157 65l51 -34q-85 -89 -210 -89q-44 0 -85.5 17t-75.5 49.5t-51.5 85.5t-9.5 118q8 63 37.5 115t70.5 83.5t86 48t88 16.5q95 0 165 -72t55 -197q0 -2 -6 -25zM107 288l370 3q5 57 -19.5 99t-61.5 60t-79 18
q-66 0 -129 -47.5t-81 -132.5z" />
    <glyph glyph-name="f" unicode="f" horiz-adv-x="371" 
d="M269 707q41 0 75.5 -15.5t51.5 -36.5l-32 -45q-33 40 -97 40q-91 0 -102 -102l-3 -28h148l-7 -57h-149l-57 -463h-65l57 463h-53l8 57h52l4 33q19 154 169 154z" />
    <glyph glyph-name="g" unicode="g" horiz-adv-x="600" 
d="M561 520l-64 -522q-7 -55 -33.5 -96.5t-63.5 -63.5t-75 -32.5t-75 -10.5q-104 0 -152 45l5 56q46 -44 149 -44q68 0 119.5 39t60.5 111l13 105q-28 -54 -83 -84t-117 -30q-95 0 -163.5 72t-53.5 198q8 63 37 115t69 83.5t84.5 48t86.5 16.5q63 0 111 -29t67 -81l13 104
h65zM253 51q73 0 137.5 56t76.5 156t-37 153t-121 53t-138 -56.5t-78 -155.5q-12 -98 38.5 -152t121.5 -54z" />
    <glyph glyph-name="h" unicode="h" horiz-adv-x="584" 
d="M335 525q88 0 142 -56t40 -168l-37 -301h-65l38 303q10 83 -25.5 124t-101.5 41q-69 0 -126.5 -52.5t-74.5 -111.5l-38 -304h-65l86 700h65l-37 -307q11 41 66 86.5t133 45.5z" />
    <glyph glyph-name="i" unicode="i" horiz-adv-x="209" 
d="M181 700l-7 -62h-67l8 62h66zM159 520l-64 -520h-66l64 520h66z" />
    <glyph glyph-name="j" unicode="j" horiz-adv-x="257" 
d="M224 700l-7 -62h-65l7 62h65zM-93 -178l6 59q44 -23 83 -23q29 0 47.5 23.5t23.5 64.5l70 574h65l-71 -584q-17 -141 -134 -141q-49 0 -90 27z" />
    <glyph glyph-name="k" unicode="k" horiz-adv-x="565" 
d="M247 277l248 -277h-82l-211 235l-89 -81l-19 -154h-65l10 86l10 83l1 1l65 530h65l-57 -462l304 282h84z" />
    <glyph glyph-name="l" unicode="l" horiz-adv-x="210" 
d="M29 0l86 700h66l-86 -700h-66z" />
    <glyph glyph-name="m" unicode="m" horiz-adv-x="920" 
d="M687 525q80 0 132.5 -53.5t38.5 -167.5l-37 -304h-65l38 311q11 79 -22 117t-91 38q-65 0 -114 -43t-72 -104l-2 -15l-37 -304h-65l38 311q10 79 -24 117t-92 38q-69 0 -117.5 -49t-68.5 -117l11 90q9 46 58 90.5t123 44.5q61 0 110 -32.5t62 -100.5q19 51 73 92t123 41z
M154 520l-64 -520h-65l64 520h65z" />
    <glyph glyph-name="n" unicode="n" horiz-adv-x="582" 
d="M338 525q88 0 142 -56t40 -168l-37 -301h-65l38 303q9 83 -26 124t-101 41q-70 0 -127 -52t-74 -112l11 89q10 41 65 86.5t134 45.5zM154 520l-64 -520h-65l64 520h65z" />
    <glyph glyph-name="o" unicode="o" horiz-adv-x="593" 
d="M314 526q44 0 86 -17t76 -49.5t51 -85.5t9 -117t-37.5 -116t-70.5 -83.5t-86 -48t-88 -16.5q-44 0 -85.5 17t-75.5 49.5t-51.5 85.5t-9.5 118q8 63 37.5 115t70.5 83.5t86 48t88 16.5zM472 263q12 97 -39 151t-121 54q-72 0 -137.5 -56t-78.5 -155q-12 -98 38.5 -152
t121.5 -54q72 0 137.5 56t78.5 156z" />
    <glyph glyph-name="p" unicode="p" horiz-adv-x="618" 
d="M357 526q94 0 162.5 -72t53.5 -197q-10 -84 -57 -146.5t-104.5 -90t-115.5 -27.5q-63 0 -112.5 31.5t-65.5 85.5l-36 -300h-65l87 710h65l-13 -102q32 52 85.5 80t115.5 28zM292 51q73 0 138.5 56t78.5 156q12 97 -39 151.5t-121 54.5q-73 0 -138 -55t-77 -157
q-12 -98 38 -152t120 -54z" />
    <glyph glyph-name="q" unicode="q" 
d="M305 526q63 0 111 -29t67 -81l13 104h65l-87 -710h-65l36 297q-28 -54 -83 -84t-117 -30q-95 0 -163.5 72t-53.5 198q8 63 37 115t69 83.5t84.5 48t86.5 16.5zM253 51q73 0 137.5 56t76.5 156t-37 153t-121 53t-138 -56.5t-78 -155.5q-12 -98 38.5 -152t121.5 -54z" />
    <glyph glyph-name="r" unicode="r" horiz-adv-x="401" 
d="M350 525q14 0 40 -2l-3 -59q-15 1 -39 1q-75 -1 -135.5 -51.5t-84.5 -139.5l-34 -274h-65l64 520h65l-18 -151q18 64 76 110t134 46z" />
    <glyph glyph-name="s" unicode="s" horiz-adv-x="472" 
d="M203 301l70 -17q73 -18 108.5 -53t27.5 -98q-7 -61 -70.5 -100.5t-140.5 -39.5q-72 0 -124.5 37.5t-59.5 98.5l59 14q7 -43 42 -67.5t85 -24.5q55 0 97 24.5t46 63.5q5 37 -15 56.5t-62 31.5l-85 21q-133 36 -121 142q8 57 64.5 96.5t131.5 39.5q135 0 175 -122l-61 -15
q-26 80 -116 80q-53 0 -88 -24t-40 -60q-4 -34 14.5 -53.5t62.5 -30.5z" />
    <glyph glyph-name="t" unicode="t" horiz-adv-x="328" 
d="M178 463l-45 -366q-3 -25 4.5 -35.5t28.5 -10.5q31 0 72 18l-5 -58q-36 -17 -86 -17q-91 0 -80 97l46 372h-70l7 57h70l11 90h65l-11 -90h109l-7 -57h-109z" />
    <glyph glyph-name="u" unicode="u" horiz-adv-x="570" 
d="M521 520l-64 -520h-66l16 128q-16 -44 -71.5 -89.5t-131.5 -45.5q-85 0 -134.5 54.5t-36.5 166.5l38 306h66l-37 -308q-21 -161 113 -161q68 0 125 51t80 115l37 303h66z" />
    <glyph glyph-name="v" unicode="v" horiz-adv-x="538" 
d="M231 0h-12l-170 520h67l123 -398l222 398h68z" />
    <glyph glyph-name="w" unicode="w" horiz-adv-x="878" 
d="M590 0h-10l-135 408l-235 -408h-10l-151 520h65l111 -392l229 392h10l132 -392l208 392h65z" />
    <glyph glyph-name="x" unicode="x" horiz-adv-x="542" 
d="M297 266l164 -266h-71l-135 218l-189 -218h-72l231 267l-157 253h72l127 -205l177 205h73z" />
    <glyph glyph-name="y" unicode="y" horiz-adv-x="554" 
d="M543 520l-375 -710h-65l109 207l-158 503h65l133 -428l225 428h66z" />
    <glyph glyph-name="z" unicode="z" horiz-adv-x="532" 
d="M451 58l-7 -58h-452l392 463h-325l7 57h442l-392 -462h335z" />
    <glyph glyph-name="braceleft" unicode="{" horiz-adv-x="270" 
d="M108 306l33 -66l-34 -280q-3 -33 30 -33h37l-8 -57h-54q-34 0 -54.5 22t-16.5 60l35 283l-36 71l54 73l35 287q4 37 29 58t58 21h57l-6 -57h-34q-16 0 -27.5 -10t-12.5 -26l-35 -278z" />
    <glyph glyph-name="bar" unicode="|" horiz-adv-x="208" 
d="M188 800l-121 -990h-58l121 990h58z" />
    <glyph glyph-name="braceright" unicode="}" horiz-adv-x="270" 
d="M118 374l35 281q3 33 -30 33h-36l6 57h54q34 0 55 -22.5t16 -59.5l-34 -284l36 -73l-54 -71l-35 -286q-4 -37 -29 -58t-59 -21h-57l7 57h34q16 0 27.5 10t13.5 26l33 277l52 66z" />
    <glyph glyph-name="asciitilde" unicode="~" horiz-adv-x="473" 
d="M394 323h34q0 -45 -28.5 -70.5t-75.5 -25.5q-45 0 -96 36.5t-85 36.5t-50 -16t-15 -34h-33q0 46 30 72t75 26q37 0 68.5 -17t57.5 -34t52 -17q33 0 49.5 13t16.5 30z" />
    <glyph glyph-name="exclamdown" unicode="&#xa1;" horiz-adv-x="174" 
d="M89 520h77l-10 -79h-77zM77 -180h-71l63 513h71z" />
    <glyph glyph-name="cent" unicode="&#xa2;" horiz-adv-x="550" 
d="M329 533l-50 -406q89 10 142 84l57 -24q-37 -53 -92.5 -83.5t-113.5 -34.5l-13 -109h-57l13 111q-85 14 -141 82.5t-42 178.5q13 109 86 175.5t161 79.5l14 113h57l-14 -111q57 -6 104.5 -36.5t72.5 -83.5l-61 -19q-34 74 -123 83zM96 327q-10 -84 27.5 -135t98.5 -64
l50 401q-64 -14 -114.5 -66.5t-61.5 -135.5z" />
    <glyph glyph-name="sterling" unicode="&#xa3;" horiz-adv-x="563" 
d="M342 707q92 0 149 -58t45 -152l-2 -17h-65l2 20q9 72 -28.5 111t-102.5 39q-67 0 -115 -38.5t-56 -102.5q-4 -9 -2 -28t2.5 -27t5.5 -27t7.5 -26.5l9 -26t8.5 -26.5h150l-6 -53h-130q6 -33 2 -65q-11 -90 -97 -176l352 2l-6 -58h-461v16q82 79 112.5 128.5t36.5 102.5
q3 25 -2 50h-80l6 53h58q-1 3 -6.5 17.5t-7 19l-6 18t-5.5 20.5t-3.5 20.5t-3 23t-0.5 22.5t2 26q10 84 79 138t158 54z" />
    <glyph glyph-name="currency" unicode="&#xa4;" horiz-adv-x="557" 
d="M496 476q0 -70 -40 -129l46 -46l-50 -49l-45 45q-61 -45 -135 -45q-75 0 -134 45l-45 -45l-50 49l46 46q-41 57 -41 129q0 74 42 130l-47 47l50 49l46 -46q58 44 133 44q76 0 134 -44l46 46l50 -49l-47 -47q41 -58 41 -130zM107 476q0 -66 48 -115.5t117 -49.5
t117.5 49.5t48.5 115.5q0 65 -48.5 115t-117.5 50t-117 -50t-48 -115z" />
    <glyph glyph-name="yen" unicode="&#xa5;" horiz-adv-x="664" 
d="M350 304h116l-6 -51h-117l-7 -62h116l-6 -51h-117l-17 -140h-65l17 140h-91l6 51h92l7 62h-91l6 51h92l4 34l-215 362h73l179 -307l258 307h73l-303 -362z" />
    <glyph glyph-name="brokenbar" unicode="&#xa6;" horiz-adv-x="208" 
d="M188 800l-34 -280h-58l34 280h58zM101 90l-34 -280h-58l34 280h58z" />
    <glyph glyph-name="section" unicode="&#xa7;" horiz-adv-x="570" 
d="M508 209q-7 -57 -54 -105q34 -48 26 -116q-10 -81 -88.5 -132t-168.5 -51q-86 0 -145 48.5t-75 128.5l63 16q11 -60 53 -96t106 -36q70 0 127.5 35t64.5 93q11 96 -109 139l-92 31q-154 54 -139 183q8 61 56 109q-37 46 -29 113q10 75 77.5 125t153.5 50t143.5 -47
t72.5 -115l-65 -15q-6 47 -46.5 81.5t-105.5 34.5t-111.5 -33t-53.5 -87q-6 -47 18.5 -74.5t76.5 -45.5l76 -26q185 -61 168 -208zM237 222l76 -26q60 -20 97 -47q29 31 33 66q12 96 -108 139l-91 31q-28 9 -64 29q-34 -32 -38 -73q-6 -46 18.5 -74t76.5 -45z" />
    <glyph glyph-name="dieresis" unicode="&#xa8;" horiz-adv-x="308" 
d="M120 703l-10 -77h-76l9 77h77zM351 703l-9 -77h-76l9 77h76z" />
    <glyph glyph-name="copyright" unicode="&#xa9;" horiz-adv-x="804" 
d="M443 707q139 0 232.5 -102.5t74.5 -257.5q-19 -152 -135.5 -253t-253.5 -101q-87 0 -161.5 45t-116.5 129t-29 186q13 101 74 183.5t145 126.5t170 44zM683 353q15 127 -57 209t-185 82q-109 0 -206.5 -85t-112.5 -212q-16 -125 59 -207.5t183 -82.5q115 0 209 83.5
t110 212.5zM389 192q59 0 108 46l37 -45q-64 -59 -146 -59q-83 0 -141 63t-47 156q12 91 83 152t152 61q79 0 136 -60l-44 -43q-35 44 -94 44q-57 0 -109 -46.5t-61 -113.5q-8 -66 31.5 -110.5t94.5 -44.5z" />
    <glyph glyph-name="ordfeminine" unicode="&#xaa;" horiz-adv-x="404" 
d="M342 557l-11 -96q-3 -37 -1 -47.5t13 -29.5l-52 3q-14 19 -10 47q-44 -51 -107 -51q-55 0 -85.5 26t-24.5 76q11 82 132 93l99 10q7 73 -66 73q-66 0 -104 -49l-32 37q47 58 136 58q68 0 95.5 -37t17.5 -113zM175 429q35 0 65.5 21.5t42.5 42.5l7 50q-15 -4 -94 -12
q-34 -2 -56.5 -15.5t-24.5 -36.5q-6 -50 60 -50z" />
    <glyph glyph-name="guillemotleft" unicode="&#xab;" horiz-adv-x="381" 
d="M61 309l99 -105l-7 -55l-135 104l14 111l160 104l-7 -55zM224 309l99 -105l-7 -55l-135 104l14 111l160 104l-7 -55z" />
    <glyph glyph-name="logicalnot" unicode="&#xac;" horiz-adv-x="483" 
d="M367 302l-7 -52h-327l6 52h328zM432 302l-20 -159h-65l20 159h65z" />
    <glyph glyph-name="softhyphen" unicode="&#xad;" horiz-adv-x="400" 
d="M307 307l-7 -52h-310l7 52h310z" />
    <glyph glyph-name="registered" unicode="&#xae;" horiz-adv-x="804" 
d="M443 707q139 0 232.5 -102.5t74.5 -257.5q-19 -152 -135.5 -253t-253.5 -101q-87 0 -161.5 45t-116.5 129t-29 186q13 101 74 183.5t145 126.5t170 44zM683 353q15 127 -57 209t-185 82q-109 0 -206.5 -85t-112.5 -212q-16 -125 59 -207.5t183 -82.5q115 0 209 83.5
t110 212.5zM380 306h-63l-18 -145h-53l48 386h130q64 0 100 -35t29 -88q-12 -97 -116 -116l102 -147h-66zM323 355h78q88 0 98 75q4 33 -15.5 51t-60.5 18h-82z" />
    <glyph glyph-name="macron" unicode="&#xaf;" horiz-adv-x="365" 
d="M408 700l-8 -57h-364l7 57h365z" />
    <glyph glyph-name="degree" unicode="&#xb0;" horiz-adv-x="383" 
d="M203 427q-62 0 -99.5 43.5t-30.5 106.5q7 59 54 100.5t107 41.5q61 0 100 -43.5t31 -104.5q-7 -61 -54.5 -102.5t-107.5 -41.5zM205 478q41 0 72.5 29t36.5 70q5 38 -18 64.5t-63 26.5q-41 0 -72.5 -28.5t-36.5 -68.5q-5 -38 18 -65.5t63 -27.5z" />
    <glyph glyph-name="plusminus" unicode="&#xb1;" horiz-adv-x="425" 
d="M174 257h-141l7 53h141l17 142h52l-17 -142h142l-7 -53h-142l-17 -140h-52zM40 54h335l-7 -53h-335z" />
    <glyph glyph-name="twosuperior" unicode="&#xb2;" horiz-adv-x="261" 
d="M-23 472l76 70q32 30 41 39t18.5 23t10.5 28q2 18 -8.5 29.5t-28.5 11.5q-20 0 -36.5 -13.5t-20.5 -37.5l-1 -13h-37l2 16q4 35 30.5 57t59.5 22q36 0 59 -23.5t19 -54.5q-3 -25 -19.5 -45.5t-59.5 -60.5l-55 -48h118l-4 -32h-168z" />
    <glyph glyph-name="threesuperior" unicode="&#xb3;" horiz-adv-x="273" 
d="M128 581q40 -17 34 -68q-4 -33 -32.5 -55t-65.5 -22q-42 0 -66 28t-17 65l38 -3q-4 -24 7.5 -41t34.5 -17q24 0 42.5 14.5t21.5 36.5q3 26 -14 36t-53 8l1 30q64 0 69 45q2 14 -8 24t-27 10q-22 0 -38 -15.5t-19 -41.5l-37 3q3 38 29 61.5t62 23.5q33 0 55.5 -21.5
t19.5 -49.5q-5 -32 -37 -51z" />
    <glyph glyph-name="acute" unicode="&#xb4;" horiz-adv-x="164" 
d="M90 622l125 145h-92l-90 -145h57z" />
    <glyph glyph-name="paragraph" unicode="&#xb6;" horiz-adv-x="743" 
d="M514 700l-8 -58h-154q-89 0 -142 -39.5t-62 -111.5q-10 -79 34 -119t135 -40h151l-7 -58h-153q-117 0 -177.5 56.5t-48.5 154.5q11 96 88 155.5t193 59.5h151zM514 700h66l-86 -700h-66zM651 700h65l-86 -700h-65z" />
    <glyph glyph-name="periodcentered" unicode="&#xb7;" horiz-adv-x="174" 
d="M77 320l-10 -78h-78l10 78h78z" />
    <glyph glyph-name="cedilla" unicode="&#xb8;" horiz-adv-x="171" 
d="M91 1l-51 -48q34 -3 55 -27t17 -60q-5 -47 -54 -70.5t-113 -11.5l12 27q43 -6 69.5 12.5t30.5 48.5q3 27 -17 39t-51 -6l-16 29l54 67h64z" />
    <glyph glyph-name="onesuperior" unicode="&#xb9;" horiz-adv-x="206" 
d="M56 440h-37l27 221l-17 -11l-15 31l37 20h37z" />
    <glyph glyph-name="ordmasculine" unicode="&#xba;" horiz-adv-x="407" 
d="M245 705q57 0 99 -44.5t33 -118.5q-9 -72 -60.5 -115.5t-106.5 -43.5q-57 0 -99 45.5t-33 119.5q9 72 60 114.5t107 42.5zM326 548q6 50 -19 79.5t-63 29.5q-39 0 -74 -31.5t-41 -83.5q-6 -51 19 -80.5t63 -29.5q39 0 73.5 31.5t41.5 84.5z" />
    <glyph glyph-name="guillemotright" unicode="&#xbb;" horiz-adv-x="381" 
d="M310 364l-13 -111l-160 -104l5 41l-64 -41l6 55l125 105l-99 104l6 55l54 -42l5 42zM268 309l-21 22l-5 -44z" />
    <glyph glyph-name="onequarter" unicode="&#xbc;" horiz-adv-x="569" 
d="M25 440h-37l27 221l-17 -11l-15 31l37 20h37zM-61 0l522 700h42l-516 -700h-48zM440 76l-9 -76h-37l9 76h-132l155 185h37l-19 -154h27l-4 -31h-27zM419 202l-77 -95h65z" />
    <glyph glyph-name="onehalf" unicode="&#xbd;" horiz-adv-x="544" 
d="M25 440h-37l27 221l-17 -11l-15 31l37 20h37zM-61 0l522 700h42l-516 -700h-48zM269 32l76 70q32 30 41 39t18.5 23t10.5 28q2 18 -8.5 29.5t-28.5 11.5q-20 0 -36.5 -13.5t-20.5 -37.5l-1 -13h-37l2 16q4 35 30.5 57t59.5 22q36 0 59 -23.5t19 -54.5q-3 -25 -19.5 -45.5
t-59.5 -60.5l-55 -48h118l-4 -32h-168z" />
    <glyph glyph-name="threequarters" unicode="&#xbe;" horiz-adv-x="587" 
d="M108 581q40 -17 34 -68q-4 -33 -32.5 -55t-65.5 -22q-42 0 -66 28t-17 65l38 -3q-5 -24 7 -41t35 -17q24 0 42.5 14.5t21.5 36.5q3 26 -14 36t-53 8l1 30q64 0 69 45q2 14 -8 24t-27 10q-22 0 -38 -15.5t-19 -41.5l-37 3q3 38 29 61.5t62 23.5q33 0 55.5 -21.5
t19.5 -49.5q-5 -32 -37 -51zM-33 0l522 700h42l-516 -700h-48zM458 76l-9 -76h-37l9 76h-132l155 185h37l-19 -154h27l-4 -31h-27zM437 202l-77 -95h65z" />
    <glyph glyph-name="questiondown" unicode="&#xbf;" horiz-adv-x="515" 
d="M221 441l10 79h77l-9 -79h-78zM189 -187q91 0 160.5 59.5t81.5 159.5l-66 -3q-9 -77 -54 -118t-109 -41q-69 0 -105 39.5t-28 105.5q4 31 25.5 59.5t49.5 51.5l57 48t51 60t27 76l3 23h-67l-3 -26q-4 -36 -25.5 -67t-50 -54.5l-56.5 -47t-50 -57t-27 -72.5
q-10 -88 43 -142t143 -54z" />
    <glyph glyph-name="Agrave" unicode="&#xc0;" horiz-adv-x="697" 
d="M365 802l-89 145h93l53 -145h-57zM490 222h-307l-123 -222h-71l397 700h17l224 -700h-69zM473 280l-92 301l-166 -301h258z" />
    <glyph glyph-name="Aacute" unicode="&#xc1;" horiz-adv-x="697" 
d="M418 802h-57l90 145h92zM490 222h-307l-123 -222h-71l397 700h17l224 -700h-69zM473 280l-92 301l-166 -301h258z" />
    <glyph glyph-name="Acircumflex" unicode="&#xc2;" horiz-adv-x="697" 
d="M286 800h-55l122 147h111l86 -147h-55l-90 111zM490 222h-307l-123 -222h-71l397 700h17l224 -700h-69zM473 280l-92 301l-166 -301h258z" />
    <glyph glyph-name="Atilde" unicode="&#xc3;" horiz-adv-x="697" 
d="M318 857q-28 0 -45.5 -17t-18.5 -34l-33 3q6 44 36.5 70t67.5 26q34 0 60.5 -17t47.5 -34t42 -17q27 0 44.5 14t19.5 31l34 -3q-6 -45 -35 -70t-68 -25q-33 0 -58 18t-47 36.5t-47 18.5zM490 222h-307l-123 -222h-71l397 700h17l224 -700h-69zM473 280l-92 301l-166 -301
h258z" />
    <glyph glyph-name="Adieresis" unicode="&#xc4;" horiz-adv-x="697" 
d="M314 806h-76l9 77h77zM546 806h-76l9 77h76zM490 222h-307l-123 -222h-71l397 700h17l224 -700h-69zM473 280l-92 301l-166 -301h258z" />
    <glyph glyph-name="Aring" unicode="&#xc5;" horiz-adv-x="697" 
d="M394 796q-37 0 -60 25.5t-19 61.5q5 33 32 57t62 24t58 -26t19 -61q-5 -33 -32 -57t-60 -24zM361 880q-2 -16 8 -27.5t26 -11.5t29.5 12t15.5 27q2 17 -8.5 28.5t-25.5 11.5q-17 0 -30 -12t-15 -28zM490 222h-307l-123 -222h-71l397 700h17l224 -700h-69zM473 280
l-92 301l-166 -301h258z" />
    <glyph glyph-name="AE" unicode="&#xc6;" horiz-adv-x="960" 
d="M559 641l-32 -259h268l-8 -60h-267l-33 -263h379l-8 -59h-446l28 224h-222l-153 -224h-75l480 700h464l-7 -59h-368zM447 281l41 339l-231 -339h190z" />
    <glyph glyph-name="Ccedilla" unicode="&#xc7;" horiz-adv-x="657" 
d="M420 707q126 0 212 -88l-45 -46q-63 71 -169 71q-108 0 -204.5 -86t-111.5 -211q-15 -123 58.5 -207t179.5 -84q105 0 189 74l39 -51q-96 -79 -212 -85l-43 -41q34 -3 55 -27t17 -60q-5 -47 -54 -70.5t-113 -11.5l12 27q43 -6 69.5 12.5t30.5 48.5q3 27 -17 39t-51 -6
l-16 29l50 62q-123 16 -202 116t-62 241q19 152 136.5 253t251.5 101z" />
    <glyph glyph-name="Egrave" unicode="&#xc8;" horiz-adv-x="572" 
d="M311 947h-93l89 -145h57zM23 0l86 700h68l-86 -700h-68zM546 700l-8 -59h-368l7 59h369zM407 382l-8 -60h-268l7 60h269zM477 59l-7 -59h-379l8 59h378z" />
    <glyph glyph-name="Eacute" unicode="&#xc9;" horiz-adv-x="572" 
d="M360 802l125 145h-92l-90 -145h57zM23 0l86 700h68l-86 -700h-68zM546 700l-8 -59h-368l7 59h369zM407 382l-8 -60h-268l7 60h269zM477 59l-7 -59h-379l8 59h378z" />
    <glyph glyph-name="Ecircumflex" unicode="&#xca;" horiz-adv-x="572" 
d="M347 911l-119 -111h-55l122 147h111l86 -147h-55zM23 0l86 700h68l-86 -700h-68zM546 700l-8 -59h-368l7 59h369zM407 382l-8 -60h-268l7 60h269zM477 59l-7 -59h-379l8 59h378z" />
    <glyph glyph-name="Edieresis" unicode="&#xcb;" horiz-adv-x="572" 
d="M266 883l-10 -77h-76l9 77h77zM497 883l-9 -77h-76l9 77h76zM23 0l86 700h68l-86 -700h-68zM546 700l-8 -59h-368l7 59h369zM407 382l-8 -60h-268l7 60h269zM477 59l-7 -59h-379l8 59h378z" />
    <glyph glyph-name="Igrave" unicode="&#xcc;" horiz-adv-x="212" 
d="M123 947h-93l89 -145h57zM30 0l86 700h67l-86 -700h-67z" />
    <glyph glyph-name="Iacute" unicode="&#xcd;" horiz-adv-x="212" 
d="M173 802l125 145h-92l-90 -145h57zM30 0l86 700h67l-86 -700h-67z" />
    <glyph glyph-name="Icircumflex" unicode="&#xce;" horiz-adv-x="212" 
d="M159 911l-119 -111h-56l123 147h111l86 -147h-55zM30 0l86 700h67l-86 -700h-67z" />
    <glyph glyph-name="Idieresis" unicode="&#xcf;" horiz-adv-x="212" 
d="M78 883l-10 -77h-76l9 77h77zM309 883l-9 -77h-76l9 77h76zM30 0l86 700h67l-86 -700h-67z" />
    <glyph glyph-name="Eth" unicode="&#xd0;" horiz-adv-x="755" 
d="M191 700h194q150 0 236.5 -102t68.5 -252q-18 -146 -128.5 -246t-259.5 -100h-197l40 323h-82l7 52h81zM625 352q15 126 -51.5 208t-193.5 82h-129l-33 -267h162l-7 -52h-161l-33 -265h127q127 0 215 83.5t104 210.5z" />
    <glyph glyph-name="Ntilde" unicode="&#xd1;" horiz-adv-x="703" 
d="M540 882l34 -3q-6 -45 -35 -70t-68 -25q-33 0 -58 18t-47 36.5t-47 18.5q-28 0 -45.5 -17t-18.5 -34l-33 3q6 44 36.5 70t67.5 26q34 0 60.5 -17t47.5 -34t42 -17q27 0 44.5 14t19.5 31zM586 0h-9l-412 541l-66 -541h-68l86 700h9l412 -543l67 543h67z" />
    <glyph glyph-name="Ograve" unicode="&#xd2;" horiz-adv-x="776" 
d="M402 947h-93l89 -145h57zM426 707q67 0 126.5 -26.5t103 -73t64.5 -114.5t12 -146q-19 -152 -135.5 -253t-252.5 -101t-230.5 103.5t-75.5 256.5q19 152 136.5 253t251.5 101zM661 353q16 127 -54.5 209t-182.5 82q-109 0 -204.5 -84.5t-110.5 -212.5q-16 -126 57 -208.5
t180 -82.5q114 0 207 84t108 213z" />
    <glyph glyph-name="Oacute" unicode="&#xd3;" horiz-adv-x="776" 
d="M452 802l125 145h-92l-90 -145h57zM426 707q67 0 126.5 -26.5t103 -73t64.5 -114.5t12 -146q-19 -152 -135.5 -253t-252.5 -101t-230.5 103.5t-75.5 256.5q19 152 136.5 253t251.5 101zM661 353q16 127 -54.5 209t-182.5 82q-109 0 -204.5 -84.5t-110.5 -212.5
q-16 -126 57 -208.5t180 -82.5q114 0 207 84t108 213z" />
    <glyph glyph-name="Ocircumflex" unicode="&#xd4;" horiz-adv-x="776" 
d="M438 911l-119 -111h-55l122 147h111l86 -147h-55zM426 707q67 0 126.5 -26.5t103 -73t64.5 -114.5t12 -146q-19 -152 -135.5 -253t-252.5 -101t-230.5 103.5t-75.5 256.5q19 152 136.5 253t251.5 101zM661 353q16 127 -54.5 209t-182.5 82q-109 0 -204.5 -84.5
t-110.5 -212.5q-16 -126 57 -208.5t180 -82.5q114 0 207 84t108 213z" />
    <glyph glyph-name="Otilde" unicode="&#xd5;" horiz-adv-x="776" 
d="M572 882l34 -3q-6 -45 -35 -70t-68 -25q-33 0 -58 18t-47 36.5t-47 18.5q-28 0 -45.5 -17t-18.5 -34l-33 3q6 44 36.5 70t67.5 26q34 0 60.5 -17t47.5 -34t42 -17q27 0 44.5 14t19.5 31zM426 707q67 0 126.5 -26.5t103 -73t64.5 -114.5t12 -146q-19 -152 -135.5 -253
t-252.5 -101t-230.5 103.5t-75.5 256.5q19 152 136.5 253t251.5 101zM661 353q16 127 -54.5 209t-182.5 82q-109 0 -204.5 -84.5t-110.5 -212.5q-16 -126 57 -208.5t180 -82.5q114 0 207 84t108 213z" />
    <glyph glyph-name="Odieresis" unicode="&#xd6;" horiz-adv-x="776" 
d="M357 883l-10 -77h-76l9 77h77zM588 883l-9 -77h-76l9 77h76zM426 707q67 0 126.5 -26.5t103 -73t64.5 -114.5t12 -146q-19 -152 -135.5 -253t-252.5 -101t-230.5 103.5t-75.5 256.5q19 152 136.5 253t251.5 101zM661 353q16 127 -54.5 209t-182.5 82q-109 0 -204.5 -84.5
t-110.5 -212.5q-16 -126 57 -208.5t180 -82.5q114 0 207 84t108 213z" />
    <glyph glyph-name="multiply" unicode="&#xd7;" horiz-adv-x="364" 
d="M210 282l88 -100l-40 -37l-89 101l-111 -100l-34 36l113 101l-88 99l40 37l88 -100l113 101l33 -37z" />
    <glyph glyph-name="Oslash" unicode="&#xd8;" horiz-adv-x="794" 
d="M610 745l-35 -75q82 -44 126.5 -129.5t30.5 -193.5q-19 -152 -135.5 -253t-252.5 -101q-47 0 -87 13l-27 -56h-69l38 79q-83 45 -128.5 130.5t-32.5 193.5q19 152 136.5 253t251.5 101q44 0 91 -13l24 51h69zM109 347q-11 -87 22.5 -155t95.5 -104l262 548q-34 8 -65 8
q-109 0 -204.5 -84.5t-110.5 -212.5zM661 353q12 87 -20 155t-94 104l-262 -548q32 -8 61 -8q114 0 207 84t108 213z" />
    <glyph glyph-name="Ugrave" unicode="&#xd9;" horiz-adv-x="669" 
d="M352 947h-93l89 -145h57zM643 700l-54 -439q-15 -124 -97.5 -196t-198.5 -72q-118 0 -184 73.5t-50 197.5l53 436h65l-54 -438q-13 -102 33.5 -156.5t138.5 -54.5q93 0 155 56t75 158l53 435h65z" />
    <glyph glyph-name="Uacute" unicode="&#xda;" horiz-adv-x="669" 
d="M402 802l125 145h-92l-90 -145h57zM643 700l-54 -439q-15 -124 -97.5 -196t-198.5 -72q-118 0 -184 73.5t-50 197.5l53 436h65l-54 -438q-13 -102 33.5 -156.5t138.5 -54.5q93 0 155 56t75 158l53 435h65z" />
    <glyph glyph-name="Ucircumflex" unicode="&#xdb;" horiz-adv-x="669" 
d="M388 911l-119 -111h-55l122 147h111l86 -147h-55zM643 700l-54 -439q-15 -124 -97.5 -196t-198.5 -72q-118 0 -184 73.5t-50 197.5l53 436h65l-54 -438q-13 -102 33.5 -156.5t138.5 -54.5q93 0 155 56t75 158l53 435h65z" />
    <glyph glyph-name="Udieresis" unicode="&#xdc;" horiz-adv-x="669" 
d="M307 883l-10 -77h-76l9 77h77zM538 883l-9 -77h-76l9 77h76zM643 700l-54 -439q-15 -124 -97.5 -196t-198.5 -72q-118 0 -184 73.5t-50 197.5l53 436h65l-54 -438q-13 -102 33.5 -156.5t138.5 -54.5q93 0 155 56t75 158l53 435h65z" />
    <glyph glyph-name="Yacute" unicode="&#xdd;" horiz-adv-x="657" 
d="M389 802l125 145h-92l-90 -145h57zM312 0h-65l42 338l-215 362h73l179 -307l258 307h73l-303 -362z" />
    <glyph glyph-name="Thorn" unicode="&#xde;" horiz-adv-x="635" 
d="M166 565h171q118 0 181 -59.5t52 -156.5q-13 -100 -87.5 -155t-194.5 -55h-174l-17 -139h-65l86 700h65zM505 355q10 74 -34.5 113.5t-134.5 39.5h-176l4 33l-49 -397l7 53h173q192 0 210 158z" />
    <glyph glyph-name="germandbls" unicode="&#xdf;" horiz-adv-x="642" 
d="M426 384q70 -15 102.5 -63.5t24.5 -114.5q-25 -206 -295 -206h-80l8 58h82q202 0 220 148q9 71 -39.5 109t-147.5 38h-79l7 57h79q84 0 128 27t51 90q7 55 -33.5 85.5t-117.5 30.5q-160 0 -175 -131l-63 -512h-65l63 512q11 86 76.5 137t171.5 51q102 0 160 -47t48 -126
q-14 -117 -126 -143z" />
    <glyph glyph-name="agrave" unicode="&#xe0;" 
d="M320 767h-93l89 -145h57zM432 0l13 107q-28 -54 -83 -84t-117 -30q-95 0 -163.5 72t-53.5 198q8 63 37 115t69 83.5t84.5 48t86.5 16.5q63 0 111 -29t67 -81l13 104h65l-64 -520h-65zM253 51q73 0 137.5 56t76.5 156t-37 153t-121 53t-138 -56.5t-78 -155.5
q-12 -98 38.5 -152t121.5 -54z" />
    <glyph glyph-name="aacute" unicode="&#xe1;" 
d="M370 622l125 145h-92l-90 -145h57zM432 0l13 107q-28 -54 -83 -84t-117 -30q-95 0 -163.5 72t-53.5 198q8 63 37 115t69 83.5t84.5 48t86.5 16.5q63 0 111 -29t67 -81l13 104h65l-64 -520h-65zM253 51q73 0 137.5 56t76.5 156t-37 153t-121 53t-138 -56.5t-78 -155.5
q-12 -98 38.5 -152t121.5 -54z" />
    <glyph glyph-name="acircumflex" unicode="&#xe2;" 
d="M356 731l-119 -111h-55l122 147h111l86 -147h-55zM432 0l13 107q-28 -54 -83 -84t-117 -30q-95 0 -163.5 72t-53.5 198q8 63 37 115t69 83.5t84.5 48t86.5 16.5q63 0 111 -29t67 -81l13 104h65l-64 -520h-65zM253 51q73 0 137.5 56t76.5 156t-37 153t-121 53t-138 -56.5
t-78 -155.5q-12 -98 38.5 -152t121.5 -54z" />
    <glyph glyph-name="atilde" unicode="&#xe3;" 
d="M490 702l34 -3q-6 -45 -35 -70t-68 -25q-33 0 -58 18t-47 36.5t-47 18.5q-28 0 -45.5 -17t-18.5 -34l-33 3q6 44 36.5 70t67.5 26q34 0 60.5 -17t47.5 -34t42 -17q27 0 44.5 14t19.5 31zM432 0l13 107q-28 -54 -83 -84t-117 -30q-95 0 -163.5 72t-53.5 198q8 63 37 115
t69 83.5t84.5 48t86.5 16.5q63 0 111 -29t67 -81l13 104h65l-64 -520h-65zM253 51q73 0 137.5 56t76.5 156t-37 153t-121 53t-138 -56.5t-78 -155.5q-12 -98 38.5 -152t121.5 -54z" />
    <glyph glyph-name="adieresis" unicode="&#xe4;" 
d="M275 703l-10 -77h-76l9 77h77zM506 703l-9 -77h-76l9 77h76zM432 0l13 107q-28 -54 -83 -84t-117 -30q-95 0 -163.5 72t-53.5 198q8 63 37 115t69 83.5t84.5 48t86.5 16.5q63 0 111 -29t67 -81l13 104h65l-64 -520h-65zM253 51q73 0 137.5 56t76.5 156t-37 153t-121 53
t-138 -56.5t-78 -155.5q-12 -98 38.5 -152t121.5 -54z" />
    <glyph glyph-name="aring" unicode="&#xe5;" 
d="M346 616q-37 0 -60 25.5t-19 61.5q5 33 32 57t62 24t58 -26t19 -61q-5 -33 -32 -57t-60 -24zM347 661q16 0 29.5 12t15.5 27q2 17 -8.5 28.5t-25.5 11.5q-17 0 -30 -12t-15 -28t8 -27.5t26 -11.5zM432 0l13 107q-28 -54 -83 -84t-117 -30q-95 0 -163.5 72t-53.5 198
q8 63 37 115t69 83.5t84.5 48t86.5 16.5q63 0 111 -29t67 -81l13 104h65l-64 -520h-65zM253 51q73 0 137.5 56t76.5 156t-37 153t-121 53t-138 -56.5t-78 -155.5q-12 -98 38.5 -152t121.5 -54z" />
    <glyph glyph-name="ae" unicode="&#xe6;" horiz-adv-x="1031" 
d="M757 526q95 0 165 -72t54 -197q-1 -10 -5 -25h-434q-4 -86 46 -133.5t116 -47.5q92 0 157 65l51 -34q-85 -89 -210 -89q-54 0 -105.5 26t-83.5 74l-11 -93h-65l13 107q-28 -54 -83 -84t-117 -30q-95 0 -163.5 72t-53.5 198q8 63 37 115t69 83.5t84.5 48t86.5 16.5
q63 0 111 -29t67 -81l13 104h65l-11 -90q43 46 98.5 71t108.5 25zM467 263q12 100 -37 153t-121 53t-138 -56.5t-78 -155.5q-12 -98 38.5 -152t121.5 -54q73 0 137.5 56t76.5 156zM545 288l370 3q5 57 -19.5 99t-61.5 60t-79 18q-67 0 -129.5 -47.5t-80.5 -132.5z" />
    <glyph glyph-name="ccedilla" unicode="&#xe7;" horiz-adv-x="546" 
d="M255 51q46 0 91 22.5t75 65.5l57 -24q-34 -52 -87 -83t-109 -37l-44 -42q34 -3 55 -27t17 -60q-5 -47 -54 -70.5t-113 -11.5l12 27q43 -6 69.5 12.5t30.5 48.5q3 27 -17 39t-51 -6l-16 29l49 61q-86 14 -144 84t-44 184q15 123 102 193t180 70q63 0 117.5 -32t81.5 -92
l-61 -20q-19 43 -57 64.5t-83 21.5q-72 0 -137.5 -56t-78.5 -155q-12 -98 38.5 -152t120.5 -54z" />
    <glyph glyph-name="egrave" unicode="&#xe8;" horiz-adv-x="595" 
d="M290 767h-93l89 -145h57zM533 232h-433q-5 -86 44.5 -133.5t116.5 -47.5q92 0 157 65l51 -34q-85 -89 -210 -89q-44 0 -85.5 17t-75.5 49.5t-51.5 85.5t-9.5 118q8 63 37.5 115t70.5 83.5t86 48t88 16.5q95 0 165 -72t55 -197q0 -2 -6 -25zM107 288l370 3q5 57 -19.5 99
t-61.5 60t-79 18q-66 0 -129 -47.5t-81 -132.5z" />
    <glyph glyph-name="eacute" unicode="&#xe9;" horiz-adv-x="595" 
d="M339 622l125 145h-92l-90 -145h57zM533 232h-433q-5 -86 44.5 -133.5t116.5 -47.5q92 0 157 65l51 -34q-85 -89 -210 -89q-44 0 -85.5 17t-75.5 49.5t-51.5 85.5t-9.5 118q8 63 37.5 115t70.5 83.5t86 48t88 16.5q95 0 165 -72t55 -197q0 -2 -6 -25zM107 288l370 3
q5 57 -19.5 99t-61.5 60t-79 18q-66 0 -129 -47.5t-81 -132.5z" />
    <glyph glyph-name="ecircumflex" unicode="&#xea;" horiz-adv-x="595" 
d="M326 731l-119 -111h-55l122 147h111l86 -147h-55zM533 232h-433q-5 -86 44.5 -133.5t116.5 -47.5q92 0 157 65l51 -34q-85 -89 -210 -89q-44 0 -85.5 17t-75.5 49.5t-51.5 85.5t-9.5 118q8 63 37.5 115t70.5 83.5t86 48t88 16.5q95 0 165 -72t55 -197q0 -2 -6 -25z
M107 288l370 3q5 57 -19.5 99t-61.5 60t-79 18q-66 0 -129 -47.5t-81 -132.5z" />
    <glyph glyph-name="edieresis" unicode="&#xeb;" horiz-adv-x="595" 
d="M245 703l-10 -77h-76l9 77h77zM476 703l-9 -77h-76l9 77h76zM533 232h-433q-5 -86 44.5 -133.5t116.5 -47.5q92 0 157 65l51 -34q-85 -89 -210 -89q-44 0 -85.5 17t-75.5 49.5t-51.5 85.5t-9.5 118q8 63 37.5 115t70.5 83.5t86 48t88 16.5q95 0 165 -72t55 -197
q0 -2 -6 -25zM107 288l370 3q5 57 -19.5 99t-61.5 60t-79 18q-66 0 -129 -47.5t-81 -132.5z" />
    <glyph glyph-name="igrave" unicode="&#xec;" horiz-adv-x="215" 
d="M103 767h-93l89 -145h57zM161 520l-64 -520h-65l64 520h65z" />
    <glyph glyph-name="iacute" unicode="&#xed;" horiz-adv-x="215" 
d="M152 622l125 145h-92l-90 -145h57zM161 520l-64 -520h-65l64 520h65z" />
    <glyph glyph-name="icircumflex" unicode="&#xee;" horiz-adv-x="215" 
d="M139 731l-119 -111h-56l123 147h111l86 -147h-55zM161 520l-64 -520h-65l64 520h65z" />
    <glyph glyph-name="idieresis" unicode="&#xef;" horiz-adv-x="215" 
d="M58 703l-10 -77h-76l9 77h77zM289 703l-9 -77h-76l9 77h76zM161 520l-64 -520h-65l64 520h65z" />
    <glyph glyph-name="eth" unicode="&#xf0;" horiz-adv-x="602" 
d="M494 592l-56 -8q53 -86 74 -164t10 -171q-15 -123 -91 -191t-182 -68q-100 0 -159 70.5t-44 194.5q16 127 85 196t178 69q84 0 124 -44l-61 98l-92 -13l6 57l53 8l-46 74h72l41 -65l95 14zM457 255q26 207 -150 207q-170 0 -197 -213q-12 -98 30 -149.5t110 -51.5
q78 0 136.5 53t70.5 154z" />
    <glyph glyph-name="ntilde" unicode="&#xf1;" horiz-adv-x="582" 
d="M457 702l34 -3q-6 -45 -35 -70t-68 -25q-33 0 -58 18t-47 36.5t-47 18.5q-28 0 -45.5 -17t-18.5 -34l-33 3q6 44 36.5 70t67.5 26q34 0 60.5 -17t47.5 -34t42 -17q27 0 44.5 14t19.5 31zM338 525q88 0 142 -56t40 -168l-37 -301h-65l38 303q9 83 -26 124t-101 41
q-70 0 -127 -52t-74 -112l11 89q10 41 65 86.5t134 45.5zM154 520l-64 -520h-65l64 520h65z" />
    <glyph glyph-name="ograve" unicode="&#xf2;" horiz-adv-x="593" 
d="M291 767h-93l89 -145h57zM314 526q44 0 86 -17t76 -49.5t51 -85.5t9 -117t-37.5 -116t-70.5 -83.5t-86 -48t-88 -16.5q-44 0 -85.5 17t-75.5 49.5t-51.5 85.5t-9.5 118q8 63 37.5 115t70.5 83.5t86 48t88 16.5zM472 263q12 97 -39 151t-121 54q-72 0 -137.5 -56
t-78.5 -155q-12 -98 38.5 -152t121.5 -54q72 0 137.5 56t78.5 156z" />
    <glyph glyph-name="oacute" unicode="&#xf3;" horiz-adv-x="593" 
d="M340 622l125 145h-92l-90 -145h57zM314 526q44 0 86 -17t76 -49.5t51 -85.5t9 -117t-37.5 -116t-70.5 -83.5t-86 -48t-88 -16.5q-44 0 -85.5 17t-75.5 49.5t-51.5 85.5t-9.5 118q8 63 37.5 115t70.5 83.5t86 48t88 16.5zM472 263q12 97 -39 151t-121 54q-72 0 -137.5 -56
t-78.5 -155q-12 -98 38.5 -152t121.5 -54q72 0 137.5 56t78.5 156z" />
    <glyph glyph-name="ocircumflex" unicode="&#xf4;" horiz-adv-x="593" 
d="M326 731l-119 -111h-55l122 147h111l86 -147h-55zM314 526q44 0 86 -17t76 -49.5t51 -85.5t9 -117t-37.5 -116t-70.5 -83.5t-86 -48t-88 -16.5q-44 0 -85.5 17t-75.5 49.5t-51.5 85.5t-9.5 118q8 63 37.5 115t70.5 83.5t86 48t88 16.5zM472 263q12 97 -39 151t-121 54
q-72 0 -137.5 -56t-78.5 -155q-12 -98 38.5 -152t121.5 -54q72 0 137.5 56t78.5 156z" />
    <glyph glyph-name="otilde" unicode="&#xf5;" horiz-adv-x="593" 
d="M461 702l34 -3q-6 -45 -35 -70t-68 -25q-33 0 -58 18t-47 36.5t-47 18.5q-28 0 -45.5 -17t-18.5 -34l-33 3q6 44 36.5 70t67.5 26q34 0 60.5 -17t47.5 -34t42 -17q27 0 44.5 14t19.5 31zM314 526q44 0 86 -17t76 -49.5t51 -85.5t9 -117t-37.5 -116t-70.5 -83.5t-86 -48
t-88 -16.5q-44 0 -85.5 17t-75.5 49.5t-51.5 85.5t-9.5 118q8 63 37.5 115t70.5 83.5t86 48t88 16.5zM472 263q12 97 -39 151t-121 54q-72 0 -137.5 -56t-78.5 -155q-12 -98 38.5 -152t121.5 -54q72 0 137.5 56t78.5 156z" />
    <glyph glyph-name="odieresis" unicode="&#xf6;" horiz-adv-x="593" 
d="M245 703l-10 -77h-76l9 77h77zM476 703l-9 -77h-76l9 77h76zM314 526q44 0 86 -17t76 -49.5t51 -85.5t9 -117t-37.5 -116t-70.5 -83.5t-86 -48t-88 -16.5q-44 0 -85.5 17t-75.5 49.5t-51.5 85.5t-9.5 118q8 63 37.5 115t70.5 83.5t86 48t88 16.5zM472 263q12 97 -39 151
t-121 54q-72 0 -137.5 -56t-78.5 -155q-12 -98 38.5 -152t121.5 -54q72 0 137.5 56t78.5 156z" />
    <glyph glyph-name="divide" unicode="&#xf7;" horiz-adv-x="425" 
d="M265 466l-10 -79h-77l10 79h77zM375 307l-7 -52h-335l7 52h335zM229 175l-9 -79h-78l10 79h77z" />
    <glyph glyph-name="oslash" unicode="&#xf8;" horiz-adv-x="586" 
d="M470 578l-40 -84q57 -32 87 -92.5t19 -144.5q-8 -64 -37.5 -116t-70.5 -83.5t-86 -48t-88 -16.5q-28 0 -60 8l-25 -51h-67l36 75q-56 32 -86 93t-20 145q8 63 37.5 115t70.5 83.5t86 48t88 16.5q29 0 61 -8l28 60h67zM96 257q-15 -121 68 -178l184 385q-16 4 -36 4
q-72 0 -137.5 -56t-78.5 -155zM472 263q14 122 -69 177l-184 -385q16 -4 37 -4q72 0 137.5 56t78.5 156z" />
    <glyph glyph-name="ugrave" unicode="&#xf9;" horiz-adv-x="570" 
d="M267 622l-89 145h93l53 -145h-57zM521 520l-64 -520h-66l16 128q-16 -44 -71.5 -89.5t-131.5 -45.5q-85 0 -134.5 54.5t-36.5 166.5l38 306h66l-37 -308q-21 -161 113 -161q68 0 125 51t80 115l37 303h66z" />
    <glyph glyph-name="uacute" unicode="&#xfa;" horiz-adv-x="570" 
d="M321 622h-57l90 145h92zM521 520l-64 -520h-66l16 128q-16 -44 -71.5 -89.5t-131.5 -45.5q-85 0 -134.5 54.5t-36.5 166.5l38 306h66l-37 -308q-21 -161 113 -161q68 0 125 51t80 115l37 303h66z" />
    <glyph glyph-name="ucircumflex" unicode="&#xfb;" horiz-adv-x="570" 
d="M188 620h-55l122 147h111l86 -147h-55l-90 111zM521 520l-64 -520h-66l16 128q-16 -44 -71.5 -89.5t-131.5 -45.5q-85 0 -134.5 54.5t-36.5 166.5l38 306h66l-37 -308q-21 -161 113 -161q68 0 125 51t80 115l37 303h66z" />
    <glyph glyph-name="udieresis" unicode="&#xfc;" horiz-adv-x="570" 
d="M216 626h-76l9 77h77zM448 626h-76l9 77h76zM521 520l-64 -520h-66l16 128q-16 -44 -71.5 -89.5t-131.5 -45.5q-85 0 -134.5 54.5t-36.5 166.5l38 306h66l-37 -308q-21 -161 113 -161q68 0 125 51t80 115l37 303h66z" />
    <glyph glyph-name="yacute" unicode="&#xfd;" horiz-adv-x="554" 
d="M329 622h-57l90 145h92zM543 520l-375 -710h-65l109 207l-158 503h65l133 -428l225 428h66z" />
    <glyph glyph-name="thorn" unicode="&#xfe;" horiz-adv-x="618" 
d="M357 526q94 0 162.5 -72t53.5 -197q-10 -84 -57 -146.5t-104.5 -90t-115.5 -27.5q-63 0 -112.5 31.5t-65.5 85.5l-13 -110l-23 -190h-65l23 190l86 700h66l-35 -280q13 21 32 39q69 67 168 67zM509 263q12 97 -39 151.5t-121 54.5q-73 0 -138 -55t-77 -157
q-12 -98 38 -152t120 -54q73 0 138.5 56t78.5 156z" />
    <glyph glyph-name="ydieresis" unicode="&#xff;" horiz-adv-x="554" 
d="M225 626h-76l9 77h77zM457 626h-76l9 77h76zM543 520l-375 -710h-65l109 207l-158 503h65l133 -428l225 428h66z" />
    <glyph glyph-name="Amacron" unicode="&#x100;" horiz-adv-x="697" 
d="M575 823h-364l7 57h365zM490 222h-307l-123 -222h-71l397 700h17l224 -700h-69zM473 280l-92 301l-166 -301h258z" />
    <glyph glyph-name="amacron" unicode="&#x101;" 
d="M535 700l-8 -57h-364l7 57h365zM432 0l13 107q-28 -54 -83 -84t-117 -30q-95 0 -163.5 72t-53.5 198q8 63 37 115t69 83.5t84.5 48t86.5 16.5q63 0 111 -29t67 -81l13 104h65l-64 -520h-65zM253 51q73 0 137.5 56t76.5 156t-37 153t-121 53t-138 -56.5t-78 -155.5
q-12 -98 38.5 -152t121.5 -54z" />
    <glyph glyph-name="Abreve" unicode="&#x102;" horiz-adv-x="697" 
d="M392 796q-66 0 -103.5 47t-32.5 104h50q1 -39 23.5 -65t65.5 -26q44 0 74.5 26.5t41.5 64.5h49q-8 -59 -54.5 -105t-113.5 -46zM490 222h-307l-123 -222h-71l397 700h17l224 -700h-69zM473 280l-92 301l-166 -301h258z" />
    <glyph glyph-name="abreve" unicode="&#x103;" 
d="M463 767h49q-8 -59 -54.5 -105t-113.5 -46q-66 0 -103.5 47t-32.5 104h50q1 -39 23.5 -65t65.5 -26q44 0 74.5 26.5t41.5 64.5zM432 0l13 107q-28 -54 -83 -84t-117 -30q-95 0 -163.5 72t-53.5 198q8 63 37 115t69 83.5t84.5 48t86.5 16.5q63 0 111 -29t67 -81l13 104h65
l-64 -520h-65zM253 51q73 0 137.5 56t76.5 156t-37 153t-121 53t-138 -56.5t-78 -155.5q-12 -98 38.5 -152t121.5 -54z" />
    <glyph glyph-name="Aogonek" unicode="&#x104;" horiz-adv-x="697" 
d="M627 0h-5q-77 -32 -108.5 -58.5t-36.5 -61.5q-4 -31 19.5 -44.5t57.5 -3.5l14 -31q-20 -9 -47 -9.5t-52 7.5t-40.5 30t-11.5 54q5 41 43 71t98 46l-68 222h-307l-123 -222h-71l397 700h17zM473 280l-92 301l-166 -301h258z" />
    <glyph glyph-name="aogonek" unicode="&#x105;" 
d="M561 520l-64 -520h-4q-77 -32 -108.5 -58.5t-36.5 -61.5q-4 -31 19.5 -44.5t57.5 -3.5l14 -31q-20 -9 -47 -9.5t-52 7.5t-40.5 30t-11.5 54q5 41 43 71t98 46h3l13 107q-28 -54 -83 -84t-117 -30q-95 0 -163.5 72t-53.5 198q8 63 37 115t69 83.5t84.5 48t86.5 16.5
q63 0 111 -29t67 -81l13 104h65zM253 51q73 0 137.5 56t76.5 156t-37 153t-121 53t-138 -56.5t-78 -155.5q-12 -98 38.5 -152t121.5 -54z" />
    <glyph glyph-name="Cacute" unicode="&#x106;" horiz-adv-x="657" 
d="M415 802l125 145h-92l-90 -145h57zM340 56q105 0 189 74l39 -51q-105 -86 -231 -86q-87 0 -161 45t-115.5 129t-28.5 186q19 152 136.5 253t251.5 101q126 0 212 -88l-45 -46q-63 71 -169 71q-108 0 -204.5 -86t-111.5 -211q-15 -123 58.5 -207t179.5 -84z" />
    <glyph glyph-name="cacute" unicode="&#x107;" horiz-adv-x="546" 
d="M322 622l125 145h-92l-90 -145h57zM255 51q46 0 91 22.5t75 65.5l57 -24q-39 -59 -101 -90.5t-124 -31.5q-94 0 -165 72t-56 198q15 123 102 193t180 70q63 0 117.5 -32t81.5 -92l-61 -20q-19 43 -57 64.5t-83 21.5q-72 0 -137.5 -56t-78.5 -155q-12 -98 38.5 -152
t120.5 -54z" />
    <glyph glyph-name="Cdotaccent" unicode="&#x10a;" horiz-adv-x="657" 
d="M437 933l-8 -67h-66l8 67h66zM340 56q105 0 189 74l39 -51q-105 -86 -231 -86q-87 0 -161 45t-115.5 129t-28.5 186q19 152 136.5 253t251.5 101q126 0 212 -88l-45 -46q-63 71 -169 71q-108 0 -204.5 -86t-111.5 -211q-15 -123 58.5 -207t179.5 -84z" />
    <glyph glyph-name="cdotaccent" unicode="&#x10b;" horiz-adv-x="546" 
d="M343 753l-8 -67h-66l8 67h66zM255 51q46 0 91 22.5t75 65.5l57 -24q-39 -59 -101 -90.5t-124 -31.5q-94 0 -165 72t-56 198q15 123 102 193t180 70q63 0 117.5 -32t81.5 -92l-61 -20q-19 43 -57 64.5t-83 21.5q-72 0 -137.5 -56t-78.5 -155q-12 -98 38.5 -152t120.5 -54z
" />
    <glyph glyph-name="Ccaron" unicode="&#x10c;" horiz-adv-x="657" 
d="M565 950l-123 -148h-110l-86 148h54l91 -112l118 112h56zM340 56q105 0 189 74l39 -51q-105 -86 -231 -86q-87 0 -161 45t-115.5 129t-28.5 186q19 152 136.5 253t251.5 101q126 0 212 -88l-45 -46q-63 71 -169 71q-108 0 -204.5 -86t-111.5 -211q-15 -123 58.5 -207
t179.5 -84z" />
    <glyph glyph-name="ccaron" unicode="&#x10d;" horiz-adv-x="546" 
d="M472 770l-123 -148h-110l-86 148h54l91 -112l118 112h56zM255 51q46 0 91 22.5t75 65.5l57 -24q-39 -59 -101 -90.5t-124 -31.5q-94 0 -165 72t-56 198q15 123 102 193t180 70q63 0 117.5 -32t81.5 -92l-61 -20q-19 43 -57 64.5t-83 21.5q-72 0 -137.5 -56t-78.5 -155
q-12 -98 38.5 -152t120.5 -54z" />
    <glyph glyph-name="Dcaron" unicode="&#x10e;" horiz-adv-x="672" 
d="M324 802l-86 148h54l91 -112l118 112h56l-123 -148h-110zM118 700h194q150 0 236.5 -102t68.5 -252q-18 -146 -128.5 -246t-259.5 -100h-197zM552 352q15 126 -51.5 208t-193.5 82h-129l-72 -584h127q127 0 215 83.5t104 210.5z" />
    <glyph glyph-name="dcaron" unicode="&#x10f;" horiz-adv-x="799" 
d="M302 526q62 0 109.5 -28.5t67.5 -80.5l35 283h66l-86 -700h-65l13 107q-28 -54 -83.5 -84t-117.5 -30q-95 0 -163.5 72t-53.5 198q8 63 37 115t69.5 83.5t84.5 48t87 16.5zM657 555l125 145h-92l-89 -145h56zM249 51q72 0 137 56t78 156q12 100 -38 153t-121 53
q-72 0 -138 -56.5t-78 -155.5q-12 -98 38.5 -152t121.5 -54z" />
    <glyph glyph-name="Dcroat" unicode="&#x110;" horiz-adv-x="755" 
d="M191 700h194q150 0 236.5 -102t68.5 -252q-18 -146 -128.5 -246t-259.5 -100h-197l40 323h-82l7 52h81zM625 352q15 126 -51.5 208t-193.5 82h-129l-33 -267h162l-7 -52h-161l-33 -265h127q127 0 215 83.5t104 210.5z" />
    <glyph glyph-name="dcroat" unicode="&#x111;" horiz-adv-x="666" 
d="M637 579h-72l-71 -579h-65l13 107q-28 -54 -83.5 -84t-117.5 -30q-95 0 -163.5 72t-53.5 198q8 63 37 115t69.5 83.5t84.5 48t87 16.5q62 0 109.5 -28.5t67.5 -80.5l20 162h-226l7 57h226l8 64h66l-8 -64h73zM464 263q12 100 -38 153t-121 53q-72 0 -138 -56.5
t-78 -155.5q-12 -98 38.5 -152t121.5 -54q72 0 137 56t78 156z" />
    <glyph glyph-name="Emacron" unicode="&#x112;" horiz-adv-x="572" 
d="M526 880l-8 -57h-364l7 57h365zM23 0l86 700h68l-86 -700h-68zM546 700l-8 -59h-368l7 59h369zM407 382l-8 -60h-268l7 60h269zM477 59l-7 -59h-379l8 59h378z" />
    <glyph glyph-name="emacron" unicode="&#x113;" horiz-adv-x="595" 
d="M504 700l-8 -57h-364l7 57h365zM533 232h-433q-5 -86 44.5 -133.5t116.5 -47.5q92 0 157 65l51 -34q-85 -89 -210 -89q-44 0 -85.5 17t-75.5 49.5t-51.5 85.5t-9.5 118q8 63 37.5 115t70.5 83.5t86 48t88 16.5q95 0 165 -72t55 -197q0 -2 -6 -25zM107 288l370 3
q5 57 -19.5 99t-61.5 60t-79 18q-66 0 -129 -47.5t-81 -132.5z" />
    <glyph glyph-name="Edotaccent" unicode="&#x116;" horiz-adv-x="572" 
d="M382 933l-8 -67h-66l8 67h66zM23 0l86 700h68l-86 -700h-68zM546 700l-8 -59h-368l7 59h369zM407 382l-8 -60h-268l7 60h269zM477 59l-7 -59h-379l8 59h378z" />
    <glyph glyph-name="edotaccent" unicode="&#x117;" horiz-adv-x="595" 
d="M361 753l-8 -67h-66l8 67h66zM533 232h-433q-5 -86 44.5 -133.5t116.5 -47.5q92 0 157 65l51 -34q-85 -89 -210 -89q-44 0 -85.5 17t-75.5 49.5t-51.5 85.5t-9.5 118q8 63 37.5 115t70.5 83.5t86 48t88 16.5q95 0 165 -72t55 -197q0 -2 -6 -25zM107 288l370 3
q5 57 -19.5 99t-61.5 60t-79 18q-66 0 -129 -47.5t-81 -132.5z" />
    <glyph glyph-name="Eogonek" unicode="&#x118;" horiz-adv-x="572" 
d="M109 700h68l-86 -700h-68zM538 641h-368l7 59h369zM138 382h269l-8 -60h-268zM265 -117q5 41 43 71t98 46h-315l8 59h378l-7 -59q-77 -32 -108.5 -58.5t-36.5 -61.5q-4 -31 19.5 -44.5t57.5 -3.5l14 -31q-20 -9 -47 -9.5t-52 7.5t-40.5 30t-11.5 54z" />
    <glyph glyph-name="eogonek" unicode="&#x119;" horiz-adv-x="595" 
d="M319 526q95 0 165 -72t55 -197q0 -2 -6 -25h-433q-5 -86 44.5 -133.5t116.5 -47.5q92 0 157 65l51 -34q-60 -62 -146 -82q-77 -32 -108.5 -58.5t-36.5 -61.5q-4 -31 19.5 -44.5t57.5 -3.5l14 -31q-20 -9 -47 -9.5t-52 7.5t-40.5 30t-11.5 54q9 74 120 111q-42 4 -80 23
t-68.5 51t-45.5 83t-7 112q8 63 37.5 115t70.5 83.5t86 48t88 16.5zM107 288l370 3q5 57 -19.5 99t-61.5 60t-79 18q-66 0 -129 -47.5t-81 -132.5z" />
    <glyph glyph-name="Ecaron" unicode="&#x11a;" horiz-adv-x="572" 
d="M511 950l-123 -148h-110l-86 148h54l91 -112l118 112h56zM23 0l86 700h68l-86 -700h-68zM546 700l-8 -59h-368l7 59h369zM407 382l-8 -60h-268l7 60h269zM477 59l-7 -59h-379l8 59h378z" />
    <glyph glyph-name="ecaron" unicode="&#x11b;" horiz-adv-x="595" 
d="M490 770l-123 -148h-110l-86 148h54l91 -112l118 112h56zM533 232h-433q-5 -86 44.5 -133.5t116.5 -47.5q92 0 157 65l51 -34q-85 -89 -210 -89q-44 0 -85.5 17t-75.5 49.5t-51.5 85.5t-9.5 118q8 63 37.5 115t70.5 83.5t86 48t88 16.5q95 0 165 -72t55 -197q0 -2 -6 -25
zM107 288l370 3q5 57 -19.5 99t-61.5 60t-79 18q-66 0 -129 -47.5t-81 -132.5z" />
    <glyph glyph-name="Gbreve" unicode="&#x11e;" horiz-adv-x="754" 
d="M428 796q-66 0 -103.5 47t-32.5 104h50q1 -39 23.5 -65t65.5 -26q44 0 74.5 26.5t41.5 64.5h49q-8 -59 -54.5 -105t-113.5 -46zM640 344l63 -3q-19 -155 -121 -251.5t-236 -96.5q-65 0 -124.5 27t-103 73t-65.5 114.5t-13 145.5q13 101 74 183.5t144.5 126.5t169.5 44
q80 0 141.5 -27t95.5 -71l-46 -42q-27 36 -76.5 57.5t-115.5 21.5q-109 0 -207 -86t-113 -213q-16 -124 60 -208t182 -84q95 0 172 62.5t107 165.5h-170l7 59h175v2z" />
    <glyph glyph-name="gbreve" unicode="&#x11f;" horiz-adv-x="600" 
d="M463 767h49q-8 -59 -54.5 -105t-113.5 -46q-66 0 -103.5 47t-32.5 104h50q1 -39 23.5 -65t65.5 -26q44 0 74.5 26.5t41.5 64.5zM561 520l-64 -522q-7 -55 -33.5 -96.5t-63.5 -63.5t-75 -32.5t-75 -10.5q-104 0 -152 45l5 56q46 -44 149 -44q68 0 119.5 39t60.5 111
l13 105q-28 -54 -83 -84t-117 -30q-95 0 -163.5 72t-53.5 198q8 63 37 115t69 83.5t84.5 48t86.5 16.5q63 0 111 -29t67 -81l13 104h65zM253 51q73 0 137.5 56t76.5 156t-37 153t-121 53t-138 -56.5t-78 -155.5q-12 -98 38.5 -152t121.5 -54z" />
    <glyph glyph-name="Gdotaccent" unicode="&#x120;" horiz-adv-x="754" 
d="M468 866h-66l8 67h66zM640 344l63 -3q-19 -155 -121 -251.5t-236 -96.5q-65 0 -124.5 27t-103 73t-65.5 114.5t-13 145.5q13 101 74 183.5t144.5 126.5t169.5 44q80 0 141.5 -27t95.5 -71l-46 -42q-27 36 -76.5 57.5t-115.5 21.5q-109 0 -207 -86t-113 -213
q-16 -124 60 -208t182 -84q95 0 172 62.5t107 165.5h-170l7 59h175v2z" />
    <glyph glyph-name="gdotaccent" unicode="&#x121;" horiz-adv-x="600" 
d="M391 753l-8 -67h-66l8 67h66zM561 520l-64 -522q-7 -55 -33.5 -96.5t-63.5 -63.5t-75 -32.5t-75 -10.5q-104 0 -152 45l5 56q46 -44 149 -44q68 0 119.5 39t60.5 111l13 105q-28 -54 -83 -84t-117 -30q-95 0 -163.5 72t-53.5 198q8 63 37 115t69 83.5t84.5 48t86.5 16.5
q63 0 111 -29t67 -81l13 104h65zM253 51q73 0 137.5 56t76.5 156t-37 153t-121 53t-138 -56.5t-78 -155.5q-12 -98 38.5 -152t121.5 -54z" />
    <glyph glyph-name="Gcommaaccent" unicode="&#x122;" horiz-adv-x="754" 
d="M640 344l63 -3q-19 -155 -121 -251.5t-236 -96.5q-65 0 -124.5 27t-103 73t-65.5 114.5t-13 145.5q13 101 74 183.5t144.5 126.5t169.5 44q80 0 141.5 -27t95.5 -71l-46 -42q-27 36 -76.5 57.5t-115.5 21.5q-109 0 -207 -86t-113 -213q-16 -124 60 -208t182 -84
q95 0 172 62.5t107 165.5h-170l7 59h175v2zM286 -60h89l-94 -155h-56z" />
    <glyph glyph-name="gcommaaccent" unicode="&#x123;" horiz-adv-x="575" 
d="M368 733l-94 -155h89l61 155h-56zM561 520l-64 -522q-7 -55 -33.5 -96.5t-63.5 -63.5t-75 -32.5t-75 -10.5q-104 0 -152 45l5 56q46 -44 149 -44q68 0 119.5 39t60.5 111l13 105q-28 -54 -83 -84t-117 -30q-95 0 -163.5 72t-53.5 198q8 63 37 115t69 83.5t84.5 48
t86.5 16.5q63 0 111 -29t67 -81l13 104h65zM253 51q73 0 137.5 56t76.5 156t-37 153t-121 53t-138 -56.5t-78 -155.5q-12 -98 38.5 -152t121.5 -54z" />
    <glyph glyph-name="Hbar" unicode="&#x126;" horiz-adv-x="673" 
d="M640 700l-86 -700h-67l39 314h-390l7 58h390l13 106h-390l-59 -478h-66l61 497v33h4l21 170h66l-21 -170h390l21 170h67z" />
    <glyph glyph-name="hbar" unicode="&#x127;" horiz-adv-x="632" 
d="M381 525q88 0 142 -56t40 -168l-37 -301h-65l38 303q10 83 -25.5 124t-101.5 41q-69 0 -126.5 -52.5t-74.5 -111.5l-38 -304h-65l69 562h-92v52h98l11 86h65l-10 -86h69v-52h-76l-20 -169q11 41 66 86.5t133 45.5z" />
    <glyph glyph-name="Imacron" unicode="&#x12a;" horiz-adv-x="212" 
d="M338 880l-8 -57h-365l8 57h365zM30 0l86 700h67l-86 -700h-67z" />
    <glyph glyph-name="imacron" unicode="&#x12b;" horiz-adv-x="215" 
d="M317 700l-8 -57h-365l8 57h365zM161 520l-64 -520h-65l64 520h65z" />
    <glyph glyph-name="Iogonek" unicode="&#x12e;" horiz-adv-x="212" 
d="M183 700l-86 -700h-3q-78 -32 -109 -58.5t-36 -61.5q-4 -31 19.5 -44.5t57.5 -3.5l14 -31q-20 -9 -47.5 -9.5t-52 7.5t-40.5 30t-12 54q5 41 43.5 71t98.5 46l86 700h67z" />
    <glyph glyph-name="iogonek" unicode="&#x12f;" horiz-adv-x="215" 
d="M174 753l-8 -67h-66l8 67h66zM96 520h65l-64 -520q-78 -32 -109 -58.5t-36 -61.5q-4 -31 19.5 -44.5t57.5 -3.5l14 -31q-20 -9 -47.5 -9.5t-52 7.5t-40.5 30t-12 54q5 41 43.5 71t98.5 46h-1z" />
    <glyph glyph-name="Idotaccent" unicode="&#x130;" horiz-adv-x="212" 
d="M195 933l-8 -67h-66l8 67h66zM30 0l86 700h67l-86 -700h-67z" />
    <glyph glyph-name="dotlessi" unicode="&#x131;" horiz-adv-x="215" 
d="M161 520l-64 -520h-65l64 520h65z" />
    <glyph glyph-name="IJ" unicode="&#x132;" horiz-adv-x="740" 
d="M30 0l86 700h67l-86 -700h-67zM223 76l48 42q45 -66 138 -66q164 0 191 221l53 427h65l-54 -436q-17 -141 -86.5 -206t-170.5 -65q-121 0 -184 83z" />
    <glyph glyph-name="ij" unicode="&#x133;" horiz-adv-x="465" 
d="M181 700l-7 -62h-67l8 62h66zM433 700l-7 -62h-65l7 62h65zM159 520l-64 -520h-66l64 520h66zM117 -178l5 59q44 -23 83 -23q29 0 47.5 23.5t23.5 64.5l70 574h65l-71 -584q-17 -141 -133 -141q-50 0 -90 27z" />
    <glyph glyph-name="Kcommaaccent" unicode="&#x136;" horiz-adv-x="698" 
d="M318 360l293 -360h-83l-257 316l-151 -143l4 38l-26 -211h-67l86 700h67l-54 -439l463 439h83zM252 -60h89l-94 -155h-56z" />
    <glyph glyph-name="kcommaaccent" unicode="&#x137;" horiz-adv-x="565" 
d="M247 277l248 -277h-82l-211 235l-89 -81l-19 -154h-65l10 86l10 83l1 1l65 530h65l-57 -462l304 282h84zM195 -60h89l-94 -155h-56z" />
    <glyph glyph-name="Lacute" unicode="&#x139;" horiz-adv-x="597" 
d="M172 800l126 145h-93l-89 -145h56zM34 0l86 700h66l-86 -700h-66zM477 58l-8 -58h-369l8 58h369z" />
    <glyph glyph-name="lacute" unicode="&#x13a;" horiz-adv-x="210" 
d="M171 802l125 145h-92l-90 -145h57zM29 0l86 700h66l-86 -700h-66z" />
    <glyph glyph-name="Lcommaaccent" unicode="&#x13b;" horiz-adv-x="556" 
d="M34 0l86 700h66l-86 -700h-66zM477 58l-8 -58h-369l8 58h369zM209 -215l94 155h-89l-61 -155h56z" />
    <glyph glyph-name="lcommaaccent" unicode="&#x13c;" horiz-adv-x="210" 
d="M29 0l86 700h66l-86 -700h-66zM11 -215l94 155h-89l-61 -155h56z" />
    <glyph glyph-name="Lcaron" unicode="&#x13d;" horiz-adv-x="597" 
d="M34 0l86 700h66l-86 -700h-66zM351 545l94 155h-89l-61 -155h56zM477 58l-8 -58h-369l8 58h369z" />
    <glyph glyph-name="lcaron" unicode="&#x13e;" horiz-adv-x="399" 
d="M29 0l86 700h66l-86 -700h-66zM258 545l94 155h-89l-61 -155h56z" />
    <glyph glyph-name="Ldot" unicode="&#x13f;" horiz-adv-x="563" 
d="M34 0l86 700h66l-86 -700h-66zM314 408l-10 -79h-78l10 79h78zM477 58l-8 -58h-369l8 58h369z" />
    <glyph glyph-name="ldot" unicode="&#x140;" horiz-adv-x="348" 
d="M29 0l86 700h66l-86 -700h-66zM235 406l-10 -79h-78l10 79h78z" />
    <glyph glyph-name="Lslash" unicode="&#x141;" horiz-adv-x="653" 
d="M195 321l-39 -321h-66l30 241l-65 -68v78l76 80l45 369h66l-35 -289l112 119h1v-78zM533 58l-8 -58h-369l8 58h369z" />
    <glyph glyph-name="lslash" unicode="&#x142;" horiz-adv-x="406" 
d="M334 450l-94 -99l-43 -351h-66l33 271l-91 -96v79l102 108l42 338h66l-32 -258l82 86h1v-78z" />
    <glyph glyph-name="Nacute" unicode="&#x143;" horiz-adv-x="703" 
d="M419 802l125 145h-92l-90 -145h57zM586 0h-9l-412 541l-66 -541h-68l86 700h9l412 -543l67 543h67z" />
    <glyph glyph-name="nacute" unicode="&#x144;" horiz-adv-x="582" 
d="M336 622l125 145h-92l-90 -145h57zM338 525q88 0 142 -56t40 -168l-37 -301h-65l38 303q9 83 -26 124t-101 41q-70 0 -127 -52t-74 -112l11 89q10 41 65 86.5t134 45.5zM154 520l-64 -520h-65l64 520h65z" />
    <glyph glyph-name="Ncommaaccent" unicode="&#x145;" horiz-adv-x="703" 
d="M586 0h-9l-412 541l-66 -541h-68l86 700h9l412 -543l67 543h67zM258 -215l94 155h-89l-61 -155h56z" />
    <glyph glyph-name="ncommaaccent" unicode="&#x146;" horiz-adv-x="582" 
d="M338 525q88 0 142 -56t40 -168l-37 -301h-65l38 303q9 83 -26 124t-101 41q-70 0 -127 -52t-74 -112l11 89q10 41 65 86.5t134 45.5zM154 520l-64 -520h-65l64 520h65zM198 -215l94 155h-89l-61 -155h56z" />
    <glyph glyph-name="Ncaron" unicode="&#x147;" horiz-adv-x="703" 
d="M569 950l-123 -148h-110l-86 148h54l91 -112l118 112h56zM586 0h-9l-412 541l-66 -541h-68l86 700h9l412 -543l67 543h67z" />
    <glyph glyph-name="ncaron" unicode="&#x148;" horiz-adv-x="582" 
d="M487 770l-123 -148h-110l-86 148h54l91 -112l118 112h56zM338 525q88 0 142 -56t40 -168l-37 -301h-65l38 303q9 83 -26 124t-101 41q-70 0 -127 -52t-74 -112l11 89q10 41 65 86.5t134 45.5zM154 520l-64 -520h-65l64 520h65z" />
    <glyph glyph-name="Eng" unicode="&#x14a;" horiz-adv-x="703" 
d="M648 502l-28 -228l-19 -153l-1 -3l-6 -52q-17 -142 -86 -206.5t-170 -64.5q-121 0 -184 83l48 42q45 -66 138 -66q159 0 189 209l-364 478l-66 -541h-68l86 700h9l412 -543l67 543h67z" />
    <glyph glyph-name="eng" unicode="&#x14b;" horiz-adv-x="582" 
d="M338 525q88 0 142 -56t40 -168l-37 -301h-2l-8 -63q-17 -142 -137 -142q-48 0 -88 26l7 61q52 -26 86 -26q57 0 68 89l28 232h3l16 126q9 83 -26 124t-101 41q-70 0 -127 -52t-74 -112l11 89q10 41 65 86.5t134 45.5zM154 520l-64 -520h-65l64 520h65z" />
    <glyph glyph-name="Omacron" unicode="&#x14c;" horiz-adv-x="776" 
d="M617 880l-8 -57h-364l7 57h365zM426 707q67 0 126.5 -26.5t103 -73t64.5 -114.5t12 -146q-19 -152 -135.5 -253t-252.5 -101t-230.5 103.5t-75.5 256.5q19 152 136.5 253t251.5 101zM661 353q16 127 -54.5 209t-182.5 82q-109 0 -204.5 -84.5t-110.5 -212.5
q-16 -126 57 -208.5t180 -82.5q114 0 207 84t108 213z" />
    <glyph glyph-name="omacron" unicode="&#x14d;" horiz-adv-x="593" 
d="M505 700l-8 -57h-364l7 57h365zM314 526q44 0 86 -17t76 -49.5t51 -85.5t9 -117t-37.5 -116t-70.5 -83.5t-86 -48t-88 -16.5q-44 0 -85.5 17t-75.5 49.5t-51.5 85.5t-9.5 118q8 63 37.5 115t70.5 83.5t86 48t88 16.5zM472 263q12 97 -39 151t-121 54q-72 0 -137.5 -56
t-78.5 -155q-12 -98 38.5 -152t121.5 -54q72 0 137.5 56t78.5 156z" />
    <glyph glyph-name="Ohungarumlaut" unicode="&#x150;" horiz-adv-x="776" 
d="M314 802l125 145h-92l-90 -145h57zM469 802l125 145h-92l-90 -145h57zM426 707q67 0 126.5 -26.5t103 -73t64.5 -114.5t12 -146q-19 -152 -135.5 -253t-252.5 -101t-230.5 103.5t-75.5 256.5q19 152 136.5 253t251.5 101zM661 353q16 127 -54.5 209t-182.5 82
q-109 0 -204.5 -84.5t-110.5 -212.5q-16 -126 57 -208.5t180 -82.5q114 0 207 84t108 213z" />
    <glyph glyph-name="ohungarumlaut" unicode="&#x151;" horiz-adv-x="593" 
d="M202 622l125 145h-92l-90 -145h57zM357 622l125 145h-92l-90 -145h57zM314 526q44 0 86 -17t76 -49.5t51 -85.5t9 -117t-37.5 -116t-70.5 -83.5t-86 -48t-88 -16.5q-44 0 -85.5 17t-75.5 49.5t-51.5 85.5t-9.5 118q8 63 37.5 115t70.5 83.5t86 48t88 16.5zM472 263
q12 97 -39 151t-121 54q-72 0 -137.5 -56t-78.5 -155q-12 -98 38.5 -152t121.5 -54q72 0 137.5 56t78.5 156z" />
    <glyph glyph-name="OE" unicode="&#x152;" horiz-adv-x="1184" 
d="M721 700h68l-86 -700h-68l19 156q-57 -75 -140.5 -119t-169.5 -44q-136 0 -230.5 103.5t-75.5 256.5q19 152 136.5 253t251.5 101q88 0 162 -44.5t113 -122.5zM1150 641h-368l7 59h369zM346 56q114 0 207 84t108 213q16 127 -54.5 209t-182.5 82q-109 0 -204.5 -84.5
t-110.5 -212.5q-16 -126 57 -208.5t180 -82.5zM750 382h269l-8 -60h-268zM1082 0h-379l8 59h378z" />
    <glyph glyph-name="oe" unicode="&#x153;" horiz-adv-x="1033" 
d="M759 526q95 0 165 -72t55 -197q0 -2 -6 -25h-433q-5 -86 44.5 -133.5t116.5 -47.5q92 0 157 65l51 -34q-85 -89 -210 -89q-65 0 -123 35.5t-84 101.5q-41 -66 -107.5 -101.5t-130.5 -35.5q-44 0 -85.5 17t-75.5 49.5t-51.5 85.5t-9.5 118q8 63 37.5 115t70.5 83.5t86 48
t88 16.5q64 0 123 -35.5t85 -100.5q41 65 107.5 100.5t129.5 35.5zM472 263q12 97 -39 151t-121 54q-72 0 -137.5 -56t-78.5 -155q-12 -98 38.5 -152t121.5 -54q72 0 137.5 56t78.5 156zM547 288l370 3q5 57 -19.5 99t-61.5 60t-79 18q-66 0 -129 -47.5t-81 -132.5z" />
    <glyph glyph-name="Racute" unicode="&#x154;" horiz-adv-x="621" 
d="M373 802h-57l90 145h92zM485 0l-186 274h-20h-153l-34 -274h-67l86 700h217q116 0 177.5 -59.5t50.5 -155.5q-10 -78 -59.5 -130.5t-130.5 -71.5l201 -283h-82zM133 332h150q91 0 145 40t64 119q9 72 -35 111.5t-133 39.5h-153z" />
    <glyph glyph-name="racute" unicode="&#x155;" horiz-adv-x="401" 
d="M245 622l125 145h-92l-90 -145h57zM350 525q14 0 40 -2l-3 -59q-15 1 -39 1q-75 -1 -135.5 -51.5t-84.5 -139.5l-34 -274h-65l64 520h65l-18 -151q18 64 76 110t134 46z" />
    <glyph glyph-name="Rcommaaccent" unicode="&#x156;" horiz-adv-x="621" 
d="M567 0h-82l-186 274h-20h-153l-34 -274h-67l86 700h217q116 0 177.5 -59.5t50.5 -155.5q-10 -78 -59.5 -130.5t-130.5 -71.5zM133 332h150q91 0 145 40t64 119q9 72 -35 111.5t-133 39.5h-153zM225 -60h89l-94 -155h-56z" />
    <glyph glyph-name="rcommaaccent" unicode="&#x157;" horiz-adv-x="401" 
d="M350 525q14 0 40 -2l-3 -59q-15 1 -39 1q-75 -1 -135.5 -51.5t-84.5 -139.5l-34 -274h-65l64 520h65l-18 -151q18 64 76 110t134 46zM11 -215l94 155h-89l-61 -155h56z" />
    <glyph glyph-name="Rcaron" unicode="&#x158;" horiz-adv-x="621" 
d="M290 802l-86 148h54l91 -112l118 112h56l-123 -148h-110zM485 0l-186 274h-20h-153l-34 -274h-67l86 700h217q116 0 177.5 -59.5t50.5 -155.5q-10 -78 -59.5 -130.5t-130.5 -71.5l201 -283h-82zM133 332h150q91 0 145 40t64 119q9 72 -35 111.5t-133 39.5h-153z" />
    <glyph glyph-name="rcaron" unicode="&#x159;" horiz-adv-x="401" 
d="M396 770l-123 -148h-110l-86 148h54l91 -112l118 112h56zM350 525q14 0 40 -2l-3 -59q-15 1 -39 1q-75 -1 -135.5 -51.5t-84.5 -139.5l-34 -274h-65l64 520h65l-18 -151q18 64 76 110t134 46z" />
    <glyph glyph-name="Sacute" unicode="&#x15a;" horiz-adv-x="578" 
d="M356 802l125 145h-92l-90 -145h57zM262 408l73 -27q95 -34 141.5 -80t36.5 -124q-10 -82 -89.5 -133t-173.5 -51q-84 0 -149 46.5t-79 119.5l60 16q9 -54 58 -89t112 -35q73 0 131 35.5t66 96.5q7 55 -25 84.5t-95 51.5l-86 31q-164 59 -149 185q9 74 79 123t159 49
q86 0 143.5 -43t75.5 -107l-61 -13q-11 45 -53.5 75t-106.5 30q-67 0 -115.5 -33t-55.5 -87q-6 -45 20.5 -73t82.5 -48z" />
    <glyph glyph-name="sacute" unicode="&#x15b;" horiz-adv-x="472" 
d="M282 622l125 145h-92l-90 -145h57zM203 301l70 -17q73 -18 108.5 -53t27.5 -98q-7 -61 -70.5 -100.5t-140.5 -39.5q-72 0 -124.5 37.5t-59.5 98.5l59 14q7 -43 42 -67.5t85 -24.5q55 0 97 24.5t46 63.5q5 37 -15 56.5t-62 31.5l-85 21q-133 36 -121 142q8 57 64.5 96.5
t131.5 39.5q135 0 175 -122l-61 -15q-26 80 -116 80q-53 0 -88 -24t-40 -60q-4 -34 14.5 -53.5t62.5 -30.5z" />
    <glyph glyph-name="Scedilla" unicode="&#x15e;" horiz-adv-x="578" 
d="M262 408l73 -27q95 -34 141.5 -80t36.5 -124q-9 -77 -80 -127t-160 -56l-43 -41q34 -3 55 -27t17 -60q-5 -47 -54 -70.5t-113 -11.5l12 27q43 -6 69.5 12.5t30.5 48.5q3 27 -17 39t-51 -6l-16 29l50 62q-73 10 -125.5 54t-65.5 109l60 16q9 -54 58 -89t112 -35
q73 0 131 35.5t66 96.5q7 55 -25 84.5t-95 51.5l-86 31q-164 59 -149 185q9 74 79 123t159 49q86 0 143.5 -43t75.5 -107l-61 -13q-11 45 -53.5 75t-106.5 30q-67 0 -115.5 -33t-55.5 -87q-6 -45 20.5 -73t82.5 -48z" />
    <glyph glyph-name="scedilla" unicode="&#x15f;" horiz-adv-x="472" 
d="M203 301l70 -17q73 -18 108.5 -53t27.5 -98q-6 -55 -60.5 -93.5t-124.5 -45.5l-44 -41q34 -3 55 -27t17 -60q-5 -47 -54 -70.5t-113 -11.5l12 27q43 -6 69.5 12.5t30.5 48.5q3 27 -17 39t-51 -6l-16 29l50 62q-60 8 -101 44t-48 89l59 14q7 -43 42 -67.5t85 -24.5
q55 0 97 24.5t46 63.5q5 37 -15 56.5t-62 31.5l-85 21q-133 36 -121 142q8 57 64.5 96.5t131.5 39.5q135 0 175 -122l-61 -15q-26 80 -116 80q-53 0 -88 -24t-40 -60q-4 -34 14.5 -53.5t62.5 -30.5z" />
    <glyph glyph-name="Scaron" unicode="&#x160;" horiz-adv-x="578" 
d="M507 950l-123 -148h-110l-86 148h54l91 -112l118 112h56zM262 408l73 -27q95 -34 141.5 -80t36.5 -124q-10 -82 -89.5 -133t-173.5 -51q-84 0 -149 46.5t-79 119.5l60 16q9 -54 58 -89t112 -35q73 0 131 35.5t66 96.5q7 55 -25 84.5t-95 51.5l-86 31q-164 59 -149 185
q9 74 79 123t159 49q86 0 143.5 -43t75.5 -107l-61 -13q-11 45 -53.5 75t-106.5 30q-67 0 -115.5 -33t-55.5 -87q-6 -45 20.5 -73t82.5 -48z" />
    <glyph glyph-name="scaron" unicode="&#x161;" horiz-adv-x="472" 
d="M432 770l-123 -148h-110l-86 148h54l91 -112l118 112h56zM203 301l70 -17q73 -18 108.5 -53t27.5 -98q-7 -61 -70.5 -100.5t-140.5 -39.5q-72 0 -124.5 37.5t-59.5 98.5l59 14q7 -43 42 -67.5t85 -24.5q55 0 97 24.5t46 63.5q5 37 -15 56.5t-62 31.5l-85 21
q-133 36 -121 142q8 57 64.5 96.5t131.5 39.5q135 0 175 -122l-61 -15q-26 80 -116 80q-53 0 -88 -24t-40 -60q-4 -34 14.5 -53.5t62.5 -30.5z" />
    <glyph glyph-name="Tcedilla" unicode="&#x162;" horiz-adv-x="608" 
d="M287 0l-51 -48q34 -3 55 -27t17 -60q-5 -47 -54 -70.5t-113 -11.5l12 27q43 -6 69.5 12.5t30.5 48.5q3 27 -17 39t-51 -6l-16 29l54 67h-3l79 639h-215l8 61h498l-8 -61h-214l-79 -639h-2z" />
    <glyph glyph-name="tcedilla" unicode="&#x163;" horiz-adv-x="328" 
d="M178 463l-45 -366q-3 -25 4.5 -35.5t28.5 -10.5q31 0 72 18l-5 -58q-36 -17 -86 -17h-8l-44 -41q34 -3 55 -27t17 -60q-5 -47 -54 -70.5t-113 -11.5l12 27q43 -6 69.5 12.5t30.5 48.5q3 27 -17 39t-51 -6l-16 29l54 67h24q-47 19 -39 90l46 372h-70l7 57h70l11 90h65
l-11 -90h109l-7 -57h-109z" />
    <glyph glyph-name="Tcaron" unicode="&#x164;" horiz-adv-x="608" 
d="M282 802l-86 148h54l91 -112l118 112h56l-123 -148h-110zM582 639h-214l-79 -639h-69l79 639h-215l8 61h498z" />
    <glyph glyph-name="tcaron" unicode="&#x165;" horiz-adv-x="404" 
d="M424 700l-125 -145h-56l89 145h92zM185 520h109l-7 -57h-109l-45 -366q-3 -25 4.5 -35.5t28.5 -10.5q31 0 72 18l-5 -58q-36 -17 -86 -17q-91 0 -80 97l46 372h-70l7 57h70l11 90h65z" />
    <glyph glyph-name="Tbar" unicode="&#x166;" horiz-adv-x="618" 
d="M368 639l-15 -119h158l-8 -57h-157l-57 -463h-69l57 463h-138l7 57h138l15 119h-215l8 61h498l-8 -61h-214z" />
    <glyph glyph-name="tbar" unicode="&#x167;" horiz-adv-x="365" 
d="M199 463l-10 -79h112v-57h-119l-28 -230q-3 -25 4.5 -35.5t28.5 -10.5q32 0 73 18l-5 -58q-36 -17 -87 -17q-91 0 -80 97l29 236h-57v57h64l10 79h-70l7 57h70l11 90h65l-11 -90h109l-7 -57h-109z" />
    <glyph glyph-name="Umacron" unicode="&#x16a;" horiz-adv-x="669" 
d="M567 880l-8 -57h-364l7 57h365zM643 700l-54 -439q-15 -124 -97.5 -196t-198.5 -72q-118 0 -184 73.5t-50 197.5l53 436h65l-54 -438q-13 -102 33.5 -156.5t138.5 -54.5q93 0 155 56t75 158l53 435h65z" />
    <glyph glyph-name="umacron" unicode="&#x16b;" horiz-adv-x="570" 
d="M478 643h-364l7 57h365zM521 520l-64 -520h-66l16 128q-16 -44 -71.5 -89.5t-131.5 -45.5q-85 0 -134.5 54.5t-36.5 166.5l38 306h66l-37 -308q-21 -161 113 -161q68 0 125 51t80 115l37 303h66z" />
    <glyph glyph-name="Ubreve" unicode="&#x16c;" horiz-adv-x="669" 
d="M495 947h49q-8 -59 -54.5 -105t-113.5 -46q-66 0 -103.5 47t-32.5 104h50q1 -39 23.5 -65t65.5 -26q44 0 74.5 26.5t41.5 64.5zM643 700l-54 -439q-15 -124 -97.5 -196t-198.5 -72q-118 0 -184 73.5t-50 197.5l53 436h65l-54 -438q-13 -102 33.5 -156.5t138.5 -54.5
q93 0 155 56t75 158l53 435h65z" />
    <glyph glyph-name="ubreve" unicode="&#x16d;" horiz-adv-x="570" 
d="M295 616q-66 0 -103.5 47t-32.5 104h50q1 -39 23.5 -65t65.5 -26q44 0 74.5 26.5t41.5 64.5h49q-8 -59 -54.5 -105t-113.5 -46zM521 520l-64 -520h-66l16 128q-16 -44 -71.5 -89.5t-131.5 -45.5q-85 0 -134.5 54.5t-36.5 166.5l38 306h66l-37 -308q-21 -161 113 -161
q68 0 125 51t80 115l37 303h66z" />
    <glyph glyph-name="Uring" unicode="&#x16e;" horiz-adv-x="669" 
d="M378 796q-37 0 -60 25.5t-19 61.5q5 33 32 57t62 24t58 -26t19 -61q-5 -33 -32 -57t-60 -24zM379 841q16 0 29.5 12t15.5 27q2 17 -8.5 28.5t-25.5 11.5q-17 0 -30 -12t-15 -28t8 -27.5t26 -11.5zM643 700l-54 -439q-15 -124 -97.5 -196t-198.5 -72q-118 0 -184 73.5
t-50 197.5l53 436h65l-54 -438q-13 -102 33.5 -156.5t138.5 -54.5q93 0 155 56t75 158l53 435h65z" />
    <glyph glyph-name="uring" unicode="&#x16f;" horiz-adv-x="570" 
d="M297 616q-37 0 -60 25.5t-19 61.5q5 33 32 57t62 24t58 -26t19 -61q-5 -33 -32 -57t-60 -24zM264 700q-2 -16 8 -27.5t26 -11.5t29.5 12t15.5 27q2 17 -8.5 28.5t-25.5 11.5q-17 0 -30 -12t-15 -28zM521 520l-64 -520h-66l16 128q-16 -44 -71.5 -89.5t-131.5 -45.5
q-85 0 -134.5 54.5t-36.5 166.5l38 306h66l-37 -308q-21 -161 113 -161q68 0 125 51t80 115l37 303h66z" />
    <glyph glyph-name="Uhungarumlaut" unicode="&#x170;" horiz-adv-x="669" 
d="M264 802l125 145h-92l-90 -145h57zM419 802l125 145h-92l-90 -145h57zM643 700l-54 -439q-15 -124 -97.5 -196t-198.5 -72q-118 0 -184 73.5t-50 197.5l53 436h65l-54 -438q-13 -102 33.5 -156.5t138.5 -54.5q93 0 155 56t75 158l53 435h65z" />
    <glyph glyph-name="uhungarumlaut" unicode="&#x171;" horiz-adv-x="570" 
d="M183 622h-57l90 145h92zM281 622l90 145h92l-125 -145h-57zM521 520l-64 -520h-66l16 128q-16 -44 -71.5 -89.5t-131.5 -45.5q-85 0 -134.5 54.5t-36.5 166.5l38 306h66l-37 -308q-21 -161 113 -161q68 0 125 51t80 115l37 303h66z" />
    <glyph glyph-name="Uogonek" unicode="&#x172;" horiz-adv-x="669" 
d="M643 700l-54 -439q-13 -108 -78.5 -177.5t-162.5 -85.5q-74 -31 -104 -57.5t-35 -60.5q-4 -31 19.5 -44.5t57.5 -3.5l14 -31q-20 -9 -47 -9.5t-52 7.5t-40.5 30t-11.5 54q9 74 120 111q-108 8 -166.5 80.5t-43.5 189.5l53 436h65l-54 -438q-13 -102 33.5 -156.5
t138.5 -54.5q93 0 155 56t75 158l53 435h65z" />
    <glyph glyph-name="uogonek" unicode="&#x173;" horiz-adv-x="570" 
d="M521 520l-64 -520h-2q-77 -32 -108.5 -58.5t-36.5 -61.5q-4 -31 19.5 -44.5t57.5 -3.5l14 -31q-20 -9 -47 -9.5t-52 7.5t-40.5 30t-11.5 54q5 41 43 71t98 46l16 128q-16 -44 -71.5 -89.5t-131.5 -45.5q-85 0 -134.5 54.5t-36.5 166.5l38 306h66l-37 -308
q-21 -161 113 -161q68 0 125 51t80 115l37 303h66z" />
    <glyph glyph-name="Wcircumflex" unicode="&#x174;" horiz-adv-x="1039" 
d="M573 911l-119 -111h-55l122 147h111l86 -147h-55zM714 0h-11l-155 563l-298 -563h-10l-157 700h70l115 -544l286 544h17l150 -544l251 544h70z" />
    <glyph glyph-name="wcircumflex" unicode="&#x175;" horiz-adv-x="878" 
d="M481 731l-119 -111h-55l122 147h111l86 -147h-55zM590 0h-10l-135 408l-235 -408h-10l-151 520h65l111 -392l229 392h10l132 -392l208 392h65z" />
    <glyph glyph-name="Ycircumflex" unicode="&#x176;" horiz-adv-x="657" 
d="M376 911l-119 -111h-55l122 147h111l86 -147h-55zM312 0h-65l42 338l-215 362h73l179 -307l258 307h73l-303 -362z" />
    <glyph glyph-name="ycircumflex" unicode="&#x177;" horiz-adv-x="554" 
d="M197 620h-55l122 147h111l86 -147h-55l-90 111zM543 520l-375 -710h-65l109 207l-158 503h65l133 -428l225 428h66z" />
    <glyph glyph-name="Ydieresis" unicode="&#x178;" horiz-adv-x="657" 
d="M295 883l-10 -77h-76l9 77h77zM526 883l-9 -77h-76l9 77h76zM312 0h-65l42 338l-215 362h73l179 -307l258 307h73l-303 -362z" />
    <glyph glyph-name="Zacute" unicode="&#x179;" horiz-adv-x="621" 
d="M377 802l125 145h-92l-90 -145h57zM543 0h-551l507 643h-402l7 57h521l-507 -642h433z" />
    <glyph glyph-name="zacute" unicode="&#x17a;" horiz-adv-x="532" 
d="M311 622l125 145h-92l-90 -145h57zM451 58l-7 -58h-452l392 463h-325l7 57h442l-392 -462h335z" />
    <glyph glyph-name="Zdotaccent" unicode="&#x17b;" horiz-adv-x="621" 
d="M399 933l-8 -67h-66l8 67h66zM543 0h-551l507 643h-402l7 57h521l-507 -642h433z" />
    <glyph glyph-name="zdotaccent" unicode="&#x17c;" horiz-adv-x="532" 
d="M333 753l-8 -67h-66l8 67h66zM451 58l-7 -58h-452l392 463h-325l7 57h442l-392 -462h335z" />
    <glyph glyph-name="Zcaron" unicode="&#x17d;" horiz-adv-x="621" 
d="M528 950l-123 -148h-110l-86 148h54l91 -112l118 112h56zM543 0h-551l507 643h-402l7 57h521l-507 -642h433z" />
    <glyph glyph-name="zcaron" unicode="&#x17e;" horiz-adv-x="532" 
d="M461 770l-123 -148h-110l-86 148h54l91 -112l118 112h56zM451 58l-7 -58h-452l392 463h-325l7 57h442l-392 -462h335z" />
    <glyph glyph-name="florin" unicode="&#x192;" horiz-adv-x="280" 
d="M307 705l-4 -57q-47 0 -72.5 -24.5t-31.5 -84.5l-2 -19h89l-7 -57h-89l-61 -495q-20 -158 -174 -158l4 57q46 0 72 24.5t33 84.5l60 487h-72l8 57h71l3 27q20 158 173 158z" />
    <glyph glyph-name="Acaron" unicode="&#x1cd;" horiz-adv-x="697" 
d="M336 802l-86 148h54l91 -112l118 112h56l-123 -148h-110zM490 222h-307l-123 -222h-71l397 700h17l224 -700h-69zM473 280l-92 301l-166 -301h258z" />
    <glyph glyph-name="acaron" unicode="&#x1ce;" 
d="M520 770l-123 -148h-110l-86 148h54l91 -112l118 112h56zM432 0l13 107q-28 -54 -83 -84t-117 -30q-95 0 -163.5 72t-53.5 198q8 63 37 115t69 83.5t84.5 48t86.5 16.5q63 0 111 -29t67 -81l13 104h65l-64 -520h-65zM253 51q73 0 137.5 56t76.5 156t-37 153t-121 53
t-138 -56.5t-78 -155.5q-12 -98 38.5 -152t121.5 -54z" />
    <glyph glyph-name="Icaron" unicode="&#x1cf;" horiz-adv-x="212" 
d="M323 950l-123 -148h-110l-86 148h54l91 -112l118 112h56zM30 0l86 700h67l-86 -700h-67z" />
    <glyph glyph-name="icaron" unicode="&#x1d0;" horiz-adv-x="215" 
d="M303 770l-123 -148h-110l-87 148h55l91 -112l118 112h56zM161 520l-64 -520h-65l64 520h65z" />
    <glyph glyph-name="Ocaron" unicode="&#x1d1;" horiz-adv-x="776" 
d="M602 950l-123 -148h-110l-86 148h54l91 -112l118 112h56zM426 707q67 0 126.5 -26.5t103 -73t64.5 -114.5t12 -146q-19 -152 -135.5 -253t-252.5 -101t-230.5 103.5t-75.5 256.5q19 152 136.5 253t251.5 101zM661 353q16 127 -54.5 209t-182.5 82q-109 0 -204.5 -84.5
t-110.5 -212.5q-16 -126 57 -208.5t180 -82.5q114 0 207 84t108 213z" />
    <glyph glyph-name="ocaron" unicode="&#x1d2;" horiz-adv-x="593" 
d="M490 770l-123 -148h-110l-86 148h54l91 -112l118 112h56zM314 526q44 0 86 -17t76 -49.5t51 -85.5t9 -117t-37.5 -116t-70.5 -83.5t-86 -48t-88 -16.5q-44 0 -85.5 17t-75.5 49.5t-51.5 85.5t-9.5 118q8 63 37.5 115t70.5 83.5t86 48t88 16.5zM472 263q12 97 -39 151
t-121 54q-72 0 -137.5 -56t-78.5 -155q-12 -98 38.5 -152t121.5 -54q72 0 137.5 56t78.5 156z" />
    <glyph glyph-name="Ucaron" unicode="&#x1d3;" horiz-adv-x="669" 
d="M552 950l-123 -148h-110l-86 148h54l91 -112l118 112h56zM643 700l-54 -439q-15 -124 -97.5 -196t-198.5 -72q-118 0 -184 73.5t-50 197.5l53 436h65l-54 -438q-13 -102 33.5 -156.5t138.5 -54.5q93 0 155 56t75 158l53 435h65z" />
    <glyph glyph-name="ucaron" unicode="&#x1d4;" horiz-adv-x="570" 
d="M238 622l-86 148h54l91 -112l118 112h56l-123 -148h-110zM521 520l-64 -520h-66l16 128q-16 -44 -71.5 -89.5t-131.5 -45.5q-85 0 -134.5 54.5t-36.5 166.5l38 306h66l-37 -308q-21 -161 113 -161q68 0 125 51t80 115l37 303h66z" />
    <glyph glyph-name="Oogonek" unicode="&#x1ea;" horiz-adv-x="794" 
d="M426 707q67 0 126.5 -26.5t103 -73t64.5 -114.5t12 -146q-17 -135 -112.5 -231.5t-218.5 -117.5h8q-78 -32 -109 -58.5t-36 -61.5q-4 -31 19.5 -44.5t57.5 -3.5l14 -31q-20 -9 -47.5 -9.5t-52 7.5t-40.5 30t-12 54q5 38 38.5 67t87.5 45q-132 7 -220.5 109t-70.5 251
q19 152 136.5 253t251.5 101zM661 353q16 127 -54.5 209t-182.5 82q-109 0 -204.5 -84.5t-110.5 -212.5q-16 -126 57 -208.5t180 -82.5q114 0 207 84t108 213z" />
    <glyph glyph-name="oogonek" unicode="&#x1eb;" horiz-adv-x="586" 
d="M314 526q44 0 86 -17t76 -49.5t51 -85.5t9 -117q-13 -109 -83 -176.5t-156 -83.5q-74 -30 -104 -56t-34 -61q-4 -31 19.5 -44.5t56.5 -3.5l14 -31q-20 -9 -47 -9.5t-52 7.5t-40.5 30t-11.5 54q9 76 124 112q-87 13 -145.5 83t-44.5 185q8 63 37.5 115t70.5 83.5t86 48
t88 16.5zM472 263q12 97 -39 151t-121 54q-72 0 -137.5 -56t-78.5 -155q-12 -98 38.5 -152t121.5 -54q72 0 137.5 56t78.5 156z" />
    <glyph glyph-name="Scommaaccent" unicode="&#x218;" horiz-adv-x="578" 
d="M262 408l73 -27q95 -34 141.5 -80t36.5 -124q-10 -82 -89.5 -133t-173.5 -51q-84 0 -149 46.5t-79 119.5l60 16q9 -54 58 -89t112 -35q73 0 131 35.5t66 96.5q7 55 -25 84.5t-95 51.5l-86 31q-164 59 -149 185q9 74 79 123t159 49q86 0 143.5 -43t75.5 -107l-61 -13
q-11 45 -53.5 75t-106.5 30q-67 0 -115.5 -33t-55.5 -87q-6 -45 20.5 -73t82.5 -48zM196 -215l94 155h-89l-61 -155h56z" />
    <glyph glyph-name="scommaaccent" unicode="&#x219;" horiz-adv-x="472" 
d="M203 301l70 -17q73 -18 108.5 -53t27.5 -98q-7 -61 -70.5 -100.5t-140.5 -39.5q-72 0 -124.5 37.5t-59.5 98.5l59 14q7 -43 42 -67.5t85 -24.5q55 0 97 24.5t46 63.5q5 37 -15 56.5t-62 31.5l-85 21q-133 36 -121 142q8 57 64.5 96.5t131.5 39.5q135 0 175 -122l-61 -15
q-26 80 -116 80q-53 0 -88 -24t-40 -60q-4 -34 14.5 -53.5t62.5 -30.5zM146 -215l94 155h-89l-61 -155h56z" />
    <glyph glyph-name="uni021A" unicode="&#x21a;" horiz-adv-x="608" 
d="M582 639h-214l-79 -639h-69l79 639h-215l8 61h498zM207 -61h89l-94 -155h-56z" />
    <glyph glyph-name="uni021B" unicode="&#x21b;" horiz-adv-x="328" 
d="M178 463l-45 -366q-3 -25 4.5 -35.5t28.5 -10.5q31 0 72 18l-5 -58q-36 -17 -86 -17q-91 0 -80 97l46 372h-70l7 57h70l11 90h65l-11 -90h109l-7 -57h-109zM66 -60h89l-94 -155h-56z" />
    <glyph glyph-name="dotlessj" unicode="&#x237;" horiz-adv-x="237" 
d="M-119 -179l8 61q50 -26 85 -26q58 0 68 89l71 575h65l-72 -583q-17 -142 -136 -142q-49 0 -89 26z" />
    <glyph glyph-name="circumflex" unicode="&#x2c6;" horiz-adv-x="319" 
d="M207 731l-119 -111h-55l122 147h111l86 -147h-55z" />
    <glyph glyph-name="caron" unicode="&#x2c7;" horiz-adv-x="319" 
d="M371 770l-123 -148h-110l-86 148h54l91 -112l118 112h56z" />
    <glyph glyph-name="breve" unicode="&#x2d8;" horiz-adv-x="304" 
d="M306 767h49q-8 -59 -54.5 -105t-113.5 -46q-66 0 -103.5 47t-32.5 104h50q1 -39 23.5 -65t65.5 -26q44 0 74.5 26.5t41.5 64.5z" />
    <glyph glyph-name="dotaccent" unicode="&#x2d9;" horiz-adv-x="81" 
d="M123 753l-8 -67h-66l8 67h66z" />
    <glyph glyph-name="ring" unicode="&#x2da;" horiz-adv-x="171" 
d="M122 616q-37 0 -60 25.5t-19 61.5q5 33 32 57t62 24t58 -26t19 -61q-5 -33 -32 -57t-60 -24zM123 661q16 0 29.5 12t15.5 27q2 17 -8.5 28.5t-25.5 11.5q-17 0 -30 -12t-15 -28t8 -27.5t26 -11.5z" />
    <glyph glyph-name="ogonek" unicode="&#x2db;" horiz-adv-x="190" 
d="M80 -168l14 -31q-20 -9 -47 -9.5t-52 7.5t-41 30t-12 54q5 41 43.5 71t98.5 46h64q-77 -32 -108.5 -58.5t-36.5 -61.5q-4 -31 19.5 -44.5t57.5 -3.5z" />
    <glyph glyph-name="tilde" unicode="&#x2dc;" horiz-adv-x="343" 
d="M352 702l34 -3q-6 -45 -35 -70t-68 -25q-33 0 -58 18t-47 36.5t-47 18.5q-28 0 -45.5 -17t-18.5 -34l-33 3q6 44 36.5 70t67.5 26q34 0 60.5 -17t47.5 -34t42 -17q27 0 44.5 14t19.5 31z" />
    <glyph glyph-name="hungarumlaut" unicode="&#x2dd;" horiz-adv-x="319" 
d="M47 622l125 145h-92l-90 -145h57zM202 622l125 145h-92l-90 -145h57z" />
    <glyph glyph-name="uni0326" unicode="&#x326;" horiz-adv-x="0" 
d="M4 -215l94 155h-89l-61 -155h56z" />
    <glyph glyph-name="Delta" unicode="&#x394;" horiz-adv-x="733" 
d="M7 0l392 700h21l220 -700h-633zM398 588l-295 -530h457z" />
    <glyph glyph-name="Omega" unicode="&#x3a9;" horiz-adv-x="779" 
d="M737 354q-22 -178 -210 -292h149l-7 -62h-200l12 102l46 33q130 92 145 225q15 123 -59.5 204.5t-183.5 81.5q-111 0 -208 -83.5t-112 -208.5q-16 -135 87 -221l41 -31l-13 -102h-199l7 62h151l1 2q-162 117 -140 296q18 147 135 247t252 100q65 0 125 -26.5t103.5 -72.5
t65 -112.5t12.5 -141.5z" />
    <glyph glyph-name="mu" unicode="&#x3bc;" horiz-adv-x="627" 
d="M569 520l-64 -520h-67l16 128q-16 -44 -71.5 -89.5t-131.5 -45.5q-72 0 -119 38l-27 -221h-65l40 323q-5 42 0 81l38 306h75l-47 -375q14 -94 114 -94q68 0 125 51t80 115l37 303h67z" />
    <glyph glyph-name="pi" unicode="&#x3c0;" horiz-adv-x="658" 
d="M517 463l-44 -358q-4 -33 3.5 -43t29.5 -10q31 0 71 19l-5 -60q-36 -17 -76 -17q-45 0 -70.5 24.5t-18.5 77.5l45 367h-223l-57 -463h-65l57 463h-100l7 57h552l-7 -57h-99z" />
    <glyph glyph-name="uni0401" unicode="&#x401;" horiz-adv-x="572" 
d="M266 883l-10 -77h-76l9 77h77zM497 883l-9 -77h-76l9 77h76zM23 0l86 700h68l-86 -700h-68zM546 700l-8 -59h-368l7 59h369zM407 382l-8 -60h-268l7 60h269zM477 59l-7 -59h-379l8 59h378z" />
    <glyph glyph-name="uni0404" unicode="&#x404;" horiz-adv-x="648" 
d="M428 707q127 0 213 -88l-46 -46q-62 71 -169 71q-100 0 -192 -75.5t-118 -189.5h206l-8 -57h-206q-4 -114 68.5 -190t172.5 -76q105 0 189 74l38 -51q-105 -86 -230 -86q-65 0 -124.5 27t-103 73t-65.5 114.5t-13 145.5q13 101 74 183.5t144.5 126.5t169.5 44z" />
    <glyph glyph-name="uni0407" unicode="&#x407;" horiz-adv-x="212" 
d="M78 883l-10 -77h-76l9 77h77zM309 883l-9 -77h-76l9 77h76zM30 0l86 700h67l-86 -700h-67z" />
    <glyph glyph-name="uni0410" unicode="&#x410;" horiz-adv-x="697" 
d="M490 222h-307l-123 -222h-71l397 700h17l224 -700h-69zM473 280l-92 301l-166 -301h258z" />
    <glyph glyph-name="uni0411" unicode="&#x411;" horiz-adv-x="636" 
d="M176 643l-79 -643h-66l86 700h421l-8 -57h-354zM150 427h150q117 0 179 -58.5t49 -159.5q-11 -93 -86 -151t-191 -58h-154l8 58h151q89 0 144 41.5t64 115.5q10 77 -33 115.5t-134 38.5h-154z" />
    <glyph glyph-name="uni0412" unicode="&#x412;" horiz-adv-x="601" 
d="M399 382q71 -22 102.5 -70t23.5 -113q-12 -97 -86 -148t-200 -51h-147l8 58h143q199 0 218 147q8 67 -38 106.5t-141 39.5h-147l-43 -351h-66l86 700h66l-42 -342l7 50h143q156 0 171 121q7 53 -28 83t-112 30h-146l7 58h144q104 0 157 -48t43 -129q-13 -108 -123 -141z
" />
    <glyph glyph-name="uni0413" unicode="&#x413;" horiz-adv-x="572" 
d="M538 643h-363l-79 -643h-65l86 700h428z" />
    <glyph glyph-name="uni0414" unicode="&#x414;" horiz-adv-x="822" 
d="M727 58l-15 -127h-65l8 69h-574l-8 -69h-65l15 127h56q40 62 61 171t48 333l17 138h518l-79 -642h83zM579 58l72 585h-388l-10 -84q-16 -130 -22.5 -177t-20 -126.5t-28.5 -122t-36 -75.5h433z" />
    <glyph glyph-name="uni0415" unicode="&#x415;" horiz-adv-x="572" 
d="M23 0l86 700h68l-86 -700h-68zM546 700l-8 -59h-368l7 59h369zM407 382l-8 -60h-268l7 60h269zM477 59l-7 -59h-379l8 59h378z" />
    <glyph glyph-name="uni0416" unicode="&#x416;" horiz-adv-x="1180" 
d="M801 360l293 -360h-83l-257 316l-151 -143l4 38l-26 -211h-67l30 244l-9 -71l-116 143l-335 -316h-83l382 360l-275 340h83l239 -296l116 -144l54 440h67l-54 -439l463 439h83z" />
    <glyph glyph-name="uni0417" unicode="&#x417;" horiz-adv-x="580" 
d="M366 375q71 -11 115 -59t35 -121q-11 -90 -89.5 -147.5t-181.5 -57.5q-107 0 -170.5 62t-52.5 151l69 -2q-9 -67 37 -110t118 -43q75 0 134.5 41t68.5 112q8 67 -43.5 104t-146.5 39l4 54q89 5 137 42t55 92q7 51 -31.5 84.5t-98.5 33.5q-66 0 -116.5 -40t-59.5 -112
l-68 4q11 93 81 149t165 56q89 0 147 -54t49 -127q-7 -53 -47 -93.5t-110 -57.5z" />
    <glyph glyph-name="uni0418" unicode="&#x418;" horiz-adv-x="704" 
d="M186 700l-67 -543l545 543h9l-86 -700h-67l66 541l-544 -541h-10l86 700h68z" />
    <glyph glyph-name="uni0419" unicode="&#x419;" horiz-adv-x="704" 
d="M516 947h50q-8 -59 -54.5 -105t-113.5 -46t-104.5 47t-31.5 104h50q1 -39 23.5 -65t65.5 -26q44 0 74.5 26.5t40.5 64.5zM186 700l-67 -543l545 543h9l-86 -700h-67l66 541l-544 -541h-10l86 700h68z" />
    <glyph glyph-name="uni041A" unicode="&#x41a;" horiz-adv-x="698" 
d="M318 360l293 -360h-83l-257 316l-151 -143l4 38l-26 -211h-67l86 700h67l-54 -439l463 439h83z" />
    <glyph glyph-name="uni041B" unicode="&#x41b;" horiz-adv-x="727" 
d="M704 700l-86 -700h-65l79 643h-393l-69 -555q-11 -94 -98 -94q-49 0 -84 19l4 56q34 -18 64 -18q46 0 50 48l75 601h523z" />
    <glyph glyph-name="uni041C" unicode="&#x41c;" horiz-adv-x="893" 
d="M776 0h-68l62 504l-362 -501h-8l-239 501l-62 -504h-68l86 700h15l284 -589l431 589h15z" />
    <glyph glyph-name="uni041D" unicode="&#x41d;" horiz-adv-x="671" 
d="M183 700l-86 -700h-66l86 700h66zM640 700l-86 -700h-67l39 314h-390l7 58h390l40 328h67z" />
    <glyph glyph-name="uni041E" unicode="&#x41e;" horiz-adv-x="776" 
d="M426 707q67 0 126.5 -26.5t103 -73t64.5 -114.5t12 -146q-19 -152 -135.5 -253t-252.5 -101t-230.5 103.5t-75.5 256.5q19 152 136.5 253t251.5 101zM661 353q16 127 -54.5 209t-182.5 82q-109 0 -204.5 -84.5t-110.5 -212.5q-16 -126 57 -208.5t180 -82.5q114 0 207 84
t108 213z" />
    <glyph glyph-name="uni041F" unicode="&#x41f;" horiz-adv-x="671" 
d="M640 700l-86 -700h-65l79 643h-393l-79 -643h-65l86 700h523z" />
    <glyph glyph-name="uni0420" unicode="&#x420;" horiz-adv-x="603" 
d="M111 700h217q116 0 177.5 -59.5t50.5 -155.5q-12 -98 -86 -154.5t-191 -56.5h-153l-34 -274h-67zM492 491q9 72 -35 111.5t-133 39.5h-153l-38 -310h150q91 0 145 40t64 119z" />
    <glyph glyph-name="uni0421" unicode="&#x421;" horiz-adv-x="657" 
d="M340 56q105 0 189 74l39 -51q-105 -86 -231 -86q-87 0 -161 45t-115.5 129t-28.5 186q19 152 136.5 253t251.5 101q126 0 212 -88l-45 -46q-63 71 -169 71q-108 0 -204.5 -86t-111.5 -211q-15 -123 58.5 -207t179.5 -84z" />
    <glyph glyph-name="uni0422" unicode="&#x422;" horiz-adv-x="608" 
d="M582 639h-214l-79 -639h-69l79 639h-215l8 61h498z" />
    <glyph glyph-name="uni0423" unicode="&#x423;" horiz-adv-x="684" 
d="M677 700l-471 -700h-68l156 232l-201 468h68l174 -407l273 407h69z" />
    <glyph glyph-name="uni0424" unicode="&#x424;" horiz-adv-x="884" 
d="M505 635h7q158 0 245 -80.5t72 -207.5q-15 -124 -120.5 -203t-263.5 -79h-10l-8 -65h-65l8 65h-5q-158 0 -244.5 81t-71.5 207q15 124 120 203t263 79h8l8 65h65zM377 123l56 455h-5q-139 0 -220.5 -64t-93.5 -167q-13 -101 52 -162.5t204 -61.5h7zM764 353
q13 101 -52.5 163t-203.5 62h-10l-56 -455h8q139 0 220.5 63.5t93.5 166.5z" />
    <glyph glyph-name="uni0425" unicode="&#x425;" horiz-adv-x="707" 
d="M392 361l213 -361h-75l-182 308l-257 -308h-75l301 361l-200 339h75l169 -286l239 286h76z" />
    <glyph glyph-name="uni0426" unicode="&#x426;" horiz-adv-x="750" 
d="M639 -69h-64l8 69h-552l86 700h65l-79 -642h393l79 642h65l-79 -642h94z" />
    <glyph glyph-name="uni0427" unicode="&#x427;" horiz-adv-x="615" 
d="M589 700l-86 -700h-65l43 353q-19 -35 -73 -69t-128 -34q-94 0 -152.5 48t-46.5 150l31 252h65l-32 -255q-8 -67 31 -102.5t110 -35.5q69 0 126 40.5t80 88.5l32 264h65z" />
    <glyph glyph-name="uni0428" unicode="&#x428;" horiz-adv-x="1129" 
d="M1012 0h-981l86 700h65l-79 -642h393l79 642h65l-79 -642h393l79 642h65z" />
    <glyph glyph-name="uni0429" unicode="&#x429;" horiz-adv-x="1207" 
d="M1096 -69h-64l8 69h-1009l86 700h65l-79 -642h393l79 642h65l-79 -642h393l79 642h65l-79 -642h93z" />
    <glyph glyph-name="uni042A" unicode="&#x42a;" horiz-adv-x="763" 
d="M234 427h151q117 0 178.5 -58.5t49.5 -159.5q-12 -94 -87 -151.5t-191 -57.5h-220l79 643h-138l7 57h205zM548 215q10 77 -33 115.5t-134 38.5h-154l-38 -311h151q89 0 144 41.5t64 115.5z" />
    <glyph glyph-name="uni042B" unicode="&#x42b;" horiz-adv-x="809" 
d="M97 0h-66l86 700h66zM624 0l86 700h67l-86 -700h-67zM97 0l8 58h151q89 0 144 41.5t64 115.5q10 77 -33 115.5t-134 38.5h-154l7 58h150q117 0 179 -58.5t49 -159.5q-11 -93 -86 -151t-191 -58h-154z" />
    <glyph glyph-name="uni042C" unicode="&#x42c;" horiz-adv-x="616" 
d="M146 427h151q117 0 178.5 -58.5t49.5 -159.5q-12 -94 -87 -151.5t-191 -57.5h-220l86 700h67zM460 215q10 77 -33 115.5t-134 38.5h-154l-38 -311h151q89 0 144 41.5t64 115.5z" />
    <glyph glyph-name="uni042D" unicode="&#x42d;" horiz-adv-x="648" 
d="M302 707q65 0 124.5 -26.5t103.5 -73t65.5 -115t12.5 -145.5q-19 -151 -136.5 -252.5t-251.5 -101.5q-127 0 -213 88l46 46q63 -71 169 -71q101 0 193 76t118 190h-207l8 57h206q4 114 -68.5 189.5t-172.5 75.5q-107 0 -188 -73l-39 50q105 86 230 86z" />
    <glyph glyph-name="uni042E" unicode="&#x42e;" horiz-adv-x="998" 
d="M622 707q67 0 126.5 -26.5t103 -73t64.5 -114.5t12 -146q-19 -152 -135.5 -253t-252.5 -101q-128 0 -221 93.5t-88 235.5h-94l-40 -322h-67l86 700h67l-39 -321h94q28 142 142 235t242 93zM857 353q16 127 -54.5 209t-182.5 82q-109 0 -204.5 -84.5t-110.5 -212.5
q-16 -126 57 -208.5t180 -82.5q114 0 207 84t108 213z" />
    <glyph glyph-name="uni042F" unicode="&#x42f;" horiz-adv-x="630" 
d="M517 0h-66l33 274h-128l-253 -274h-84l266 277q-95 12 -142.5 68.5t-36.5 145.5q11 94 86 151.5t191 57.5h220zM529 642h-151q-89 0 -144 -41.5t-64 -115.5q-10 -77 33 -115t134 -38h154z" />
    <glyph glyph-name="uni0430" unicode="&#x430;" 
d="M432 0l13 107q-28 -54 -83 -84t-117 -30q-95 0 -163.5 72t-53.5 198q8 63 37 115t69 83.5t84.5 48t86.5 16.5q63 0 111 -29t67 -81l13 104h65l-64 -520h-65zM253 51q73 0 137.5 56t76.5 156t-37 153t-121 53t-138 -56.5t-78 -155.5q-12 -98 38.5 -152t121.5 -54z" />
    <glyph glyph-name="uni0431" unicode="&#x431;" horiz-adv-x="580" 
d="M323 526q94 0 163 -72t54 -197q-10 -84 -57 -146.5t-104.5 -90t-115.5 -27.5q-64 0 -113.5 31.5t-64.5 85.5l-13 -110h-65l64 522q11 92 62 135t154 43h100q49 0 81 21l61 -2q-28 -41 -60.5 -58.5t-90.5 -17.5h-96q-67 0 -102.5 -28.5t-43.5 -95.5l-13 -100
q32 51 85.5 79t114.5 28zM259 51q72 0 137.5 56t78.5 156q6 50 -6 91t-36.5 65t-55 37t-62.5 13q-73 0 -137 -55t-77 -157q-12 -98 37.5 -152t120.5 -54z" />
    <glyph glyph-name="uni0432" unicode="&#x432;" horiz-adv-x="584" 
d="M398 285q52 -16 74.5 -53t16.5 -85q-17 -147 -230 -147h-169l7 56h166q150 0 163 97q5 44 -23.5 72.5t-112.5 28.5h-169l-31 -254h-65l64 520h231q84 0 125.5 -36t34.5 -98q-10 -79 -82 -101zM128 312h167q112 0 121 80q9 72 -100 72h-169z" />
    <glyph glyph-name="uni0433" unicode="&#x433;" horiz-adv-x="539" 
d="M483 463h-330l-57 -463h-65l64 520h395z" />
    <glyph glyph-name="uni0434" unicode="&#x434;" horiz-adv-x="676" 
d="M536 58h45l-15 -125h-65l8 67h-428l-8 -67h-65l15 125h36q34 42 51 118.5t38 245.5l12 98h433zM471 58l50 405h-303l-6 -44q-15 -123 -22 -171t-23 -104.5t-40 -85.5h344z" />
    <glyph glyph-name="uni0435" unicode="&#x435;" horiz-adv-x="595" 
d="M533 232h-433q-5 -86 44.5 -133.5t116.5 -47.5q92 0 157 65l51 -34q-85 -89 -210 -89q-44 0 -85.5 17t-75.5 49.5t-51.5 85.5t-9.5 118q8 63 37.5 115t70.5 83.5t86 48t88 16.5q95 0 165 -72t55 -197q0 -2 -6 -25zM107 288l370 3q5 57 -19.5 99t-61.5 60t-79 18
q-66 0 -129 -47.5t-81 -132.5z" />
    <glyph glyph-name="uni0436" unicode="&#x436;" horiz-adv-x="908" 
d="M530 275l168 -225l-103 -50l-137 129l-33 -83l-9 -46l-3 17l-7 -17l2 45l-14 83l-167 -128l-91 50l223 225l-143 192l106 53l113 -107l26 62l9 45l3 -17l7 17l-2 -46l9 -62l141 108l93 -53z" />
    <glyph glyph-name="uni0437" unicode="&#x437;" horiz-adv-x="515" 
d="M316 278q61 -8 98.5 -41t30.5 -91q-9 -67 -78 -110t-155 -43q-90 0 -144.5 49.5t-45.5 123.5l65 -2q-6 -49 32 -81t95 -32q61 0 111 27.5t55 73.5q6 45 -37.5 71t-118.5 25l3 54q139 3 151 92q4 31 -27 52.5t-81 21.5t-91 -27t-45 -64l-64 3q7 60 66 102.5t135 42.5
t127 -41.5t44 -95.5q-10 -84 -126 -110z" />
    <glyph glyph-name="uni0438" unicode="&#x438;" horiz-adv-x="593" 
d="M476 0h-65l47 381l-418 -381h-9l64 520h65l-47 -381l418 381h9z" />
    <glyph glyph-name="uni0439" unicode="&#x439;" horiz-adv-x="593" 
d="M435 767h49q-8 -59 -54.5 -105t-113.5 -46q-66 0 -103.5 47t-32.5 104h50q1 -39 23.5 -65t65.5 -26q44 0 74.5 26.5t41.5 64.5zM476 0h-65l47 381l-418 -381h-9l64 520h65l-47 -381l418 381h9z" />
    <glyph glyph-name="uni043A" unicode="&#x43a;" horiz-adv-x="560" 
d="M228 281l245 -281h-85l-206 239l-64 -57l-22 -182h-65l64 520h65l-31 -253l283 253h83z" />
    <glyph glyph-name="uni043B" unicode="&#x43b;" horiz-adv-x="662" 
d="M609 520l-64 -520h-65l57 463h-320l-47 -375q-11 -94 -98 -94q-49 0 -84 19l4 56q34 -18 64 -18q46 0 50 48l53 421h450z" />
    <glyph glyph-name="uni043C" unicode="&#x43c;" horiz-adv-x="732" 
d="M607 0h-65l40 333l-253 -333h-11l-173 333l-40 -333h-65l64 520h12l219 -418l323 418h13z" />
    <glyph glyph-name="uni043D" unicode="&#x43d;" horiz-adv-x="593" 
d="M540 520l-64 -520h-65l29 232h-315l-29 -232h-65l64 520h65l-28 -231h315l28 231h65z" />
    <glyph glyph-name="uni043E" unicode="&#x43e;" horiz-adv-x="593" 
d="M314 526q44 0 86 -17t76 -49.5t51 -85.5t9 -117t-37.5 -116t-70.5 -83.5t-86 -48t-88 -16.5q-44 0 -85.5 17t-75.5 49.5t-51.5 85.5t-9.5 118q8 63 37.5 115t70.5 83.5t86 48t88 16.5zM472 263q12 97 -39 151t-121 54q-72 0 -137.5 -56t-78.5 -155q-12 -98 38.5 -152
t121.5 -54q72 0 137.5 56t78.5 156z" />
    <glyph glyph-name="uni043F" unicode="&#x43f;" horiz-adv-x="581" 
d="M528 520l-64 -520h-65l57 463h-303l-57 -463h-65l64 520h433z" />
    <glyph glyph-name="uni0440" unicode="&#x440;" horiz-adv-x="618" 
d="M357 526q94 0 162.5 -72t53.5 -197q-10 -84 -57 -146.5t-104.5 -90t-115.5 -27.5q-63 0 -112.5 31.5t-65.5 85.5l-36 -300h-65l87 710h65l-13 -102q32 52 85.5 80t115.5 28zM292 51q73 0 138.5 56t78.5 156q12 97 -39 151.5t-121 54.5q-73 0 -138 -55t-77 -157
q-12 -98 38 -152t120 -54z" />
    <glyph glyph-name="uni0441" unicode="&#x441;" horiz-adv-x="546" 
d="M255 51q46 0 91 22.5t75 65.5l57 -24q-39 -59 -101 -90.5t-124 -31.5q-94 0 -165 72t-56 198q15 123 102 193t180 70q63 0 117.5 -32t81.5 -92l-61 -20q-19 43 -57 64.5t-83 21.5q-72 0 -137.5 -56t-78.5 -155q-12 -98 38.5 -152t120.5 -54z" />
    <glyph glyph-name="uni0442" unicode="&#x442;" horiz-adv-x="513" 
d="M467 463h-164l-57 -463h-65l57 463h-164l7 57h393z" />
    <glyph glyph-name="uni0443" unicode="&#x443;" horiz-adv-x="554" 
d="M543 520l-375 -710h-65l109 207l-158 503h65l133 -428l225 428h66z" />
    <glyph glyph-name="uni0444" unicode="&#x444;" horiz-adv-x="1007" 
d="M745 526q94 0 163 -72t54 -197q-10 -84 -57 -146.5t-104.5 -90t-115.5 -27.5q-64 0 -113 31t-65 85l-13 -109l-23 -190h-65l23 190l12 102q-32 -52 -85.5 -80t-114.5 -28q-94 0 -163 72t-54 197q8 64 37 116t69 83.5t84.5 48t87.5 16.5q63 0 112.5 -31t64.5 -85l37 299
h65l-23 -190l-7 -57l-6 -45q32 52 85 80t115 28zM249 52q65 0 125.5 44.5t82.5 129.5l9 74q-1 81 -49.5 125.5t-111.5 44.5q-72 0 -137.5 -56.5t-78.5 -156.5q-12 -97 38.5 -151t121.5 -54zM897 263q6 50 -6 91t-36.5 65t-55 37t-62.5 13q-65 0 -125 -45t-82 -129l-9 -75
q1 -81 49 -125t111 -44q72 0 137.5 56t78.5 156z" />
    <glyph glyph-name="uni0445" unicode="&#x445;" horiz-adv-x="542" 
d="M297 266l164 -266h-71l-135 218l-189 -218h-72l231 267l-157 253h72l127 -205l177 205h73z" />
    <glyph glyph-name="uni0446" unicode="&#x446;" horiz-adv-x="626" 
d="M515 -69h-64l8 69h-428l64 520h65l-57 -462h303l57 462h65l-57 -462h60z" />
    <glyph glyph-name="uni0447" unicode="&#x447;" horiz-adv-x="565" 
d="M521 520l-64 -520h-65l34 276q-15 -32 -65.5 -68.5t-116.5 -36.5q-84 0 -135 45t-39 143l20 161h65l-20 -165q-17 -126 111 -126q59 0 113.5 41.5t76.5 88.5l-9 -71l29 232h65z" />
    <glyph glyph-name="uni0448" unicode="&#x448;" horiz-adv-x="801" 
d="M684 0h-653l64 520h65l-57 -462h229l57 462h65l-57 -462h229l57 462h65z" />
    <glyph glyph-name="uni0449" unicode="&#x449;" horiz-adv-x="846" 
d="M750 58l-15 -127h-64l8 69h-691l64 520h65l-57 -462h229l57 462h65l-57 -462h229l57 462h65l-57 -462h102z" />
    <glyph glyph-name="uni044A" unicode="&#x44a;" horiz-adv-x="675" 
d="M175 306h174q100 0 148.5 -43t39.5 -117q-8 -69 -65 -107.5t-158 -38.5h-242l57 463h-55l7 57h120l-29 -234zM473 152q5 45 -22 71t-105 26h-178l-24 -191h176q80 0 113.5 24t39.5 70z" />
    <glyph glyph-name="uni044B" unicode="&#x44b;" horiz-adv-x="736" 
d="M91 306h174q100 0 148.5 -43t39.5 -117q-8 -69 -65 -107.5t-158 -38.5h-242l64 520h65l-29 -234zM684 520l-64 -520h-65l64 520h65zM389 152q5 45 -22 71t-105 26h-178l-24 -191h176q80 0 113.5 24t39.5 70z" />
    <glyph glyph-name="uni044C" unicode="&#x44c;" horiz-adv-x="591" 
d="M134 306h174q100 0 148.5 -43t39.5 -117q-8 -69 -65 -107.5t-158 -38.5h-242l64 520h65l-29 -234zM432 152q5 45 -22 71t-105 26h-178l-24 -191h176q80 0 113.5 24t39.5 70z" />
    <glyph glyph-name="uni044D" unicode="&#x44d;" horiz-adv-x="535" 
d="M258 526q43 0 84.5 -17t76 -49.5t51.5 -85.5t9 -117q-10 -84 -58.5 -146.5t-107 -90t-115.5 -27.5q-63 0 -118.5 32.5t-81.5 91.5l60 20q19 -42 58 -64t84 -22q64 0 126 47t83 132h-149l7 58h150q2 86 -47 133t-114 47q-46 0 -91 -22.5t-75 -65.5l-58 25q40 59 102 90
t124 31z" />
    <glyph glyph-name="uni044E" unicode="&#x44e;" horiz-adv-x="797" 
d="M514 526q44 0 86 -17t76 -49.5t51 -85.5t9 -117t-37.5 -116t-70.5 -83.5t-86 -48t-88 -16.5q-41 0 -80.5 15t-72.5 43.5t-52.5 75t-18.5 103.5h-107l-28 -230h-65l64 520h65l-29 -232h106q15 76 62.5 132t104 81t111.5 25zM672 263q12 97 -39 151t-121 54
q-72 0 -137.5 -56t-78.5 -155q-12 -98 38.5 -152t121.5 -54q72 0 137.5 56t78.5 156z" />
    <glyph glyph-name="uni044F" unicode="&#x44f;" horiz-adv-x="596" 
d="M547 520l-64 -520h-65l25 203h-134l-215 -203h-82l223 205q-79 9 -117 53.5t-30 110.5q8 69 65.5 110t153.5 41h175l-8 -57h-173q-136 0 -149 -100q-4 -43 23 -73t98 -30h177l32 260h65z" />
    <glyph glyph-name="uni0451" unicode="&#x451;" horiz-adv-x="595" 
d="M211 703l-10 -77h-76l9 77h77zM442 703l-9 -77h-76l9 77h76zM533 232h-433q-5 -86 44.5 -133.5t116.5 -47.5q92 0 157 65l51 -34q-85 -89 -210 -89q-44 0 -85.5 17t-75.5 49.5t-51.5 85.5t-9.5 118q8 63 37.5 115t70.5 83.5t86 48t88 16.5q95 0 165 -72t55 -197
q0 -2 -6 -25zM107 288l370 3q5 57 -19.5 99t-61.5 60t-79 18q-66 0 -129 -47.5t-81 -132.5z" />
    <glyph glyph-name="uni0454" unicode="&#x454;" horiz-adv-x="528" 
d="M260 51q46 0 91 22.5t75 65.5l57 -24q-39 -59 -101 -90.5t-124 -31.5q-94 0 -165 72t-56 198q15 123 102 193t180 70q63 0 117.5 -32t81.5 -92l-61 -20q-19 43 -57 64.5t-83 21.5q-66 0 -128 -47.5t-82 -132.5h160l-7 -58h-161q-2 -85 47 -132t114 -47z" />
    <glyph glyph-name="uni0457" unicode="&#x457;" horiz-adv-x="215" 
d="M63 703l-9 -77h-77l10 77h76zM295 703l-9 -77h-77l10 77h76zM157 520l-64 -520h-65l64 520h65z" />
    <glyph glyph-name="uni0490" unicode="&#x490;" horiz-adv-x="573" 
d="M509 747l-14 -104h-363l-79 -643h-65l86 700h368l6 47h61z" />
    <glyph glyph-name="uni0491" unicode="&#x491;" horiz-adv-x="551" 
d="M485 475h-44l-1 -12h-330l-57 -463h-65l64 520h378l6 46h61z" />
    <glyph glyph-name="Wgrave" unicode="&#x1e80;" horiz-adv-x="1039" 
d="M538 947h-93l89 -145h57zM714 0h-11l-155 563l-298 -563h-10l-157 700h70l115 -544l286 544h17l150 -544l251 544h70z" />
    <glyph glyph-name="wgrave" unicode="&#x1e81;" horiz-adv-x="878" 
d="M445 767h-93l89 -145h57zM590 0h-10l-135 408l-235 -408h-10l-151 520h65l111 -392l229 392h10l132 -392l208 392h65z" />
    <glyph glyph-name="Wacute" unicode="&#x1e82;" horiz-adv-x="1039" 
d="M587 802l125 145h-92l-90 -145h57zM714 0h-11l-155 563l-298 -563h-10l-157 700h70l115 -544l286 544h17l150 -544l251 544h70z" />
    <glyph glyph-name="wacute" unicode="&#x1e83;" horiz-adv-x="878" 
d="M494 622l125 145h-92l-90 -145h57zM590 0h-10l-135 408l-235 -408h-10l-151 520h65l111 -392l229 392h10l132 -392l208 392h65z" />
    <glyph glyph-name="Wdieresis" unicode="&#x1e84;" horiz-adv-x="1039" 
d="M492 883l-10 -77h-76l9 77h77zM723 883l-9 -77h-76l9 77h76zM714 0h-11l-155 563l-298 -563h-10l-157 700h70l115 -544l286 544h17l150 -544l251 544h70z" />
    <glyph glyph-name="wdieresis" unicode="&#x1e85;" horiz-adv-x="878" 
d="M400 703l-10 -77h-76l9 77h77zM631 703l-9 -77h-76l9 77h76zM590 0h-10l-135 408l-235 -408h-10l-151 520h65l111 -392l229 392h10l132 -392l208 392h65z" />
    <glyph glyph-name="Ygrave" unicode="&#x1ef2;" horiz-adv-x="657" 
d="M340 947h-93l89 -145h57zM312 0h-65l42 338l-215 362h73l179 -307l258 307h73l-303 -362z" />
    <glyph glyph-name="ygrave" unicode="&#x1ef3;" horiz-adv-x="554" 
d="M276 622l-89 145h93l53 -145h-57zM543 520l-375 -710h-65l109 207l-158 503h65l133 -428l225 428h66z" />
    <glyph glyph-name="endash" unicode="&#x2013;" horiz-adv-x="600" 
d="M550 307l-7 -52h-510l7 52h510z" />
    <glyph glyph-name="emdash" unicode="&#x2014;" horiz-adv-x="660" 
d="M610 307l-7 -52h-570l7 52h570z" />
    <glyph glyph-name="quoteleft" unicode="&#x2018;" horiz-adv-x="230" 
d="M129 700l-94 -155h89l61 155h-56z" />
    <glyph glyph-name="quoteright" unicode="&#x2019;" horiz-adv-x="211" 
d="M88 545l93 155h-88l-62 -155h57z" />
    <glyph glyph-name="quotesinglbase" unicode="&#x201a;" horiz-adv-x="245" 
d="M107 -135l94 155h-89l-61 -155h56z" />
    <glyph glyph-name="quotedblleft" unicode="&#x201c;" horiz-adv-x="382" 
d="M129 700l-94 -155h89l61 155h-56zM281 700l-94 -155h89l61 155h-56z" />
    <glyph glyph-name="quotedblright" unicode="&#x201d;" horiz-adv-x="366" 
d="M87 545l94 155h-89l-61 -155h56zM238 545l94 155h-89l-61 -155h56z" />
    <glyph glyph-name="quotedblbase" unicode="&#x201e;" horiz-adv-x="385" 
d="M107 -135l94 155h-89l-61 -155h56zM247 -135l94 155h-89l-61 -155h56z" />
    <glyph glyph-name="dagger" unicode="&#x2020;" horiz-adv-x="304" 
d="M279 508h-83l-36 -196h-24l12 196h-83l6 57h80l8 135h73l-25 -135h78z" />
    <glyph glyph-name="daggerdbl" unicode="&#x2021;" horiz-adv-x="294" 
d="M280 565l-6 -57h-88l-28 -134h-15l5 134h-88l6 57h83l5 135h73l-29 -135h82zM148 193h87l-7 -58h-82l-5 -135h-73l29 135h-83l7 58h88l28 133h15z" />
    <glyph glyph-name="bullet" unicode="&#x2022;" horiz-adv-x="204" 
d="M158 343l-14 -114h-114l14 114h114z" />
    <glyph glyph-name="ellipsis" unicode="&#x2026;" horiz-adv-x="668" 
d="M47 79l-10 -79h-78l10 79h78zM294 79l-10 -79h-78l10 79h78zM541 79l-10 -79h-78l10 79h78z" />
    <glyph glyph-name="perthousand" unicode="&#x2030;" horiz-adv-x="1065" 
d="M174 459q-52 0 -84.5 37t-25.5 89q6 51 45.5 85.5t89.5 34.5q53 0 85.5 -36.5t25.5 -89.5q-6 -50 -46 -85t-90 -35zM588 701l47 -33l-529 -668l-48 33zM176 512q30 0 54 21.5t28 51.5q3 29 -14.5 48t-45.5 19q-30 0 -54.5 -21t-28.5 -52q-3 -28 14.5 -47.5t46.5 -19.5z
M498 -5q-52 0 -84.5 37t-25.5 89q6 51 45.5 85.5t89.5 34.5q53 0 85.5 -36.5t25.5 -89.5q-6 -50 -46 -85t-90 -35zM866 -5q-52 0 -84 37t-26 89q6 50 46 85t90 35q52 0 84.5 -36.5t25.5 -89.5q-6 -50 -46 -85t-90 -35zM500 48q30 0 54 21.5t28 51.5q3 29 -14.5 48t-45.5 19
q-30 0 -54.5 -21t-28.5 -52q-3 -28 14.5 -47.5t46.5 -19.5zM868 48q30 0 54 21t28 52q4 29 -14 48t-46 19q-30 0 -54 -21t-28 -52q-4 -28 14 -47.5t46 -19.5z" />
    <glyph glyph-name="guilsinglleft" unicode="&#x2039;" horiz-adv-x="215" 
d="M61 309l99 -105l-7 -55l-135 104l14 111l160 104l-7 -55z" />
    <glyph glyph-name="guilsinglright" unicode="&#x203a;" horiz-adv-x="213" 
d="M64 468l135 -104l-13 -111l-160 -104l6 55l125 105l-99 104z" />
    <glyph glyph-name="fraction" unicode="&#x2044;" horiz-adv-x="108" 
d="M-233 0l522 700h42l-516 -700h-48z" />
    <glyph glyph-name="Euro" unicode="&#x20ac;" horiz-adv-x="695" 
d="M468 707q127 0 213 -88l-46 -46q-63 71 -169 71q-88 0 -172.5 -60.5t-122.5 -155.5h143l-7 -51h-152q-4 -20 -5 -30q-2 -13 -2 -37h151l-6 -51h-141q17 -90 84.5 -146.5t152.5 -56.5q106 0 188 74l39 -51q-105 -86 -230 -86q-113 0 -200.5 74t-104.5 192h-61l6 51h51
q0 20 3 43l4 24h-50l7 51h56q41 124 148 201.5t223 77.5z" />
    <glyph glyph-name="hryvnia" unicode="&#x20b4;" horiz-adv-x="567" 
d="M242 319l-26 -9h323v-51h-412q-31 -30 -37 -76q-7 -61 42 -96.5t123 -35.5q62 0 120 35t80 89l56 -16q-33 -73 -109.5 -119.5t-159.5 -46.5q-94 0 -161 51t-58 133q6 47 30 82h-12v51h61q50 38 138 67h-199v51h341q75 37 82 101q7 54 -33.5 87t-107.5 33
q-65 0 -114.5 -30t-70.5 -75l-59 13q34 64 102.5 107t154.5 43q89 0 146.5 -49t48.5 -123q-7 -63 -53 -107h61v-51h-135q-33 -16 -67 -27z" />
    <glyph glyph-name="trademark" unicode="&#x2122;" horiz-adv-x="553" 
d="M208 668l-18 -148h-37l18 148h-67l4 32h171l-4 -32h-67zM509 520h-36l12 95l-80 -95h-9l-56 95l-12 -95h-36l22 180h14l77 -128l111 128h15z" />
    <glyph glyph-name="oneeighth" unicode="&#x215b;" horiz-adv-x="556" 
d="M25 440h-37l27 221l-17 -11l-15 31l37 20h37zM-61 0l522 700h42l-516 -700h-48zM419 142q41 -22 35 -68q-4 -33 -32.5 -54.5t-65.5 -21.5q-38 0 -63 24t-21 58q5 43 51 65q-27 18 -24 54q3 25 26 44.5t57 19.5q38 0 57.5 -21t16.5 -49q-4 -33 -37 -51zM336 193
q-2 -14 8.5 -25t24.5 -11q19 0 33 13t16 29q4 33 -33 33q-21 0 -34 -11.5t-15 -27.5zM354 29q25 0 42.5 14t20.5 37q2 21 -10.5 33.5t-35.5 12.5t-41.5 -14.5t-21.5 -37.5q-2 -19 12 -32t34 -13z" />
    <glyph glyph-name="threeeighths" unicode="&#x215c;" horiz-adv-x="574" 
d="M108 581q40 -17 34 -68q-4 -33 -32.5 -55t-65.5 -22q-42 0 -66 28t-17 65l38 -3q-5 -24 7 -41t35 -17q24 0 42.5 14.5t21.5 36.5q3 26 -14 36t-53 8l1 30q64 0 69 45q2 14 -8 24t-27 10q-22 0 -38 -15.5t-19 -41.5l-37 3q3 38 29 61.5t62 23.5q33 0 55.5 -21.5
t19.5 -49.5q-5 -32 -37 -51zM-41 0l522 700h42l-516 -700h-48zM437 142q41 -22 35 -68q-4 -33 -32.5 -54.5t-65.5 -21.5q-38 0 -63 24t-21 58q5 43 51 65q-27 18 -24 54q3 25 26 44.5t57 19.5q38 0 57.5 -21t16.5 -49q-4 -33 -37 -51zM354 193q-2 -14 8.5 -25t24.5 -11
q19 0 33 13t16 29q4 33 -33 33q-21 0 -34 -11.5t-15 -27.5zM372 29q25 0 42.5 14t20.5 37q2 21 -10.5 33.5t-35.5 12.5t-41.5 -14.5t-21.5 -37.5q-2 -19 12 -32t34 -13z" />
    <glyph glyph-name="fiveeighths" unicode="&#x215d;" horiz-adv-x="576" 
d="M-43 500l35 16q-1 -20 12 -34t36 -14q25 0 45 18.5t23 45.5q3 24 -10.5 40.5t-32.5 16.5q-36 0 -62 -30l-32 9l34 133h138l-4 -32h-104l-16 -57q21 9 44 9q36 0 61.5 -27.5t21.5 -67.5q-5 -38 -35 -64t-68 -26q-34 0 -58.5 19.5t-27.5 44.5zM-41 0l522 700h42l-516 -700
h-48zM439 142q41 -22 35 -68q-4 -33 -32.5 -54.5t-65.5 -21.5q-38 0 -63 24t-21 58q5 43 51 65q-27 18 -24 54q3 25 26 44.5t57 19.5q38 0 57.5 -21t16.5 -49q-4 -33 -37 -51zM356 193q-2 -14 8.5 -25t24.5 -11q19 0 33 13t16 29q4 33 -33 33q-21 0 -34 -11.5t-15 -27.5z
M374 29q25 0 42.5 14t20.5 37q2 21 -10.5 33.5t-35.5 12.5t-41.5 -14.5t-21.5 -37.5q-2 -19 12 -32t34 -13z" />
    <glyph glyph-name="seveneighths" unicode="&#x215e;" horiz-adv-x="556" 
d="M23 440h-39l117 229h-121l4 32h173zM-61 0l522 700h42l-516 -700h-48zM419 142q41 -22 35 -68q-4 -33 -32.5 -54.5t-65.5 -21.5q-38 0 -63 24t-21 58q5 43 51 65q-27 18 -24 54q3 25 26 44.5t57 19.5q38 0 57.5 -21t16.5 -49q-4 -33 -37 -51zM336 193q-2 -14 8.5 -25
t24.5 -11q19 0 33 13t16 29q4 33 -33 33q-21 0 -34 -11.5t-15 -27.5zM354 29q25 0 42.5 14t20.5 37q2 21 -10.5 33.5t-35.5 12.5t-41.5 -14.5t-21.5 -37.5q-2 -19 12 -32t34 -13z" />
    <glyph glyph-name="partialdiff" unicode="&#x2202;" horiz-adv-x="535" 
d="M274 431q33 0 68 -12l-173 281h73l111 -182l22.5 -36.5l22 -34.5l20.5 -33t18 -32.5l15 -32.5t12 -33l8 -34t3 -36t-2 -39q-11 -90 -85 -153.5t-162 -63.5q-89 0 -148.5 65.5t-48.5 157.5q11 89 85 153.5t161 64.5zM227 48q64 0 118.5 47.5t63.5 117.5q9 71 -28 114
t-109 43q-64 0 -118 -46t-63 -117q-8 -68 33.5 -113.5t102.5 -45.5z" />
    <glyph glyph-name="product" unicode="&#x220f;" horiz-adv-x="663" 
d="M673 800l-7 -62l-114 -928h-60l114 928h-453l-114 -928h-60l114 928l7 62h573z" />
    <glyph glyph-name="summation" unicode="&#x2211;" horiz-adv-x="656" 
d="M201 737l188 -432l-294 -432h457l-7 -63h-566l335 495l-214 495h566l-8 -63h-457z" />
    <glyph glyph-name="minus" unicode="&#x2212;" horiz-adv-x="425" 
d="M375 307l-7 -52h-335l7 52h335z" />
    <glyph glyph-name="radical" unicode="&#x221a;" horiz-adv-x="686" 
d="M323 -190h-70l-108 465h-109l8 67h153l98 -440l338 898h63z" />
    <glyph glyph-name="infinity" unicode="&#x221e;" horiz-adv-x="815" 
d="M604 425q70 0 114 -49t35 -117q-7 -67 -61.5 -115t-122.5 -48q-100 0 -177 115q-103 -115 -202 -115q-71 0 -115 49.5t-36 119.5q8 66 62.5 113t123.5 47q96 0 176 -113q104 113 203 113zM194 152q77 0 165 113q-58 104 -134 104q-48 0 -83.5 -32t-41.5 -78
q-5 -44 21.5 -75.5t72.5 -31.5zM692 265q6 44 -20.5 74t-72.5 30q-78 0 -165 -110q59 -107 134 -107q47 0 83 33.5t41 79.5z" />
    <glyph glyph-name="integral" unicode="&#x222b;" horiz-adv-x="280" 
d="M64 -24l82 666q20 158 173 158l-4 -57q-46 0 -72 -24.5t-33 -84.5l-81 -666q-20 -158 -174 -158l4 57q46 0 72 24.5t33 84.5z" />
    <glyph glyph-name="approxequal" unicode="&#x2248;" horiz-adv-x="480" 
d="M401 391h34q0 -45 -29 -70.5t-75 -25.5q-45 0 -96.5 36.5t-84.5 36.5q-34 0 -50.5 -16t-15.5 -34h-32q0 46 30 72t75 26q37 0 68 -17t57.5 -34t51.5 -17q34 0 50.5 13t16.5 30zM381 231h34q0 -45 -29 -70.5t-75 -25.5q-45 0 -96 36.5t-85 36.5t-50 -16t-15 -34h-33
q0 46 30 72t75 26q37 0 68.5 -17t57.5 -34t52 -17q33 0 49.5 13t16.5 30z" />
    <glyph glyph-name="notequal" unicode="&#x2260;" horiz-adv-x="425" 
d="M246 295l-11 -28h145l-6 -52h-159l-84 -215h-55l84 215h-121l6 52h135l11 28h-142l7 52h155l83 214h55l-83 -214h125l-7 -52h-138z" />
    <glyph glyph-name="lessequal" unicode="&#x2264;" horiz-adv-x="431" 
d="M107 375l289 161l6 57l-366 -206l-3 -24l320 -206l7 58zM384 53l-7 -53h-335l7 53h335z" />
    <glyph glyph-name="greaterequal" unicode="&#x2265;" horiz-adv-x="434" 
d="M22 157l369 206l2 25l-317 205l-8 -57l251 -161l-289 -160zM338 0h-335l7 53h335z" />
    <glyph glyph-name="lozenge" unicode="&#x25ca;" horiz-adv-x="485" 
d="M440 350l-198 -350h-85l-112 350l198 350h84zM373 350l-94 295l-167 -295l94 -294z" />
    <glyph glyph-name="Gdotaccent.001" horiz-adv-x="754" 
d="M468 866h-66l8 67h66zM640 344l63 -3q-19 -155 -121 -251.5t-236 -96.5q-65 0 -124.5 27t-103 73t-65.5 114.5t-13 145.5q13 101 74 183.5t144.5 126.5t169.5 44q80 0 141.5 -27t95.5 -71l-46 -42q-27 36 -76.5 57.5t-115.5 21.5q-109 0 -207 -86t-113 -213
q-16 -124 60 -208t182 -84q95 0 172 62.5t107 165.5h-170l7 59h175v2z" />
    <glyph glyph-name="i.loclTRK" horiz-adv-x="215" 
d="M174 753l-8 -67h-66l8 67h66zM161 520l-64 -520h-65l64 520h65z" />
    <glyph glyph-name="e.ss01" horiz-adv-x="588" 
d="M307 526q43 0 84 -17t74 -49t49.5 -85t8.5 -118l-435 -65q10 -69 56.5 -105t105.5 -36q91 0 154 64l49 -32q-86 -90 -212 -90q-43 0 -84.5 17t-75 48.5t-50.5 84.5t-9 117t38 116.5t71.5 84t87 48.5t88.5 17zM301 468q-73 0 -137 -54.5t-76 -154.5l-1 -11l376 55
q4 75 -46 120t-116 45z" />
    <glyph glyph-name="w.ss01" horiz-adv-x="780" 
d="M771 520l-316 -520h-12l-71 197l-123 -197h-12l-188 520h68l141 -398l89 143l-92 255h68l141 -398l239 398h68z" />
    <glyph glyph-name="f_t" horiz-adv-x="669" 
d="M530 463l-46 -367q-2 -25 5.5 -35t26.5 -10q32 0 74 20l-5 -60q-36 -17 -89 -17q-37 0 -60 22.5t-17 74.5l46 372h-311l-57 -463h-65l57 463h-53l8 57h52l4 33q19 154 169 154q41 0 75.5 -15.5t51.5 -36.5l-32 -45q-33 40 -97 40q-91 0 -102 -102l-3 -28h310l11 90h65
l-11 -90h109l-8 -57h-108z" />
    <glyph glyph-name="t_t" horiz-adv-x="658" 
d="M518 463l-45 -367q-3 -25 5 -35t27 -10q32 0 74 20l-5 -60q-36 -17 -89 -17q-37 0 -60.5 22.5t-17.5 74.5l46 372h-275l-45 -366q-3 -25 4.5 -35.5t28.5 -10.5q31 0 72 18l-5 -58q-36 -17 -86 -17q-91 0 -80 97l46 372h-70l7 57h70l11 90h65l-11 -90h275l11 90h65
l-11 -90h109l-7 -57h-109z" />
    <glyph glyph-name="zero.tf" horiz-adv-x="700" 
d="M348 707q122 0 189.5 -93.5t47.5 -251.5l-3 -26q-19 -159 -107.5 -251t-208.5 -92q-122 0 -189.5 93t-47.5 253l3 26q19 158 107.5 250t208.5 92zM518 339l3 26q16 129 -31.5 207t-143.5 78q-97 0 -165.5 -79.5t-84.5 -208.5l-3 -26q-16 -130 31.5 -207.5t143.5 -77.5
q97 0 165 79t85 209z" />
    <glyph glyph-name="one.tf" horiz-adv-x="700" 
d="M301 0h-65l79 643h-95l8 57h159z" />
    <glyph glyph-name="two.tf" horiz-adv-x="700" 
d="M53 21l207 216l72 72.5l60 60t39.5 44t30 46.5t11.5 46q9 65 -30 104t-101 39q-63 0 -114 -42t-60 -113l-2 -15h-65l2 18q11 89 80.5 149.5t160.5 60.5t148 -61t46 -146q-2 -19 -7.5 -36.5t-18.5 -38.5l-21.5 -34t-33.5 -40l-36.5 -39.5t-48 -49l-52.5 -53.5l-149 -151
h318l-8 -58h-431z" />
    <glyph glyph-name="three.tf" horiz-adv-x="700" 
d="M579 700l-220 -284q78 -7 128.5 -62.5t39.5 -145.5q-12 -98 -88 -158t-176 -60q-102 0 -162 62t-49 152l65 -2q-9 -66 35 -110t112 -44q74 0 131.5 43.5t66.5 122.5q10 82 -47.5 123.5t-156.5 32.5l205 273l-336 -1l8 58h444z" />
    <glyph glyph-name="four.tf" horiz-adv-x="700" 
d="M427 211l-26 -211h-65l26 211h-333l2 18l431 471h25l-53 -431h75l-7 -58h-75zM406 562l-263 -293h226z" />
    <glyph glyph-name="five.tf" horiz-adv-x="700" 
d="M38 135l57 26q13 -46 54.5 -79.5t105.5 -33.5q73 0 133 51.5t71 134.5q9 80 -35 130t-110 50q-94 0 -172 -72l-58 14l86 344h343l-7 -57h-288l-58 -224q64 52 156 52q95 0 157.5 -68.5t49.5 -174.5q-13 -102 -91 -170t-178 -68q-83 0 -139.5 41t-76.5 104z" />
    <glyph glyph-name="six.tf" horiz-adv-x="700" 
d="M311 431q89 0 148 -66.5t48 -157.5q-11 -90 -84 -153.5t-161 -63.5q-90 0 -149.5 65.5t-48.5 157.5q3 29 13.5 57.5t20 48.5t33 51l35 45.5t45 52.5l45.5 52l158 180h73l-244 -280q37 11 68 11zM263 48q64 0 118.5 47.5t63.5 117.5q8 69 -33 113t-103 44
q-74 0 -123.5 -44.5t-59.5 -118.5q-8 -68 34 -113.5t103 -45.5z" />
    <glyph glyph-name="seven.tf" horiz-adv-x="700" 
d="M207 0h-69l328 643h-345l7 57h435z" />
    <glyph glyph-name="eight.tf" horiz-adv-x="700" 
d="M513 529q-11 -90 -94 -141q48 -27 72.5 -75t16.5 -112q-12 -91 -84.5 -149.5t-159.5 -58.5q-89 0 -149 60.5t-48 153.5q8 64 44 111t91 72q-33 25 -49 63.5t-11 81.5q9 71 66 121.5t139 50.5q83 0 129 -52t37 -126zM450 535q6 45 -22.5 79.5t-82.5 34.5q-56 0 -95 -36
t-45 -84q-5 -47 25.5 -81t80.5 -34q52 0 92 35.5t47 85.5zM442 207q8 67 -30.5 108.5t-102.5 41.5q-65 0 -116.5 -43.5t-59.5 -112.5q-8 -66 31.5 -107.5t101.5 -41.5q64 0 116 43.5t60 111.5z" />
    <glyph glyph-name="nine.tf" horiz-adv-x="700" 
d="M298 268q-89 0 -148.5 66.5t-47.5 157.5q11 91 84 154t161 63q90 0 150 -65t49 -158q-4 -29 -14 -57.5t-20 -48.5t-33.5 -51l-35 -45.5t-45 -52.5l-45.5 -52l-157 -180h-74l245 280q-39 -11 -69 -11zM346 651q-63 0 -117.5 -47.5t-63.5 -117.5q-9 -69 32 -113t104 -44
q73 0 123 44.5t59 118.5q8 68 -33.5 113.5t-103.5 45.5z" />
    <glyph glyph-name="zero.dnom" horiz-adv-x="260" 
d="M116 263q48 0 74 -35.5t19 -91.5l-2 -13q-7 -56 -39 -90.5t-78 -34.5t-73 36t-20 92l2 13q7 55 40 89.5t77 34.5zM170 126l2 13q5 45 -9 69t-44 24t-54 -26t-29 -70l-2 -13q-5 -44 10.5 -69t43.5 -25q32 0 54.5 26t27.5 71z" />
    <glyph glyph-name="one.dnom" horiz-adv-x="122" 
d="M54 0h-37l27 221l-17 -11l-15 31l37 20h37z" />
    <glyph glyph-name="two.dnom" horiz-adv-x="221" 
d="M-11 32l76 70q32 30 41 39t18.5 23t10.5 28q2 18 -8.5 29.5t-28.5 11.5q-20 0 -36.5 -13.5t-20.5 -37.5l-1 -13h-37l2 16q4 35 30.5 57t59.5 22q36 0 59 -23.5t19 -54.5q-3 -25 -19.5 -45.5t-59.5 -60.5l-55 -48h118l-4 -32h-168z" />
    <glyph glyph-name="three.dnom" horiz-adv-x="233" 
d="M140 141q40 -17 34 -68q-4 -33 -32.5 -55t-65.5 -22q-42 0 -66 28t-17 65l38 -3q-4 -24 7.5 -41t34.5 -17q24 0 42.5 14.5t21.5 36.5q3 26 -14 36t-53 8l1 30q64 0 69 45q2 14 -8 24t-27 10q-22 0 -38 -15.5t-19 -41.5l-37 3q3 38 29 61.5t62 23.5q33 0 55.5 -21.5
t19.5 -49.5q-5 -32 -37 -51z" />
    <glyph glyph-name="four.dnom" horiz-adv-x="246" 
d="M160 76l-9 -76h-37l9 76h-132l155 185h37l-19 -154h27l-4 -31h-27zM139 202l-77 -95h65z" />
    <glyph glyph-name="five.dnom" horiz-adv-x="235" 
d="M-11 60l35 16q-1 -20 12 -34t36 -14q25 0 45 18.5t23 45.5q3 24 -10.5 40.5t-32.5 16.5q-36 0 -62 -30l-32 9l34 133h138l-4 -32h-104l-16 -57q21 9 44 9q36 0 61.5 -27.5t21.5 -67.5q-5 -38 -35 -64t-68 -26q-34 0 -58.5 19.5t-27.5 44.5z" />
    <glyph glyph-name="six.dnom" horiz-adv-x="223" 
d="M83 165h5q34 0 57.5 -26t19.5 -61q-4 -33 -32 -57.5t-61 -24.5q-35 0 -59.5 26.5t-20.5 61.5q2 16 9 30.5t13 22.5t20 24l19 22l68 78h42zM69 28q20 0 38 16t21 40q3 22 -9.5 35.5t-30.5 13.5q-23 0 -39.5 -15t-19.5 -40q-3 -21 9.5 -35.5t30.5 -14.5z" />
    <glyph glyph-name="seven.dnom" horiz-adv-x="223" 
d="M53 0h-39l117 229h-121l4 32h173z" />
    <glyph glyph-name="eight.dnom" horiz-adv-x="233" 
d="M139 142q41 -22 35 -68q-4 -33 -32.5 -54.5t-65.5 -21.5q-38 0 -63 24t-21 58q5 43 51 65q-27 18 -24 54q3 25 26 44.5t57 19.5q38 0 57.5 -21t16.5 -49q-4 -33 -37 -51zM56 193q-2 -14 8.5 -25t24.5 -11q19 0 33 13t16 29q4 33 -33 33q-21 0 -34 -11.5t-15 -27.5zM74 29
q25 0 42.5 14t20.5 37q2 21 -10.5 33.5t-35.5 12.5t-41.5 -14.5t-21.5 -37.5q-2 -19 12 -32t34 -13z" />
    <glyph glyph-name="nine.dnom" horiz-adv-x="224" 
d="M86 95h-3q-35 0 -59 27t-20 61t32.5 57.5t61.5 23.5q36 0 60 -25.5t20 -61.5q-2 -12 -5.5 -23t-11.5 -22.5t-12.5 -17t-17 -19.5t-16.5 -18l-66 -77h-43zM101 232q-20 0 -38.5 -15.5t-21.5 -39.5q-3 -21 10 -35.5t31 -14.5q23 0 39 15.5t19 40.5q3 21 -9 35t-30 14z" />
    <glyph glyph-name="zero.numr" horiz-adv-x="260" 
d="M127 703q48 0 74 -35.5t19 -91.5l-2 -13q-7 -56 -39 -90.5t-78 -34.5t-73 36t-20 92l2 13q7 55 40 89.5t77 34.5zM181 566l2 13q5 45 -9 69t-44 24t-54 -26t-29 -70l-2 -13q-5 -44 10.5 -69t43.5 -25q32 0 54.5 26t27.5 71z" />
    <glyph glyph-name="one.numr" horiz-adv-x="122" 
d="M65 440h-37l27 221l-17 -11l-15 31l37 20h37z" />
    <glyph glyph-name="two.numr" horiz-adv-x="221" 
d="M0 472l76 70q32 30 41 39t18.5 23t10.5 28q2 18 -8.5 29.5t-28.5 11.5q-20 0 -36.5 -13.5t-20.5 -37.5l-1 -13h-37l2 16q4 35 30.5 57t59.5 22q36 0 59 -23.5t19 -54.5q-3 -25 -19.5 -45.5t-59.5 -60.5l-55 -48h118l-4 -32h-168z" />
    <glyph glyph-name="three.numr" horiz-adv-x="233" 
d="M151 581q40 -17 34 -68q-4 -33 -32.5 -55t-65.5 -22q-42 0 -66 28t-17 65l38 -3q-4 -24 7.5 -41t34.5 -17q24 0 42.5 14.5t21.5 36.5q3 26 -14 36t-53 8l1 30q64 0 69 45q2 14 -8 24t-27 10q-22 0 -38 -15.5t-19 -41.5l-37 3q3 38 29 61.5t62 23.5q33 0 55.5 -21.5
t19.5 -49.5q-5 -32 -37 -51z" />
    <glyph glyph-name="four.numr" horiz-adv-x="246" 
d="M171 516l-9 -76h-37l9 76h-132l155 185h37l-19 -154h27l-4 -31h-27zM150 642l-77 -95h65z" />
    <glyph glyph-name="five.numr" horiz-adv-x="235" 
d="M0 500l35 16q-1 -20 12 -34t36 -14q25 0 45 18.5t23 45.5q3 24 -10.5 40.5t-32.5 16.5q-36 0 -62 -30l-32 9l34 133h138l-4 -32h-104l-16 -57q21 9 44 9q36 0 61.5 -27.5t21.5 -67.5q-5 -38 -35 -64t-68 -26q-34 0 -58 19.5t-28 44.5z" />
    <glyph glyph-name="six.numr" horiz-adv-x="223" 
d="M94 605h5q34 0 57.5 -26t19.5 -61q-4 -33 -32 -57.5t-61 -24.5q-35 0 -59.5 26.5t-20.5 61.5q2 16 9 30.5t13 22.5t20 24l19 22l68 78h42zM80 468q20 0 38 16t21 40q3 22 -9.5 35.5t-30.5 13.5q-23 0 -39.5 -15t-19.5 -40q-3 -21 9.5 -35.5t30.5 -14.5z" />
    <glyph glyph-name="seven.numr" horiz-adv-x="223" 
d="M64 440h-39l117 229h-121l4 32h173z" />
    <glyph glyph-name="eight.numr" horiz-adv-x="233" 
d="M150 582q41 -22 35 -68q-4 -33 -32.5 -54.5t-65.5 -21.5q-38 0 -63 24t-21 58q5 43 51 65q-27 18 -24 54q3 25 26 44.5t57 19.5q38 0 57.5 -21t16.5 -49q-4 -33 -37 -51zM67 633q-2 -14 8.5 -25t24.5 -11q19 0 33 13t16 29q4 33 -33 33q-21 0 -34 -11.5t-15 -27.5z
M85 469q25 0 42.5 14t20.5 37q2 21 -10.5 33.5t-35.5 12.5t-41.5 -14.5t-21.5 -37.5q-2 -19 12 -32t34 -13z" />
    <glyph glyph-name="nine.numr" horiz-adv-x="224" 
d="M97 535h-3q-35 0 -59 27t-20 61t32.5 57.5t61.5 23.5q36 0 60 -25.5t20 -61.5q-2 -12 -5.5 -23t-11.5 -22.5t-12.5 -17t-17 -19.5t-16.5 -18l-66 -77h-43zM112 672q-20 0 -38.5 -15.5t-21.5 -39.5q-3 -21 10 -35.5t31 -14.5q23 0 39 15.5t19 40.5q3 21 -9 35t-30 14z" />
    </font>
</defs>
</svg>
