<?xml version="1.0" standalone="no"?>
<!DOCTYPE svg PUBLIC "-//W3C//DTD SVG 1.1//EN" "http://www.w3.org/Graphics/SVG/1.1/DTD/svg11.dtd" >
<svg>
<metadata>
Created by FontForge 20090622 at Fri Mar 18 10:24:44 2016
 By deploy user
&#194;&#169; 2015 Connary Fagen
</metadata>
<defs>
<font id="VisbyCF-HeavyOblique" horiz-adv-x="615" >
  <font-face 
    font-family="Visby CF Heavy"
    font-weight="900"
    font-style="oblique"
    font-stretch="normal"
    units-per-em="1000"
    panose-1="0 0 10 0 0 0 0 0 0 0"
    ascent="800"
    descent="-200"
    x-height="520"
    cap-height="700"
    bbox="-242 -251.116 1236 989"
    underline-thickness="50"
    underline-position="-50"
    unicode-range="U+0020-U+FB02"
  />
<missing-glyph horiz-adv-x="500" 
d="M0 0v700h500v-700h-500zM250 395l170 255h-340zM280 350l170 -255v510zM80 50h340l-170 255zM50 605v-510l170 255z" />
    <glyph glyph-name="fi" unicode="fi" horiz-adv-x="625" 
d="M299 590q-48 0 -55 -54l-2 -16h102l-15 -117h-101l-49 -403h-137l50 403h-66l15 117h65l4 31q5 40 21.5 70t37 46t47 25.5t46 12t39.5 2.5q46 0 88.5 -18t53.5 -38l-52 -90q-55 29 -92 29zM609 520l-64 -520h-137l64 520h137z" />
    <glyph glyph-name="fl" unicode="fl" horiz-adv-x="627" 
d="M632 700l-86 -700h-140l67 548q-30 25 -56 33.5t-72 8.5q-48 0 -79.5 -21t-34.5 -48v-1h116l-15 -117h-115l-50 -403h-137l50 403h-51l15 117h51l1 9q6 51 34.5 88.5t68.5 55.5t76.5 26t71.5 8q74 0 142 -35l3 28h140z" />
    <glyph glyph-name="f_f" unicode="ff" horiz-adv-x="905" 
d="M297 590q-17 0 -28 -5.5t-16 -16.5t-6.5 -16.5t-2.5 -16.5l-2 -15h142l-15 -117h-141l-49 -403h-137l50 403h-66l15 117h65l4 30q19 157 189 157q49 0 90.5 -20t59.5 -48l-53 -88q-54 39 -99 39zM717 590q-17 0 -28 -5.5t-16 -16.5t-6.5 -16.5t-2.5 -16.5l-2 -15h102
l-15 -117h-101l-49 -403h-137l50 403h-66l15 117h65l4 30q19 157 189 157q49 0 90.5 -20t59.5 -48l-53 -88q-54 39 -99 39z" />
    <glyph glyph-name=".notdef" horiz-adv-x="500" 
d="M0 0v700h500v-700h-500zM250 395l170 255h-340zM280 350l170 -255v510zM80 50h340l-170 255zM50 605v-510l170 255z" />
    <glyph glyph-name=".null" horiz-adv-x="0" 
 />
    <glyph glyph-name="nonmarkingreturn" horiz-adv-x="333" 
 />
    <glyph glyph-name="space" unicode=" " horiz-adv-x="310" 
 />
    <glyph glyph-name="exclam" unicode="!" horiz-adv-x="311" 
d="M64 224l58 476h154l-58 -476h-154zM207 150l-19 -150h-151l18 150h152z" />
    <glyph glyph-name="quotedbl" unicode="&#x22;" horiz-adv-x="478" 
d="M160 525l22 175h-137l-22 -175h137zM411 525l22 175h-137l-22 -175h137z" />
    <glyph glyph-name="numbersign" unicode="#" horiz-adv-x="550" 
d="M457 403l-20 -105h62l-15 -118h-70l-35 -180h-137l35 180h-75l-35 -180h-137l35 180h-41l15 118h49l20 105h-57l15 117h65l35 180h137l-35 -180h74l35 180h138l-35 -180h46l-15 -117h-54zM320 403h-75l-20 -105h75z" />
    <glyph glyph-name="dollar" unicode="$" horiz-adv-x="559" 
d="M363 580l-20 -162q177 -77 160 -228q-10 -79 -71 -129t-140 -64l-11 -87h-117l11 94q-54 17 -94.5 58.5t-56.5 97.5l113 40q13 -45 54 -70l25 200q-150 64 -134 199q8 65 58.5 111t120.5 61l11 89h117l-11 -90q58 -15 97.5 -55t53.5 -91l-120 -18q-10 31 -46 44zM216 513
q-4 -29 16 -45l12 95q-25 -22 -28 -50zM370 206q6 49 -43 79l-20 -159q56 23 63 80z" />
    <glyph glyph-name="percent" unicode="%" horiz-adv-x="698" 
d="M177 459q-53 0 -86 38.5t-27 92.5q6 49 44 82t88 33q54 0 87.5 -38t26.5 -93q-6 -48 -44.5 -81.5t-88.5 -33.5zM541 702l102 -68l-500 -634l-103 68zM178 562q8 0 16.5 8.5t9.5 19.5q3 11 -9 11q-11 0 -20.5 -8t-10.5 -19q-1 -5 2.5 -8.5t11.5 -3.5zM501 -5
q-53 0 -86 38.5t-27 92.5q6 49 44 82t88 33q54 0 87.5 -38t26.5 -93q-6 -48 -44.5 -81.5t-88.5 -33.5zM502 98q8 0 16.5 8.5t9.5 19.5q3 11 -9 11q-11 0 -20.5 -8t-10.5 -19q-1 -5 2.5 -8.5t11.5 -3.5z" />
    <glyph glyph-name="ampersand" unicode="&#x26;" horiz-adv-x="774" 
d="M633 111q37 0 74 26l-9 -122q-30 -21 -81 -21q-59 0 -84 32t-18 88q-1 -9 -4 -10v-1q-35 -52 -92.5 -82.5t-125.5 -30.5q-67 0 -124 27.5t-90 82t-24 123.5q10 83 63.5 138t117.5 61l-90 278h452l-15 -117h-267l84 -253q-18 1 -59 1q-134 0 -151 -123q-5 -41 21.5 -70.5
t82.5 -29.5q166 0 181 121l9 79l15 117h172l-14 -117h-35l-18 -145q-2 -23 1.5 -35t9.5 -14.5t18 -2.5z" />
    <glyph glyph-name="quotesingle" unicode="'" horiz-adv-x="227" 
d="M203 525l22 175h-137l-22 -175h137z" />
    <glyph glyph-name="parenleft" unicode="(" horiz-adv-x="333" 
d="M199 747l133 -4q-125 -186 -154 -431q-32 -253 45 -444l-130 4q-83 191 -51 456q31 245 157 419z" />
    <glyph glyph-name="parenright" unicode=")" horiz-adv-x="333" 
d="M95 747l129 -4q85 -178 55 -431q-32 -256 -160 -444l-134 4q127 196 158 456q30 236 -48 419z" />
    <glyph glyph-name="asterisk" unicode="*" horiz-adv-x="523" 
d="M372 520l58 -88l-103 -60l-51 85l-68 -85l-94 60l77 89l-92 25l39 114l105 -32l10 113h110l-15 -113l109 32l15 -114z" />
    <glyph glyph-name="plus" unicode="+" horiz-adv-x="425" 
d="M365 219h-119l-13 -105h-113l13 105h-103l13 112h104l15 118h112l-14 -118h118z" />
    <glyph glyph-name="comma" unicode="," horiz-adv-x="277" 
d="M200 -135l78 155h-184l-19 -155h125z" />
    <glyph glyph-name="hyphen" unicode="-" horiz-adv-x="400" 
d="M353 331l-13 -112h-310l13 112h310z" />
    <glyph glyph-name="period" unicode="." horiz-adv-x="226" 
d="M164 150l-18 -150h-152l18 150h152z" />
    <glyph glyph-name="slash" unicode="/" horiz-adv-x="570" 
d="M-15 -130l447 875h143l-447 -875h-143z" />
    <glyph glyph-name="zero" unicode="0" horiz-adv-x="678" 
d="M376 707q128 0 206.5 -92t58.5 -256l-3 -26q-21 -163 -116.5 -251.5t-220.5 -88.5q-61 0 -112.5 22.5t-89.5 65t-55.5 110t-6.5 150.5l3 26q19 162 115.5 251t220.5 89zM502 341l3 26q7 37 3 77t-16 72t-42.5 53t-75.5 21q-47 0 -84 -21.5t-59.5 -57t-36 -73.5t-18.5 -79
l-3 -26q-7 -38 -3 -77.5t15.5 -71.5t42 -52.5t75.5 -20.5q47 0 84.5 21t60 56.5t36 73.5t18.5 79z" />
    <glyph glyph-name="one" unicode="1" horiz-adv-x="379" 
d="M263 0h-137l71 583h-116l15 117h253z" />
    <glyph glyph-name="two" unicode="2" horiz-adv-x="572" 
d="M5 37l194 201l80 79l60 59t35.5 39.5t25 39t9.5 40.5q6 52 -20.5 72t-63.5 20q-41 0 -79 -23.5t-45 -75.5l-2 -15h-139l3 23q10 82 84 146.5t180 64.5t168.5 -70t51.5 -158q-7 -59 -45.5 -112.5t-152.5 -171.5l-80 -77h217l-15 -118h-469z" />
    <glyph glyph-name="three" unicode="3" horiz-adv-x="616" 
d="M629 700l-191 -268q51 -20 84 -77.5t23 -146.5q-12 -96 -94.5 -157t-187.5 -61q-111 0 -178.5 65.5t-56.5 158.5l136 -7q-6 -52 28 -75.5t72 -23.5q26 0 54 8t57.5 36t34.5 72q8 66 -33.5 99t-137.5 26l152 234h-292l14 117h516z" />
    <glyph glyph-name="four" unicode="4" horiz-adv-x="590" 
d="M460 187l-23 -187h-137l23 187h-311l2 21l459 492h50l-48 -395h75l-15 -118h-75zM353 415l-84 -110h69z" />
    <glyph glyph-name="five" unicode="5" horiz-adv-x="586" 
d="M26 137l110 48q4 -3 17.5 -25.5t38 -37t67.5 -14.5q36 0 79.5 33t51.5 98q4 34 -4.5 58.5t-25.5 35.5t-32 15.5t-30 4.5q-38 0 -56 -3.5t-53 -21.5l-120 28l86 344h364l-15 -117h-248l-29 -116q9 -4 11.5 -3.5l21 4t40.5 3.5q104 0 171.5 -70t54.5 -178
q-13 -100 -91 -166.5t-177 -66.5q-171 0 -232 147z" />
    <glyph glyph-name="six" unicode="6" horiz-adv-x="561" 
d="M288 444q90 0 156 -72.5t54 -165.5q-11 -90 -88 -153t-165 -63q-93 0 -160.5 68t-55.5 163q4 35 13.5 64.5t33 65l34 50.5t49 61l46.5 55l154 183h154l-218 -253q2 0 -2 -1q-1 0 -2 -1q-4 -1 -3 -1zM246 109q47 0 83 33t42 79q4 38 -21 67t-67 29q-52 0 -87 -33t-41 -78
q-5 -41 21 -69t70 -28z" />
    <glyph glyph-name="seven" unicode="7" horiz-adv-x="545" 
d="M198 0h-147l296 583h-294l15 117h486z" />
    <glyph glyph-name="eight" unicode="8" horiz-adv-x="554" 
d="M439 396q76 -66 62 -184q-13 -96 -93.5 -157.5t-167.5 -61.5q-58 0 -110.5 28t-84 83.5t-22.5 123.5q14 116 106 177q-35 53 -27 119q10 79 68.5 131t145.5 52q89 0 138 -57.5t39 -141.5q-8 -63 -54 -112zM236 508q-3 -23 10.5 -41t37.5 -18q28 0 50.5 23t26.5 52
q3 25 -10.5 43t-36.5 18q-27 0 -50.5 -22.5t-27.5 -54.5zM356 228q6 47 -17.5 72t-57.5 25q-32 0 -68.5 -31t-42.5 -82q-5 -42 15.5 -69t56.5 -27q38 0 73 33t41 79z" />
    <glyph glyph-name="nine" unicode="9" horiz-adv-x="561" 
d="M273 255q-90 0 -156 72.5t-54 165.5q11 90 88 153t165 63q93 0 160 -68t55 -163q-4 -29 -13.5 -58t-19 -48.5t-30.5 -49.5t-32 -43.5l-40.5 -49l-39.5 -47.5l-154 -183h-154l218 253q-2 0 2 1q1 0 2 1q4 1 3 1zM315 590q-47 0 -83 -33t-42 -79q-4 -38 20.5 -67t66.5 -29
q52 0 87.5 33.5t41.5 77.5q5 41 -21 69t-70 28z" />
    <glyph glyph-name="colon" unicode=":" horiz-adv-x="268" 
d="M170 517l-18 -150h-152l18 150h152zM126 150l-18 -150h-152l18 150h152z" />
    <glyph glyph-name="semicolon" unicode=";" horiz-adv-x="288" 
d="M192 604l-18 -150h-152l18 150h152zM118 -135l78 155h-184l-19 -155h125z" />
    <glyph glyph-name="less" unicode="&#x3c;" horiz-adv-x="497" 
d="M223 240l239 114l16 127l-442 -219l-7 -43l389 -219l17 128z" />
    <glyph glyph-name="equal" unicode="=" horiz-adv-x="432" 
d="M411 483l-13 -112h-335l13 112h335zM375 179l-14 -112h-335l14 112h335z" />
    <glyph glyph-name="greater" unicode="&#x3e;" horiz-adv-x="497" 
d="M-8 0l442 219l7 43l-389 219l-17 -127l211 -114l-238 -112z" />
    <glyph glyph-name="question" unicode="?" horiz-adv-x="560" 
d="M335 707q91 0 151 -55.5t48 -147.5q-5 -42 -23 -73.5t-40 -51.5l-44.5 -39t-39.5 -47.5t-22 -66.5l-2 -7h-142q6 46 25 82t42.5 58t46.5 41t40 41t20 48q4 13 1 30.5t-9 33t-27 26.5t-53 11q-53 0 -78 -30.5t-30 -71.5l-138 -8q13 102 96 164.5t178 62.5zM221 219v-1v1z
M204 150h152l-19 -150h-152z" />
    <glyph glyph-name="at" unicode="@" horiz-adv-x="807" 
d="M446 707q68 0 128.5 -27.5t104.5 -74.5t65.5 -117t11.5 -150q-11 -84 -59.5 -132t-114.5 -48q-42 0 -70 15.5t-32 33.5q-10 -20 -38 -36t-65 -16q-66 0 -113.5 54.5t-36.5 145.5q11 82 67.5 131.5t117.5 49.5q46 0 70 -24l1 9h96q-54 63 -135 63q-95 0 -173 -70.5
t-90 -175.5q-12 -94 45.5 -159t146.5 -65q66 0 138 48l128 -58q-57 -53 -128 -82t-140 -29q-91 0 -168.5 45.5t-121.5 129.5t-31 185q19 153 138.5 253.5t257.5 100.5zM625 355q12 93 -39 158l-25 -198q-2 -22 1.5 -29t19.5 -7q36 0 43 76zM454 355q1 12 -1 23t-12.5 22
t-30.5 11q-32 0 -49.5 -23.5t-20.5 -48.5q-1 -10 -1 -23t11 -24.5t31 -11.5q32 0 51 24t22 51z" />
    <glyph glyph-name="A" unicode="A" horiz-adv-x="761" 
d="M482 180h-239l-104 -180h-156l429 700h22l257 -700h-150zM443 299l-48 144l-83 -144h131z" />
    <glyph glyph-name="B" unicode="B" horiz-adv-x="633" 
d="M458 387q125 -63 112 -187q-12 -91 -92 -145.5t-207 -54.5h-112l15 119h104q64 0 108 29.5t48 67.5q6 41 -27.5 70t-97.5 29h-111l-39 -315h-139l86 700h243q98 0 155.5 -50t46.5 -144q-9 -84 -93 -119zM415 521q4 29 -18 44.5t-55 15.5h-112l-18 -148h104
q42 0 68.5 25.5t30.5 62.5z" />
    <glyph glyph-name="C" unicode="C" horiz-adv-x="649" 
d="M341 129q71 0 140 61l81 -112q-104 -85 -228 -85q-137 0 -232.5 104.5t-75.5 258.5q9 76 46 142.5t90.5 111.5t118 71t128.5 26q128 0 215 -89l-97 -103q-49 56 -120 56q-82 0 -149.5 -67t-80.5 -162q-10 -90 38 -151.5t126 -61.5z" />
    <glyph glyph-name="D" unicode="D" horiz-adv-x="725" 
d="M118 700h239q92 0 168.5 -47.5t116.5 -129.5t28 -177q-18 -145 -133.5 -245.5t-257.5 -100.5h-106l15 119h98q93 0 162 69.5t82 173.5q12 93 -37.5 156t-142.5 63h-106l-71 -581h-141z" />
    <glyph glyph-name="E" unicode="E" horiz-adv-x="584" 
d="M91 700h145l-35 -287h227l-15 -123h-227l5 41l-26 -208h337l-14 -123h-483zM221 577l15 123h328l-15 -123h-328z" />
    <glyph glyph-name="F" unicode="F" horiz-adv-x="557" 
d="M96 700h143l-39 -313l3 19h273l-17 -124h-271l-35 -282h-143zM224 577l15 123h328l-15 -123h-328z" />
    <glyph glyph-name="G" unicode="G" horiz-adv-x="754" 
d="M662 340l41 -2q-19 -155 -119.5 -250t-234.5 -95q-65 0 -125 27t-104.5 74t-66.5 116.5t-12 147.5q12 100 72 181.5t143 124.5t169 43q80 0 142.5 -27.5t96.5 -71.5l-101 -94q-41 57 -139 57q-79 0 -152.5 -66.5t-85.5 -160.5q-11 -88 43 -151t128 -63q46 0 88 23.5
t71 64.5h-66l15 124h99l1 4l69 -4h28v-2z" />
    <glyph glyph-name="H" unicode="H" horiz-adv-x="731" 
d="M706 700l-86 -700h-141l36 289h-313l9 80l-45 -369h-141l86 700h141l-36 -291h313l36 291h141z" />
    <glyph glyph-name="I" unicode="I" horiz-adv-x="265" 
d="M18 0l86 700h143l-86 -700h-143z" />
    <glyph glyph-name="J" unicode="J" horiz-adv-x="564" 
d="M12 77l98 86q30 -45 95 -45q29 0 48 4.5t42 21t38 55.5t23 100l49 401h137l-54 -439q-17 -139 -96.5 -203.5t-186.5 -64.5q-129 0 -193 84z" />
    <glyph glyph-name="K" unicode="K" horiz-adv-x="769" 
d="M421 350l265 -350h-163l-192 253l-151 -164l14 127l-27 -216h-142l86 700h142l-51 -413l374 413h167z" />
    <glyph glyph-name="L" unicode="L" horiz-adv-x="587" 
d="M514 118l-15 -118h-471l86 700h141l-72 -582h331z" />
    <glyph glyph-name="M" unicode="M" horiz-adv-x="885" 
d="M775 0h-144l40 307l-255 -292h-27l-181 292l-40 -307h-143l86 700h23l292 -470l408 470h27z" />
    <glyph glyph-name="N" unicode="N" horiz-adv-x="684" 
d="M573 0h-12l-347 370l-46 -370h-143l86 700h10l348 -369l47 369h143z" />
    <glyph glyph-name="O" unicode="O" horiz-adv-x="781" 
d="M421 707q140 0 234 -104.5t74 -260.5q-12 -100 -70.5 -181.5t-142 -124.5t-170.5 -43q-65 0 -125.5 27t-104.5 74t-66 116.5t-12 147.5q12 100 72 181.5t143 124.5t168 43zM575 358q11 97 -32 155t-125 58t-146.5 -64t-77.5 -165q-12 -95 34 -154t124 -59q86 0 148 63
t75 166z" />
    <glyph glyph-name="P" unicode="P" horiz-adv-x="648" 
d="M111 700h257q115 0 179.5 -64.5t53.5 -158.5q-11 -89 -87.5 -147.5t-191.5 -58.5h-123l-33 -271h-141zM465 492q6 49 -23.5 68.5t-88.5 19.5h-116l-23 -188h107q134 0 144 100z" />
    <glyph glyph-name="Q" unicode="Q" horiz-adv-x="790" 
d="M556 0l-49 57q-97 -64 -204 -64q-65 0 -125.5 27t-104.5 74t-66 116.5t-12 147.5q12 100 72 181.5t143 124.5t168 43q140 0 234 -104.5t74 -260.5q-13 -114 -88 -205l117 -137h-159zM309 129q60 0 110 32l-80 93h159l2 -2q24 47 32 106q11 97 -32 155t-125 58t-146.5 -64
t-77.5 -165q-12 -95 34 -154t124 -59z" />
    <glyph glyph-name="R" unicode="R" horiz-adv-x="674" 
d="M277 271h-78l-33 -271h-141l86 700h257q115 0 179.5 -64.5t53.5 -158.5q-8 -67 -55 -118.5t-122 -73.5l202 -285h-173zM214 392h107q134 0 144 100q6 49 -23.5 68.5t-88.5 19.5h-116z" />
    <glyph glyph-name="S" unicode="S" horiz-adv-x="579" 
d="M298 439l29 -10q114 -41 159.5 -100t36.5 -139q-8 -63 -54.5 -109.5t-103 -67t-113.5 -20.5q-79 0 -142.5 47t-86.5 120l119 40q12 -38 44.5 -62.5t67.5 -24.5q47 0 85.5 23.5t44.5 69.5q5 35 -18.5 59.5t-81.5 43.5l-28 9q-189 63 -172 211q10 79 83 128.5t162 49.5
q87 0 144.5 -44t76.5 -109l-125 -18q-16 51 -98 51q-39 0 -69.5 -21t-34.5 -53q-4 -25 12 -40t63 -34z" />
    <glyph glyph-name="T" unicode="T" horiz-adv-x="653" 
d="M624 573h-198l-70 -573h-149l70 573h-199l16 127h546z" />
    <glyph glyph-name="U" unicode="U" horiz-adv-x="696" 
d="M677 700l-56 -453q-10 -77 -57 -136t-113 -88.5t-140 -29.5q-118 0 -196 73t-64 188l55 446h137l-56 -452q-8 -72 28.5 -104.5t97.5 -32.5q63 0 113 36t59 108l55 445h137z" />
    <glyph glyph-name="V" unicode="V" horiz-adv-x="749" 
d="M769 700l-425 -700h-22l-253 700h152l141 -431l250 431h157z" />
    <glyph glyph-name="W" unicode="W" horiz-adv-x="1106" 
d="M740 0h-12l-162 427l-271 -427h-12l-199 700h149l102 -389l248 389h24l151 -389l198 389h155z" />
    <glyph glyph-name="X" unicode="X" horiz-adv-x="757" 
d="M459 354l201 -354h-162l-134 237l-193 -237h-163l288 357l-195 343h162l128 -226l182 226h167z" />
    <glyph glyph-name="Y" unicode="Y" horiz-adv-x="735" 
d="M383 0h-137l40 314l-218 386h153l145 -262l210 262h159l-312 -386z" />
    <glyph glyph-name="Z" unicode="Z" horiz-adv-x="693" 
d="M615 0h-624l439 583h-341l15 117h594l-439 -582h371z" />
    <glyph glyph-name="bracketleft" unicode="[" horiz-adv-x="303" 
d="M138 -13h75l-14 -117h-213l107 875h213l-14 -117h-76z" />
    <glyph glyph-name="backslash" unicode="\" horiz-adv-x="570" 
d="M94 745h138l233 -875h-138z" />
    <glyph glyph-name="bracketright" unicode="]" horiz-adv-x="303" 
d="M79 628l14 117h213l-107 -875h-213l15 117h75l79 641h-76z" />
    <glyph glyph-name="asciicircum" unicode="^" horiz-adv-x="498" 
d="M280 577l-125 -102h-96l195 225h74l139 -225h-91z" />
    <glyph glyph-name="underscore" unicode="_" horiz-adv-x="590" 
d="M502 0l-15 -118h-500l15 118h500z" />
    <glyph glyph-name="grave" unicode="`" horiz-adv-x="236" 
d="M245 767h-195l95 -145h125z" />
    <glyph glyph-name="a" unicode="a" 
d="M577 520l-64 -520h-137l6 52q-10 -21 -50 -40t-88 -19q-43 0 -84 17.5t-74.5 50t-49.5 86.5t-8 121q15 121 97 189.5t172 68.5q85 0 135 -54l8 48h137zM416 268q8 74 -21 107t-81 33t-97.5 -43t-54.5 -113q-7 -65 24.5 -103t78.5 -38q56 0 98 38.5t53 118.5z" />
    <glyph glyph-name="b" unicode="b" horiz-adv-x="606" 
d="M350 526q94 0 162.5 -73.5t53.5 -200.5q-10 -84 -55.5 -145t-101 -87.5t-112.5 -26.5q-51 0 -90.5 22.5t-44.5 45.5l-8 -61h-137l86 700h137l-29 -224q61 50 139 50zM432 268q7 64 -24.5 102t-78.5 38q-56 0 -98 -38t-53 -118q-8 -74 21 -107.5t81 -33.5t97.5 43
t54.5 114z" />
    <glyph glyph-name="c" unicode="c" horiz-adv-x="552" 
d="M265 112q71 0 107 48l117 -57q-43 -54 -106 -82t-120 -28q-44 0 -88 17.5t-81 49.5t-56.5 86t-11.5 120q9 84 59.5 145.5t111.5 88t119 26.5q60 0 119 -30t90 -84l-124 -48q-24 43 -87 43q-53 0 -98.5 -42t-55.5 -114q-9 -66 23 -102.5t82 -36.5z" />
    <glyph glyph-name="d" unicode="d" horiz-adv-x="614" 
d="M596 700l-86 -700h-137l7 52q-11 -21 -51.5 -40t-87.5 -19q-43 0 -84 17.5t-74.5 50t-49.5 86.5t-8 121q15 121 97 189.5t172 68.5q88 0 136 -55l30 229h136zM413 268q8 74 -20.5 107t-81.5 33q-52 0 -97 -43t-54 -113q-8 -65 23 -103t79 -38q56 0 98 38.5t53 118.5z" />
    <glyph glyph-name="e" unicode="e" horiz-adv-x="600" 
d="M541 203h-377q5 -44 35.5 -67.5t69.5 -23.5q62 0 106 39l113 -66q-91 -92 -221 -92q-43 0 -87 17t-81 49.5t-57 86.5t-11 120q14 121 105.5 190.5t183.5 69.5q43 0 86 -17.5t79.5 -50t55 -87t10.5 -120.5q-1 -21 -10 -48zM179 315l239 8q8 40 -24.5 62t-75.5 22
q-40 0 -80.5 -25t-58.5 -67z" />
    <glyph glyph-name="f" unicode="f" horiz-adv-x="424" 
d="M297 590q-17 0 -28 -5.5t-16 -16.5t-6.5 -16.5t-2.5 -16.5l-2 -15h102l-15 -117h-101l-49 -403h-137l50 403h-66l15 117h65l4 30q19 157 189 157q49 0 90.5 -20t59.5 -48l-53 -88q-54 39 -99 39z" />
    <glyph glyph-name="g" unicode="g" horiz-adv-x="610" 
d="M577 520l-64 -524q-7 -54 -37 -95.5t-71.5 -63t-83 -32t-79.5 -10.5q-18 0 -33.5 1.5t-29.5 4.5t-24 5.5t-21.5 7.5t-16.5 7.5l-15 7.5l-12 6l10 117q69 -40 144 -40q56 0 92 28t40 64l6 48q-10 -21 -50 -40t-88 -19q-43 0 -84 17.5t-74.5 50t-49.5 86.5t-8 121
q15 121 97 189.5t172 68.5q85 0 135 -54l8 48h137zM416 268q8 74 -21 107t-81 33t-97.5 -43t-54.5 -113q-7 -65 24.5 -103t78.5 -38q56 0 98 38.5t53 118.5z" />
    <glyph glyph-name="h" unicode="h" horiz-adv-x="614" 
d="M358 525q99 0 155 -59t42 -176l-35 -290h-137l35 289q9 65 -11 92t-65 27q-40 0 -77.5 -27t-55.5 -53t-23 -42l-35 -286h-137l86 700h137l-34 -277q8 32 50 67t105 35z" />
    <glyph glyph-name="i" unicode="i" horiz-adv-x="264" 
d="M248 700l-14 -122h-140l15 122h139zM226 520l-64 -520h-139l64 520h139z" />
    <glyph glyph-name="j" unicode="j" horiz-adv-x="284" 
d="M264 700l-15 -122h-137l15 122h137zM-105 -179l12 133q12 -3 31.5 -9.5t30.5 -9t21 -2.5q21 0 34 20.5t16 43.5l65 523h137l-71 -574q-19 -151 -166 -151q-45 0 -110 26z" />
    <glyph glyph-name="k" unicode="k" horiz-adv-x="620" 
d="M315 280l235 -280h-164l-160 197l-47 -43l-19 -154h-137l11 91l10 96l2 2l63 511h137l-45 -365l196 185h175z" />
    <glyph glyph-name="l" unicode="l" horiz-adv-x="271" 
d="M23 0l86 700h139l-86 -700h-139z" />
    <glyph glyph-name="m" unicode="m" horiz-adv-x="998" 
d="M735 525q108 0 165.5 -62.5t40.5 -196.5l-32 -266h-139l34 273q9 66 -13 101.5t-63 35.5q-103 0 -157 -119l-3 -25l-32 -266h-138l33 273q9 67 -13 102t-65 35q-58 0 -94 -37.5t-60 -99.5l16 143q2 33 44 71t102 38q158 0 199 -119q11 40 60 79.5t115 39.5zM227 520
l-64 -520h-138l64 520h138z" />
    <glyph glyph-name="n" unicode="n" horiz-adv-x="622" 
d="M369 525q99 0 155.5 -59t42.5 -176l-36 -290h-137l35 289q9 65 -11 92t-65 27q-57 0 -100.5 -44t-55.5 -77l-35 -287h-137l64 520h137l-12 -97q9 33 50.5 67.5t104.5 34.5z" />
    <glyph glyph-name="o" unicode="o" horiz-adv-x="603" 
d="M315 526q43 0 87 -17.5t81.5 -50t57 -87t11.5 -120.5q-8 -63 -39.5 -114.5t-75 -81.5t-89 -46t-86.5 -16q-43 0 -87 17t-81 49.5t-57 86.5t-11 120q14 121 105.5 190.5t183.5 69.5zM418 266q7 67 -25 104t-80 37q-52 0 -97.5 -42t-55.5 -114q-8 -66 24 -102.5t80 -36.5
q52 0 98.5 41.5t55.5 112.5z" />
    <glyph glyph-name="p" unicode="p" horiz-adv-x="629" 
d="M373 526q94 0 162.5 -73.5t53.5 -200.5q-10 -84 -55.5 -145t-101 -87.5t-112.5 -26.5q-52 0 -90.5 22t-44.5 46l-31 -251h-137l87 710h137l-7 -43q59 49 139 49zM455 268q7 64 -24.5 102t-78.5 38q-56 0 -98 -38t-53 -118q-8 -74 21 -107.5t81 -33.5t97.5 43t54.5 114z
" />
    <glyph glyph-name="q" unicode="q" 
d="M577 520l-87 -710h-137l29 242q-10 -21 -50 -40t-88 -19q-43 0 -84 17.5t-74.5 50t-49.5 86.5t-8 121q15 121 97 189.5t172 68.5q85 0 135 -54l8 48h137zM416 268q8 74 -21 107t-81 33t-97.5 -43t-54.5 -113q-7 -65 24.5 -103t78.5 -38q56 0 98 38.5t53 118.5z" />
    <glyph glyph-name="r" unicode="r" horiz-adv-x="461" 
d="M393 525q28 0 58 -3l-8 -127q-25 1 -53 1q-61 1 -123.5 -50t-79.5 -123l-28 -223h-136l64 520h136l-20 -161q18 72 69 119t121 47z" />
    <glyph glyph-name="s" unicode="s" horiz-adv-x="493" 
d="M227 331l72 -22q34 -10 55.5 -20t44 -28.5t31 -46.5t3.5 -67q-8 -71 -77 -112.5t-147 -41.5q-72 0 -132 38t-69 101l123 29q7 -27 31 -38.5t49 -11.5q29 0 53.5 14.5t27.5 34.5q0 9 -1 14.5t-10 13.5t-26 14l-63 19q-76 23 -109.5 60t-25.5 101q8 65 71 104.5t133 39.5
q141 0 184 -125l-128 -30q-15 39 -58 39q-23 0 -40 -11.5t-20 -30.5q-2 -26 28 -37z" />
    <glyph glyph-name="t" unicode="t" horiz-adv-x="389" 
d="M238 403l-30 -245q-8 -46 30 -46q36 0 73 13l-9 -114q-36 -17 -99 -17q-70 0 -106.5 37t-24.5 133l29 239h-70l14 117h70l11 90h137l-11 -90h109l-14 -117h-109z" />
    <glyph glyph-name="u" unicode="u" horiz-adv-x="613" 
d="M570 520l-64 -520h-136l12 97q-19 -37 -64 -70.5t-101 -33.5q-92 0 -145 58t-39 174l37 295h136l-37 -294q-8 -60 10.5 -87.5t52.5 -27.5q55 0 105.5 47t62.5 87l34 275h136z" />
    <glyph glyph-name="v" unicode="v" horiz-adv-x="624" 
d="M279 0h-22l-214 520h142l109 -286l180 286h148z" />
    <glyph glyph-name="w" unicode="w" horiz-adv-x="901" 
d="M587 0h-15l-128 298l-204 -298h-15l-182 520h138l94 -265l186 265h19l119 -265l160 265h139z" />
    <glyph glyph-name="x" unicode="x" horiz-adv-x="613" 
d="M372 274l171 -274h-148l-109 174l-151 -174h-154l241 277l-151 243h148l89 -143l125 143h153z" />
    <glyph glyph-name="y" unicode="y" horiz-adv-x="605" 
d="M607 520l-375 -710h-137l109 207l-156 503h132l107 -345l182 345h138z" />
    <glyph glyph-name="z" unicode="z" horiz-adv-x="559" 
d="M486 118l-15 -118h-480l294 403h-234l15 117h471l-294 -402h243z" />
    <glyph glyph-name="braceleft" unicode="{" horiz-adv-x="342" 
d="M168 306l44 -66l-27 -226q-1 -15 6 -21t23 -6h39l-15 -117h-94q-43 0 -74.5 26t-23.5 88l31 251l-37 71l53 73l33 260q12 106 117 106h102l-14 -117h-31q-16 0 -29 -10t-14 -25l-26 -219z" />
    <glyph glyph-name="bar" unicode="|" horiz-adv-x="268" 
d="M248 800l-122 -990h-117l121 990h118z" />
    <glyph glyph-name="braceright" unicode="}" horiz-adv-x="342" 
d="M119 374l26 227q3 15 -3.5 21t-23.5 6h-39l14 117h94q25 0 47.5 -8.5t40 -35.5t12.5 -70l-32 -252l37 -73l-53 -71l-33 -259q-14 -106 -118 -106h-102l15 117h31q16 0 28.5 10t14.5 25l25 218l65 66z" />
    <glyph glyph-name="asciitilde" unicode="~" horiz-adv-x="526" 
d="M429 328h52q0 -56 -33 -93t-94 -37q-43 0 -109.5 40t-96.5 40q-23 0 -38 -9.5t-14 -23.5h-51q0 56 32.5 92.5t96.5 36.5q43 0 107.5 -35t93.5 -35q23 0 38.5 7t15.5 17z" />
    <glyph glyph-name="exclamdown" unicode="&#xa1;" horiz-adv-x="258" 
d="M101 520h151l-18 -150h-152zM168 -180h-154l58 477h154z" />
    <glyph glyph-name="cent" unicode="&#xa2;" horiz-adv-x="551" 
d="M351 469l-34 -275q37 12 55 37l117 -56q-36 -43 -86 -69.5t-101 -34.5l-14 -111h-118l15 121q-77 25 -124 90.5t-35 164.5q10 97 74 160t146 84l15 120h118l-14 -115q49 -10 92.5 -37.5t67.5 -69.5l-124 -46q-16 28 -50 37zM160 321q-10 -80 41 -116l29 240
q-59 -43 -70 -124z" />
    <glyph glyph-name="sterling" unicode="&#xa3;" horiz-adv-x="619" 
d="M371 707q95 0 163.5 -60.5t57.5 -152.5l-2 -14h-137l4 22q7 88 -88 88q-109 0 -120 -105q-8 -57 20 -111h129l-14 -103h-79q1 -9 -1 -28q-8 -64 -65 -130l296 3l-14 -118h-520v23q98 110 127 150.5t35 81.5q1 6 1 18h-77l14 103h30q-30 67 -23 127q13 93 92 149.5
t171 56.5z" />
    <glyph glyph-name="currency" unicode="&#xa4;" horiz-adv-x="532" 
d="M451 476q0 -49 -21 -96l47 -47l-84 -82l-40 40q-56 -39 -126 -39q-67 0 -123 37l-38 -38l-83 82l43 43q-23 46 -23 100q0 55 25 103l-45 45l83 83l41 -41q57 34 120 34q67 0 123 -36l43 43l84 -83l-49 -49q23 -46 23 -99zM227 362q59 0 87 38t28 76t-28.5 76t-86.5 38
t-85.5 -38t-27.5 -76q0 -39 27.5 -76.5t85.5 -37.5z" />
    <glyph glyph-name="yen" unicode="&#xa5;" horiz-adv-x="748" 
d="M423 314h99l-12 -104h-100l-5 -38h100l-12 -104h-101l-9 -68h-137l9 68h-59l12 104h60l5 38h-60l12 104h61l-218 386h153l145 -262l210 262h159z" />
    <glyph glyph-name="brokenbar" unicode="&#xa6;" horiz-adv-x="268" 
d="M248 800l-34 -280h-118l34 280h118zM161 90l-35 -280h-117l34 280h118z" />
    <glyph glyph-name="section" unicode="&#xa7;" horiz-adv-x="620" 
d="M559 208q-5 -45 -38 -93q22 -47 13 -105q-11 -92 -97 -148.5t-183 -56.5q-105 0 -173.5 65.5t-76.5 167.5l148 37q-2 -61 26 -95t81 -34q50 0 86.5 22t41.5 58q3 31 -15 48.5t-56 31.5l-84 29q-172 57 -155 209q7 42 40 98q-21 48 -14 105q10 85 85 141t171 56
q110 0 176.5 -66.5t70.5 -154.5l-155 -36q16 42 -11 79t-85 37q-43 0 -72 -20.5t-32 -51.5q-4 -24 9 -39t49 -26l68 -25q202 -65 182 -233zM285 265l68 -24q48 -17 70 -21l-12 3q6 58 -70 85l-85 26q-22 9 -31 8q0 -2 1 -6t0 -8q-6 -45 59 -63z" />
    <glyph glyph-name="dieresis" unicode="&#xa8;" horiz-adv-x="404" 
d="M189 715l-17 -145h-144l16 145h145zM448 715l-16 -145h-145l17 145h144z" />
    <glyph glyph-name="copyright" unicode="&#xa9;" horiz-adv-x="794" 
d="M435 707q140 0 235 -104.5t75 -260.5q-9 -75 -46 -141.5t-90.5 -111t-118.5 -70.5t-130 -26q-66 0 -126.5 27t-105 74t-67 116.5t-12.5 147.5q12 100 72.5 181.5t144 124.5t169.5 43zM594 358q11 96 -34.5 153.5t-128.5 57.5t-149.5 -63.5t-79.5 -163.5
q-12 -94 36.5 -152.5t127.5 -58.5q87 0 151 62.5t77 164.5zM396 289q22 0 43 18l78 -93q-51 -51 -122 -51q-76 0 -125.5 55t-39.5 140q9 78 68 128.5t129 50.5q73 0 119 -55l-90 -85q-12 13 -33 13q-23 0 -41 -19t-22 -49q-3 -53 36 -53z" />
    <glyph glyph-name="ordfeminine" unicode="&#xaa;" horiz-adv-x="428" 
d="M367 554l-12 -96q-4 -29 -0.5 -44t17.5 -40l-86 5q-11 7 -13 38q-37 -42 -93 -42q-64 0 -99 29t-28 84q6 46 47.5 72t100.5 31l77 10q3 21 -9.5 29.5t-34.5 8.5q-45 0 -101 -48l-51 57q23 31 62.5 49t85.5 18q75 0 111 -42t26 -119zM177 450q58 0 89 56l6 15
q-12 -2 -71 -8q-26 -1 -42 -13.5t-18 -26.5q-1 -9 7 -16t29 -7z" />
    <glyph glyph-name="guillemotleft" unicode="&#xab;" horiz-adv-x="465" 
d="M85 309l88 -95l-14 -113l-149 81l30 253l170 81l-14 -113zM320 309l88 -95l-14 -113l-149 81l30 253l170 81l-14 -113z" />
    <glyph glyph-name="logicalnot" unicode="&#xac;" horiz-adv-x="519" 
d="M331 302l-14 -112h-292l14 112h292zM468 302l-22 -183h-137l22 183h137z" />
    <glyph glyph-name="softhyphen" unicode="&#xad;" horiz-adv-x="400" 
d="M310 331l-13 -112h-310l13 112h310z" />
    <glyph glyph-name="registered" unicode="&#xae;" horiz-adv-x="794" 
d="M435 707q140 0 235 -104.5t75 -260.5q-9 -75 -46 -141.5t-90.5 -111t-118.5 -70.5t-130 -26q-66 0 -126.5 27t-105 74t-67 116.5t-12.5 147.5q12 100 72.5 181.5t144 124.5t169.5 43zM594 358q11 96 -34.5 153.5t-128.5 57.5q-68 0 -125 -43h96q59 0 95 -32.5t31 -82.5
q-5 -43 -24 -66.5t-60 -33.5l60 -129q75 64 90 176zM202 342q-12 -94 36.5 -152.5t127.5 -58.5q75 0 135 49h-113l-26 69l-9 -69h-104l43 335q-75 -65 -90 -173zM379 400h14q11 0 20 8t11 19q0 13 -18 13h-22z" />
    <glyph glyph-name="macron" unicode="&#xaf;" horiz-adv-x="377" 
d="M420 700l-15 -117h-377l15 117h377z" />
    <glyph glyph-name="degree" unicode="&#xb0;" horiz-adv-x="388" 
d="M209 424q-63 0 -103 46t-33 110q8 57 54.5 98t105.5 41q63 0 103.5 -45.5t33.5 -108.5q-7 -58 -54.5 -99.5t-106.5 -41.5zM208 521q29 0 45 20t18 39q1 6 0 14t-10.5 17.5t-27.5 9.5q-29 0 -44.5 -20t-16.5 -36q-1 -7 0 -15.5t9.5 -18.5t26.5 -10z" />
    <glyph glyph-name="plusminus" unicode="&#xb1;" horiz-adv-x="425" 
d="M133 233h-103l13 113h104l15 118h112l-14 -118h118l-13 -113h-119l-13 -104h-113zM43 114h335l-13 -113h-335z" />
    <glyph glyph-name="twosuperior" unicode="&#xb2;" horiz-adv-x="261" 
d="M-24 472l76 71q32 30 41.5 39.5t19 24t11.5 30.5t-8 26t-27 10q-20 0 -38.5 -15t-21.5 -39l-1 -10h-37l2 18q4 35 29 56t58 21q36 0 60.5 -25.5t19.5 -57.5q-2 -16 -12.5 -32.5t-21.5 -28.5t-42 -41l-56 -47h117l-4 -32h-168z" />
    <glyph glyph-name="threesuperior" unicode="&#xb3;" horiz-adv-x="273" 
d="M128 578q16 -6 26.5 -24.5t7.5 -45.5q-4 -31 -31.5 -51.5t-63.5 -20.5q-43 0 -68.5 29t-17.5 66l37 -8q-9 -23 3.5 -39t36.5 -16t44 16t23 40q3 25 -13.5 33.5t-51.5 2.5l-4 32q66 3 73 51q2 12 -7.5 20.5t-25.5 8.5q-23 0 -41 -18t-19 -44l-37 8q1 37 26.5 61t61.5 24
q34 0 57.5 -23.5t19.5 -52.5q-3 -27 -36 -49z" />
    <glyph glyph-name="acute" unicode="&#xb4;" horiz-adv-x="236" 
d="M154 622l132 145h-190l-62 -145h120z" />
    <glyph glyph-name="paragraph" unicode="&#xb6;" horiz-adv-x="898" 
d="M487 700l-15 -120h-115q-124 0 -135 -88q-6 -55 27 -77.5t92 -22.5h108l-15 -121h-124q-115 0 -176.5 58.5t-50.5 147.5q11 94 92 158.5t196 64.5h116zM487 700h141l-86 -700h-141zM734 700h137l-86 -700h-137z" />
    <glyph glyph-name="periodcentered" unicode="&#xb7;" horiz-adv-x="258" 
d="M146 355l-18 -149h-152l18 149h152z" />
    <glyph glyph-name="cedilla" unicode="&#xb8;" horiz-adv-x="229" 
d="M149 1l-58 -55q37 -11 60 -39.5t19 -65.5q-14 -105 -224 -89l14 41q101 12 105 63q2 13 -6.5 21.5t-24 6.5t-29.5 -19l-33 56l57 80h120z" />
    <glyph glyph-name="onesuperior" unicode="&#xb9;" horiz-adv-x="200" 
d="M50 440h-37l28 221l-17 -11l-16 31l35 20h39z" />
    <glyph glyph-name="ordmasculine" unicode="&#xba;" horiz-adv-x="409" 
d="M242 705q61 0 106 -47.5t36 -123.5q-8 -70 -60 -113t-109 -43q-61 0 -106.5 48t-36.5 124q9 70 61 112.5t109 42.5zM299 551q3 26 -14.5 45.5t-40.5 19.5q-28 0 -56 -24t-32 -56q-3 -27 14.5 -47t42.5 -20q28 0 55 24.5t31 57.5z" />
    <glyph glyph-name="guillemotright" unicode="&#xbb;" horiz-adv-x="465" 
d="M4 516l149 -81l-30 -253l-170 -81l14 113l111 95l-88 94zM372 516l149 -81l-30 -253l-170 -81l14 113l111 95l-88 94z" />
    <glyph glyph-name="onequarter" unicode="&#xbc;" horiz-adv-x="569" 
d="M25 440h-37l28 221l-17 -11l-16 31l36 20h38zM-62 0l522 700h44l-516 -700h-50zM440 76l-9 -76h-37l9 76h-133l155 185h38l-19 -154h27l-4 -31h-27zM420 202l-77 -95h64z" />
    <glyph glyph-name="onehalf" unicode="&#xbd;" horiz-adv-x="544" 
d="M25 440h-37l28 221l-17 -11l-16 31l36 20h38zM-62 0l522 700h44l-516 -700h-50zM268 32l76 71q32 30 41.5 39.5t19 24t11.5 30.5t-8 26t-27 10q-20 0 -38.5 -15t-21.5 -39l-1 -10h-37l2 18q4 35 29 56t58 21q36 0 60.5 -25.5t19.5 -57.5q-2 -16 -12.5 -32.5t-21.5 -28.5
t-42 -41l-56 -47h117l-4 -32h-168z" />
    <glyph glyph-name="threequarters" unicode="&#xbe;" horiz-adv-x="587" 
d="M108 578q16 -6 26.5 -24.5t7.5 -45.5q-4 -31 -31.5 -51.5t-63.5 -20.5q-43 0 -68.5 29t-17.5 66l37 -8q-9 -23 3.5 -39t36.5 -16t44 16t23 40q3 25 -13.5 33.5t-51.5 2.5l-4 32q66 3 73 51q2 12 -7.5 20.5t-25.5 8.5q-23 0 -41 -18t-19 -44l-37 8q1 37 26.5 61t61.5 24
q34 0 57.5 -23.5t19.5 -52.5q-3 -27 -36 -49zM-34 0l522 700h44l-516 -700h-50zM458 76l-9 -76h-37l9 76h-133l155 185h38l-19 -154h27l-4 -31h-27zM438 202l-77 -95h64z" />
    <glyph glyph-name="questiondown" unicode="&#xbf;" horiz-adv-x="560" 
d="M335 370h-152l18 150h152zM316 301v1v-1zM340 32l138 8q-9 -68 -53.5 -121.5t-103 -79.5t-118.5 -26q-91 0 -150.5 55.5t-48.5 147.5q5 42 23 73.5t40 51.5l44.5 39.5t40 48t22.5 66.5l-1 6h143q-6 -46 -24.5 -82t-42 -58t-46 -41t-40 -41t-20.5 -48q-4 -13 -1 -30.5
t9 -33t27 -26.5t53 -11q53 0 78 30.5t31 71.5z" />
    <glyph glyph-name="Agrave" unicode="&#xc0;" horiz-adv-x="761" 
d="M388 802l-95 145h195l25 -145h-125zM482 180h-239l-104 -180h-156l429 700h22l257 -700h-150zM443 299l-48 144l-83 -144h131z" />
    <glyph glyph-name="Aacute" unicode="&#xc1;" horiz-adv-x="761" 
d="M496 802h-120l62 145h190zM482 180h-239l-104 -180h-156l429 700h22l257 -700h-150zM443 299l-48 144l-83 -144h131z" />
    <glyph glyph-name="Acircumflex" unicode="&#xc2;" horiz-adv-x="761" 
d="M351 788h-116l101 159h252l62 -159h-110l-80 99zM482 180h-239l-104 -180h-156l429 700h22l257 -700h-150zM443 299l-48 144l-83 -144h131z" />
    <glyph glyph-name="Atilde" unicode="&#xc3;" horiz-adv-x="761" 
d="M350 830q-17 0 -34.5 -11.5t-18.5 -24.5l-49 7q6 55 39 90t89 35q40 0 95 -35t76 -35q18 0 35.5 9t18.5 19l52 -8q-8 -55 -40.5 -90.5t-85.5 -35.5q-32 0 -65 20t-62 40t-50 20zM482 180h-239l-104 -180h-156l429 700h22l257 -700h-150zM443 299l-48 144l-83 -144h131z
" />
    <glyph glyph-name="Adieresis" unicode="&#xc4;" horiz-adv-x="761" 
d="M383 750h-144l16 145h145zM643 750h-145l17 145h144zM482 180h-239l-104 -180h-156l429 700h22l257 -700h-150zM443 299l-48 144l-83 -144h131z" />
    <glyph glyph-name="Aring" unicode="&#xc5;" horiz-adv-x="761" 
d="M450 769q-48 0 -79 35t-26 82q5 43 39 73t79 30q47 0 77.5 -35t24.5 -83q-5 -42 -39 -72t-76 -30zM428 879q-1 -10 6 -17.5t17 -7.5q12 0 20.5 8t10.5 19t-5.5 18.5t-18.5 7.5q-26 0 -30 -28zM482 180h-239l-104 -180h-156l429 700h22l257 -700h-150zM443 299l-48 144
l-83 -144h131z" />
    <glyph glyph-name="AE" unicode="&#xc6;" horiz-adv-x="959" 
d="M610 695l-34 -282h227l-15 -123h-227l5 41l-26 -208h338l-15 -123h-483l23 188h-139l-128 -188h-153l479 700h477l-15 -123h-328zM433 436l-89 -131h73z" />
    <glyph glyph-name="Ccedilla" unicode="&#xc7;" horiz-adv-x="649" 
d="M481 190l81 -112q-87 -72 -193 -83l-52 -49q37 -11 60 -39.5t19 -65.5q-14 -105 -224 -89l14 41q101 12 105 63q2 13 -6.5 21.5t-24 6.5t-29.5 -19l-33 56l57 80h9q-114 27 -184.5 124.5t-53.5 230.5q9 76 46 142.5t90.5 111.5t118 71t128.5 26q128 0 215 -89l-97 -103
q-49 56 -120 56q-82 0 -149.5 -67t-80.5 -162q-10 -90 38 -151.5t126 -61.5q71 0 140 61z" />
    <glyph glyph-name="Egrave" unicode="&#xc8;" horiz-adv-x="584" 
d="M302 802l-95 145h195l25 -145h-125zM91 700h145l-35 -287h227l-15 -123h-227l5 41l-26 -208h337l-14 -123h-483zM221 577l15 123h328l-15 -123h-328z" />
    <glyph glyph-name="Eacute" unicode="&#xc9;" horiz-adv-x="584" 
d="M411 802h-120l62 145h190zM91 700h145l-35 -287h227l-15 -123h-227l5 41l-26 -208h337l-14 -123h-483zM221 577l15 123h328l-15 -123h-328z" />
    <glyph glyph-name="Ecircumflex" unicode="&#xca;" horiz-adv-x="584" 
d="M265 788h-116l101 159h252l62 -159h-110l-80 99zM91 700h145l-35 -287h227l-15 -123h-227l5 41l-26 -208h337l-14 -123h-483zM236 700h328l-15 -123h-328z" />
    <glyph glyph-name="Edieresis" unicode="&#xcb;" horiz-adv-x="584" 
d="M297 750h-144l16 145h145zM557 750h-145l17 145h144zM91 700h145l-35 -287h227l-15 -123h-227l5 41l-26 -208h337l-14 -123h-483zM236 700h328l-15 -123h-328z" />
    <glyph glyph-name="Igrave" unicode="&#xcc;" horiz-adv-x="265" 
d="M236 947h-195l95 -145h125zM18 0l86 700h143l-86 -700h-143z" />
    <glyph glyph-name="Iacute" unicode="&#xcd;" horiz-adv-x="265" 
d="M245 802l132 145h-190l-62 -145h120zM18 0l86 700h143l-86 -700h-143z" />
    <glyph glyph-name="Icircumflex" unicode="&#xce;" horiz-adv-x="265" 
d="M208 887l-109 -99h-116l101 159h252l62 -159h-110zM18 0l86 700h143l-86 -700h-143z" />
    <glyph glyph-name="Idieresis" unicode="&#xcf;" horiz-adv-x="265" 
d="M148 895l-17 -145h-144l16 145h145zM407 895l-16 -145h-145l17 145h144zM18 0l86 700h143l-86 -700h-143z" />
    <glyph glyph-name="Eth" unicode="&#xd0;" horiz-adv-x="814" 
d="M191 700h239q92 0 168.5 -47.5t116.5 -129.5t28 -177q-18 -145 -133.5 -245.5t-257.5 -100.5h-106l15 119h98q93 0 162 69.5t82 173.5q12 93 -37.5 156t-142.5 63h-106l-22 -182h88l-13 -112h-89l-35 -287h-141l35 287h-80l13 112h81z" />
    <glyph glyph-name="Ntilde" unicode="&#xd1;" horiz-adv-x="684" 
d="M562 884l52 -8q-8 -55 -41 -90.5t-85 -35.5q-32 0 -65 20t-62 40t-50 20q-17 0 -34.5 -11.5t-18.5 -24.5l-49 7q6 55 39 90t89 35q40 0 95 -35t76 -35q18 0 35.5 9t18.5 19zM573 0h-12l-347 370l-46 -370h-143l86 700h10l348 -369l47 369h143z" />
    <glyph glyph-name="Ograve" unicode="&#xd2;" horiz-adv-x="781" 
d="M490 947h-195l95 -145h125zM421 707q140 0 234 -104.5t74 -260.5q-12 -100 -70.5 -181.5t-142 -124.5t-170.5 -43q-65 0 -125.5 27t-104.5 74t-66 116.5t-12 147.5q12 100 72 181.5t143 124.5t168 43zM575 358q11 97 -32 155t-125 58t-146.5 -64t-77.5 -165
q-12 -95 34 -154t124 -59q86 0 148 63t75 166z" />
    <glyph glyph-name="Oacute" unicode="&#xd3;" horiz-adv-x="781" 
d="M499 802l132 145h-190l-62 -145h120zM421 707q140 0 234 -104.5t74 -260.5q-12 -100 -70.5 -181.5t-142 -124.5t-170.5 -43q-65 0 -125.5 27t-104.5 74t-66 116.5t-12 147.5q12 100 72 181.5t143 124.5t168 43zM575 358q11 97 -32 155t-125 58t-146.5 -64t-77.5 -165
q-12 -95 34 -154t124 -59q86 0 148 63t75 166z" />
    <glyph glyph-name="Ocircumflex" unicode="&#xd4;" horiz-adv-x="781" 
d="M462 887l-109 -99h-116l101 159h252l62 -159h-110zM421 707q140 0 234 -104.5t74 -260.5q-12 -100 -70.5 -181.5t-142 -124.5t-170.5 -43q-65 0 -125.5 27t-104.5 74t-66 116.5t-12 147.5q12 100 72 181.5t143 124.5t168 43zM575 358q11 97 -32 155t-125 58t-146.5 -64
t-77.5 -165q-12 -95 34 -154t124 -59q86 0 148 63t75 166z" />
    <glyph glyph-name="Otilde" unicode="&#xd5;" horiz-adv-x="781" 
d="M604 884l52 -8q-8 -55 -41 -90.5t-85 -35.5q-32 0 -65 20t-62 40t-50 20q-17 0 -34.5 -11.5t-18.5 -24.5l-49 7q6 55 39 90t89 35q40 0 95 -35t76 -35q18 0 35.5 9t18.5 19zM421 707q140 0 234 -104.5t74 -260.5q-12 -100 -70.5 -181.5t-142 -124.5t-170.5 -43
q-65 0 -125.5 27t-104.5 74t-66 116.5t-12 147.5q12 100 72 181.5t143 124.5t168 43zM575 358q11 97 -32 155t-125 58t-146.5 -64t-77.5 -165q-12 -95 34 -154t124 -59q86 0 148 63t75 166z" />
    <glyph glyph-name="Odieresis" unicode="&#xd6;" horiz-adv-x="781" 
d="M402 895l-17 -145h-144l16 145h145zM661 895l-16 -145h-145l17 145h144zM421 707q140 0 234 -104.5t74 -260.5q-12 -100 -70.5 -181.5t-142 -124.5t-170.5 -43q-65 0 -125.5 27t-104.5 74t-66 116.5t-12 147.5q12 100 72 181.5t143 124.5t168 43zM575 358q11 97 -32 155
t-125 58t-146.5 -64t-77.5 -165q-12 -95 34 -154t124 -59q86 0 148 63t75 166z" />
    <glyph glyph-name="multiply" unicode="&#xd7;" horiz-adv-x="407" 
d="M269 281l74 -83l-88 -80l-74 84l-81 -73l-75 78l85 76l-66 74l88 78l66 -74l94 85l71 -80z" />
    <glyph glyph-name="Oslash" unicode="&#xd8;" horiz-adv-x="794" 
d="M658 745l-48 -100q66 -50 98.5 -128.5t20.5 -174.5q-12 -100 -70.5 -181.5t-142 -124.5t-170.5 -43q-22 0 -45 3l-23 -46h-153l47 97q-72 49 -109 130t-25 181t72 181.5t143 124.5t168 43q33 0 63 -6l21 44h153zM194 342q-13 -101 40 -162l187 391h-3q-82 0 -146.5 -64
t-77.5 -165zM575 358q12 92 -29 151l-182 -380q82 5 140 67.5t71 161.5z" />
    <glyph glyph-name="Ugrave" unicode="&#xd9;" horiz-adv-x="696" 
d="M454 947h-195l95 -145h125zM677 700l-56 -453q-10 -77 -57 -136t-113 -88.5t-140 -29.5q-118 0 -196 73t-64 188l55 446h137l-56 -452q-8 -72 28.5 -104.5t97.5 -32.5q63 0 113 36t59 108l55 445h137z" />
    <glyph glyph-name="Uacute" unicode="&#xda;" horiz-adv-x="696" 
d="M463 802l132 145h-190l-62 -145h120zM677 700l-56 -453q-10 -77 -57 -136t-113 -88.5t-140 -29.5q-118 0 -196 73t-64 188l55 446h137l-56 -452q-8 -72 28.5 -104.5t97.5 -32.5q63 0 113 36t59 108l55 445h137z" />
    <glyph glyph-name="Ucircumflex" unicode="&#xdb;" horiz-adv-x="696" 
d="M426 887l-109 -99h-116l101 159h252l62 -159h-110zM677 700l-56 -453q-10 -77 -57 -136t-113 -88.5t-140 -29.5q-118 0 -196 73t-64 188l55 446h137l-56 -452q-8 -72 28.5 -104.5t97.5 -32.5q63 0 113 36t59 108l55 445h137z" />
    <glyph glyph-name="Udieresis" unicode="&#xdc;" horiz-adv-x="696" 
d="M366 895l-17 -145h-144l16 145h145zM625 895l-16 -145h-145l17 145h144zM677 700l-56 -453q-10 -77 -57 -136t-113 -88.5t-140 -29.5q-118 0 -196 73t-64 188l55 446h137l-56 -452q-8 -72 28.5 -104.5t97.5 -32.5q63 0 113 36t59 108l55 445h137z" />
    <glyph glyph-name="Yacute" unicode="&#xdd;" horiz-adv-x="735" 
d="M472 802l132 145h-190l-62 -145h120zM383 0h-137l40 314l-218 386h153l145 -262l210 262h159l-312 -386z" />
    <glyph glyph-name="Thorn" unicode="&#xde;" horiz-adv-x="695" 
d="M238 565h133q127 0 198.5 -61.5t60.5 -159.5q-13 -98 -93.5 -151.5t-210.5 -53.5h-140l-17 -139h-137l86 700h137zM494 360q3 26 -2.5 43t-14.5 26t-29 13.5t-33.5 5t-40.5 0.5h-7h-143l-36 -291l13 100h134q74 0 99 10q51 20 60 93z" />
    <glyph glyph-name="germandbls" unicode="&#xdf;" horiz-adv-x="714" 
d="M492 384q57 -4 96.5 -54t31.5 -113q-26 -217 -308 -217h-56l15 118h58q143 0 154 99q5 38 -16.5 61.5t-53 31t-74.5 7.5h-43l13 117h44q65 0 93 17t33 57q5 36 -30 55.5t-84 19.5q-65 0 -94.5 -24.5t-36.5 -87.5l-58 -471h-137l58 471q13 104 94.5 166.5t187.5 62.5
q103 0 175 -53t62 -139q-6 -51 -46 -88t-78 -36z" />
    <glyph glyph-name="agrave" unicode="&#xe0;" 
d="M303 622l-95 145h195l25 -145h-125zM577 520l-64 -520h-137l6 52q-10 -21 -50 -40t-88 -19q-43 0 -84 17.5t-74.5 50t-49.5 86.5t-8 121q15 121 97 189.5t172 68.5q85 0 135 -54l8 48h137zM416 268q8 74 -21 107t-81 33t-97.5 -43t-54.5 -113q-7 -65 24.5 -103t78.5 -38
q56 0 98 38.5t53 118.5z" />
    <glyph glyph-name="aacute" unicode="&#xe1;" 
d="M412 622h-120l62 145h190zM577 520l-64 -520h-137l6 52q-10 -21 -50 -40t-88 -19q-43 0 -84 17.5t-74.5 50t-49.5 86.5t-8 121q15 121 97 189.5t172 68.5q85 0 135 -54l8 48h137zM416 268q8 74 -21 107t-81 33t-97.5 -43t-54.5 -113q-7 -65 24.5 -103t78.5 -38
q56 0 98 38.5t53 118.5z" />
    <glyph glyph-name="acircumflex" unicode="&#xe2;" 
d="M266 608h-116l101 159h252l62 -159h-110l-80 99zM577 520l-64 -520h-137l6 52q-10 -21 -50 -40t-88 -19q-43 0 -84 17.5t-74.5 50t-49.5 86.5t-8 121q15 121 97 189.5t172 68.5q85 0 135 -54l8 48h137zM416 268q8 74 -21 107t-81 33t-97.5 -43t-54.5 -113
q-7 -65 24.5 -103t78.5 -38q56 0 98 38.5t53 118.5z" />
    <glyph glyph-name="atilde" unicode="&#xe3;" 
d="M266 650q-17 0 -34.5 -11.5t-18.5 -24.5l-49 7q6 55 39 90t89 35q40 0 95 -35t76 -35q18 0 35.5 9t18.5 19l52 -8q-8 -55 -40.5 -90.5t-85.5 -35.5q-32 0 -65 20t-62 40t-50 20zM577 520l-64 -520h-137l6 52q-10 -21 -50 -40t-88 -19q-43 0 -84 17.5t-74.5 50t-49.5 86.5
t-8 121q15 121 97 189.5t172 68.5q85 0 135 -54l8 48h137zM416 268q8 74 -21 107t-81 33t-97.5 -43t-54.5 -113q-7 -65 24.5 -103t78.5 -38q56 0 98 38.5t53 118.5z" />
    <glyph glyph-name="adieresis" unicode="&#xe4;" 
d="M298 570h-144l16 145h145zM558 570h-145l17 145h144zM577 520l-64 -520h-137l6 52q-10 -21 -50 -40t-88 -19q-43 0 -84 17.5t-74.5 50t-49.5 86.5t-8 121q15 121 97 189.5t172 68.5q85 0 135 -54l8 48h137zM416 268q8 74 -21 107t-81 33t-97.5 -43t-54.5 -113
q-7 -65 24.5 -103t78.5 -38q56 0 98 38.5t53 118.5z" />
    <glyph glyph-name="aring" unicode="&#xe5;" 
d="M365 589q-48 0 -79 35t-26 82q5 43 39 73t79 30q47 0 77.5 -35t24.5 -83q-5 -42 -39 -72t-76 -30zM343 699q-1 -10 6 -17.5t17 -7.5q12 0 20.5 8t10.5 19t-5.5 18.5t-18.5 7.5q-12 0 -20 -8t-10 -20zM577 520l-64 -520h-137l6 52q-10 -21 -50 -40t-88 -19q-43 0 -84 17.5
t-74.5 50t-49.5 86.5t-8 121q15 121 97 189.5t172 68.5q85 0 135 -54l8 48h137zM416 268q8 74 -21 107t-81 33t-97.5 -43t-54.5 -113q-7 -65 24.5 -103t78.5 -38q56 0 98 38.5t53 118.5z" />
    <glyph glyph-name="ae" unicode="&#xe6;" horiz-adv-x="985" 
d="M709 526q43 0 86 -17.5t79 -50t55 -87t10 -120.5q-2 -25 -9 -48h-377q5 -44 35.5 -67.5t69.5 -23.5q61 0 105 39l114 -66q-45 -46 -104 -69t-117 -23q-74 0 -139 43l-4 -36h-137l6 52q-10 -21 -50 -40t-88 -19q-43 0 -84 17.5t-74.5 50t-49.5 86.5t-8 121
q15 121 97 189.5t172 68.5q85 0 135 -54l8 48h137l-4 -31q68 37 136 37zM265 111q56 0 98 38.5t53 118.5q8 74 -21 107t-81 33t-97.5 -43t-54.5 -113q-7 -65 24.5 -103t78.5 -38zM568 315l239 8q8 40 -24.5 62t-75.5 22q-40 0 -81 -25t-58 -67z" />
    <glyph glyph-name="ccedilla" unicode="&#xe7;" horiz-adv-x="552" 
d="M265 112q71 0 107 48l117 -57q-69 -86 -183 -106l-54 -51q37 -11 60 -39.5t19 -65.5q-14 -105 -224 -89l14 41q101 12 105 63q2 13 -6.5 21.5t-24 6.5t-29.5 -19l-33 56l57 80h13q-52 14 -93.5 46t-67 89.5t-16.5 129.5q9 84 59.5 145.5t111.5 88t119 26.5q60 0 119 -30
t90 -84l-124 -48q-24 43 -87 43q-53 0 -98.5 -42t-55.5 -114q-9 -66 23 -102.5t82 -36.5z" />
    <glyph glyph-name="egrave" unicode="&#xe8;" horiz-adv-x="600" 
d="M390 767h-195l95 -145h125zM541 203h-377q5 -44 35.5 -67.5t69.5 -23.5q62 0 106 39l113 -66q-91 -92 -221 -92q-43 0 -87 17t-81 49.5t-57 86.5t-11 120q14 121 105.5 190.5t183.5 69.5q43 0 86 -17.5t79.5 -50t55 -87t10.5 -120.5q-1 -21 -10 -48zM179 315l239 8
q8 40 -24.5 62t-75.5 22q-40 0 -80.5 -25t-58.5 -67z" />
    <glyph glyph-name="eacute" unicode="&#xe9;" horiz-adv-x="600" 
d="M398 622l132 145h-190l-62 -145h120zM541 203h-377q5 -44 35.5 -67.5t69.5 -23.5q62 0 106 39l113 -66q-91 -92 -221 -92q-43 0 -87 17t-81 49.5t-57 86.5t-11 120q14 121 105.5 190.5t183.5 69.5q43 0 86 -17.5t79.5 -50t55 -87t10.5 -120.5q-1 -21 -10 -48zM179 315
l239 8q8 40 -24.5 62t-75.5 22q-40 0 -80.5 -25t-58.5 -67z" />
    <glyph glyph-name="ecircumflex" unicode="&#xea;" horiz-adv-x="600" 
d="M361 707l-109 -99h-116l101 159h252l62 -159h-110zM541 203h-377q5 -44 35.5 -67.5t69.5 -23.5q62 0 106 39l113 -66q-91 -92 -221 -92q-43 0 -87 17t-81 49.5t-57 86.5t-11 120q14 121 105.5 190.5t183.5 69.5q43 0 86 -17.5t79.5 -50t55 -87t10.5 -120.5
q-1 -21 -10 -48zM179 315l239 8q8 40 -24.5 62t-75.5 22q-40 0 -80.5 -25t-58.5 -67z" />
    <glyph glyph-name="edieresis" unicode="&#xeb;" horiz-adv-x="600" 
d="M301 715l-17 -145h-144l16 145h145zM560 715l-16 -145h-145l17 145h144zM541 203h-377q5 -44 35.5 -67.5t69.5 -23.5q62 0 106 39l113 -66q-91 -92 -221 -92q-43 0 -87 17t-81 49.5t-57 86.5t-11 120q14 121 105.5 190.5t183.5 69.5q43 0 86 -17.5t79.5 -50t55 -87
t10.5 -120.5q-1 -21 -10 -48zM179 315l239 8q8 40 -24.5 62t-75.5 22q-40 0 -80.5 -25t-58.5 -67z" />
    <glyph glyph-name="igrave" unicode="&#xec;" horiz-adv-x="287" 
d="M228 767h-195l95 -145h125zM233 520l-64 -520h-137l64 520h137z" />
    <glyph glyph-name="iacute" unicode="&#xed;" horiz-adv-x="287" 
d="M237 622l132 145h-190l-62 -145h120zM233 520l-64 -520h-137l64 520h137z" />
    <glyph glyph-name="icircumflex" unicode="&#xee;" horiz-adv-x="287" 
d="M200 707l-109 -99h-116l101 159h252l62 -159h-110zM233 520l-64 -520h-137l64 520h137z" />
    <glyph glyph-name="idieresis" unicode="&#xef;" horiz-adv-x="287" 
d="M140 715l-17 -145h-144l16 145h145zM399 715l-16 -145h-145l17 145h144zM233 520l-64 -520h-137l64 520h137z" />
    <glyph glyph-name="eth" unicode="&#xf0;" horiz-adv-x="638" 
d="M521 569l-7 -1q43 -80 55.5 -157.5t-0.5 -166.5q-15 -124 -96.5 -189t-189.5 -65q-49 0 -92.5 17t-76 49.5t-48 85t-7.5 118.5q15 127 89.5 193.5t186.5 66.5q44 0 66 -13l-24 41l-71 -10l14 108l-32 54h149l15 -26l84 12zM434 260q10 75 -19.5 108.5t-81.5 33.5
q-50 0 -90 -38.5t-50 -119.5q-8 -67 24.5 -101.5t66.5 -34.5q46 0 93.5 39t56.5 113z" />
    <glyph glyph-name="ntilde" unicode="&#xf1;" horiz-adv-x="622" 
d="M270 650q-17 0 -34.5 -11.5t-18.5 -24.5l-49 7q6 55 39 90t89 35q40 0 95 -35t76 -35q18 0 35.5 9t18.5 19l52 -8q-8 -55 -40.5 -90.5t-85.5 -35.5q-32 0 -65 20t-62 40t-50 20zM369 525q99 0 155.5 -59t42.5 -176l-36 -290h-137l35 289q9 65 -11 92t-65 27
q-57 0 -100.5 -44t-55.5 -77l-35 -287h-137l64 520h137l-12 -97q9 33 50.5 67.5t104.5 34.5z" />
    <glyph glyph-name="ograve" unicode="&#xf2;" horiz-adv-x="603" 
d="M384 767h-195l95 -145h125zM315 526q43 0 87 -17.5t81.5 -50t57 -87t11.5 -120.5q-8 -63 -39.5 -114.5t-75 -81.5t-89 -46t-86.5 -16q-43 0 -87 17t-81 49.5t-57 86.5t-11 120q14 121 105.5 190.5t183.5 69.5zM418 266q7 67 -25 104t-80 37q-52 0 -97.5 -42t-55.5 -114
q-8 -66 24 -102.5t80 -36.5q52 0 98.5 41.5t55.5 112.5z" />
    <glyph glyph-name="oacute" unicode="&#xf3;" horiz-adv-x="603" 
d="M393 622l132 145h-190l-62 -145h120zM315 526q43 0 87 -17.5t81.5 -50t57 -87t11.5 -120.5q-8 -63 -39.5 -114.5t-75 -81.5t-89 -46t-86.5 -16q-43 0 -87 17t-81 49.5t-57 86.5t-11 120q14 121 105.5 190.5t183.5 69.5zM418 266q7 67 -25 104t-80 37q-52 0 -97.5 -42
t-55.5 -114q-8 -66 24 -102.5t80 -36.5q52 0 98.5 41.5t55.5 112.5z" />
    <glyph glyph-name="ocircumflex" unicode="&#xf4;" horiz-adv-x="603" 
d="M356 707l-109 -99h-116l101 159h252l62 -159h-110zM315 526q43 0 87 -17.5t81.5 -50t57 -87t11.5 -120.5q-8 -63 -39.5 -114.5t-75 -81.5t-89 -46t-86.5 -16q-43 0 -87 17t-81 49.5t-57 86.5t-11 120q14 121 105.5 190.5t183.5 69.5zM418 266q7 67 -25 104t-80 37
q-52 0 -97.5 -42t-55.5 -114q-8 -66 24 -102.5t80 -36.5q52 0 98.5 41.5t55.5 112.5z" />
    <glyph glyph-name="otilde" unicode="&#xf5;" horiz-adv-x="603" 
d="M498 704l52 -8q-8 -55 -41 -90.5t-85 -35.5q-32 0 -65 20t-62 40t-50 20q-17 0 -34.5 -11.5t-18.5 -24.5l-49 7q6 55 39 90t89 35q40 0 95 -35t76 -35q18 0 35.5 9t18.5 19zM315 526q43 0 87 -17.5t81.5 -50t57 -87t11.5 -120.5q-8 -63 -39.5 -114.5t-75 -81.5t-89 -46
t-86.5 -16q-43 0 -87 17t-81 49.5t-57 86.5t-11 120q14 121 105.5 190.5t183.5 69.5zM418 266q7 67 -25 104t-80 37q-52 0 -97.5 -42t-55.5 -114q-8 -66 24 -102.5t80 -36.5q52 0 98.5 41.5t55.5 112.5z" />
    <glyph glyph-name="odieresis" unicode="&#xf6;" horiz-adv-x="603" 
d="M296 715l-17 -145h-144l16 145h145zM555 715l-16 -145h-145l17 145h144zM315 526q43 0 87 -17.5t81.5 -50t57 -87t11.5 -120.5q-8 -63 -39.5 -114.5t-75 -81.5t-89 -46t-86.5 -16q-43 0 -87 17t-81 49.5t-57 86.5t-11 120q14 121 105.5 190.5t183.5 69.5zM418 266
q7 67 -25 104t-80 37q-52 0 -97.5 -42t-55.5 -114q-8 -66 24 -102.5t80 -36.5q52 0 98.5 41.5t55.5 112.5z" />
    <glyph glyph-name="divide" unicode="&#xf7;" horiz-adv-x="425" 
d="M308 513l-18 -150h-152l18 150h152zM378 331l-13 -112h-335l13 112h335zM269 196l-18 -149h-152l18 149h152z" />
    <glyph glyph-name="oslash" unicode="&#xf8;" horiz-adv-x="605" 
d="M528 578l-54 -112q95 -79 78 -215q-8 -63 -39.5 -114.5t-75 -81.5t-89 -46t-86.5 -16h-15l-20 -43h-139l40 84q-55 34 -84 93t-18 139q14 121 105.5 190.5t183.5 69.5q19 0 46 -5l28 57h139zM160 251q-9 -64 23 -102l124 258q-51 -2 -94.5 -44t-52.5 -112zM418 266
q4 40 -6 70l-103 -216q41 15 71.5 53t37.5 93z" />
    <glyph glyph-name="ugrave" unicode="&#xf9;" horiz-adv-x="613" 
d="M283 622l-95 145h195l25 -145h-125zM570 520l-64 -520h-136l12 97q-19 -37 -64 -70.5t-101 -33.5q-92 0 -145 58t-39 174l37 295h136l-37 -294q-8 -60 10.5 -87.5t52.5 -27.5q55 0 105.5 47t62.5 87l34 275h136z" />
    <glyph glyph-name="uacute" unicode="&#xfa;" horiz-adv-x="613" 
d="M392 622h-120l62 145h190zM570 520l-64 -520h-136l12 97q-19 -37 -64 -70.5t-101 -33.5q-92 0 -145 58t-39 174l37 295h136l-37 -294q-8 -60 10.5 -87.5t52.5 -27.5q55 0 105.5 47t62.5 87l34 275h136z" />
    <glyph glyph-name="ucircumflex" unicode="&#xfb;" horiz-adv-x="613" 
d="M246 608h-116l101 159h252l62 -159h-110l-80 99zM570 520l-64 -520h-136l12 97q-19 -37 -64 -70.5t-101 -33.5q-92 0 -145 58t-39 174l37 295h136l-37 -294q-8 -60 10.5 -87.5t52.5 -27.5q55 0 105.5 47t62.5 87l34 275h136z" />
    <glyph glyph-name="udieresis" unicode="&#xfc;" horiz-adv-x="613" 
d="M278 570h-144l16 145h145zM538 570h-145l17 145h144zM570 520l-64 -520h-136l12 97q-19 -37 -64 -70.5t-101 -33.5q-92 0 -145 58t-39 174l37 295h136l-37 -294q-8 -60 10.5 -87.5t52.5 -27.5q55 0 105.5 47t62.5 87l34 275h136z" />
    <glyph glyph-name="yacute" unicode="&#xfd;" horiz-adv-x="605" 
d="M403 622h-120l62 145h190zM607 520l-375 -710h-137l109 207l-156 503h132l107 -345l182 345h138z" />
    <glyph glyph-name="thorn" unicode="&#xfe;" horiz-adv-x="629" 
d="M373 526q94 0 162.5 -73.5t53.5 -200.5q-10 -84 -55.5 -145t-101 -87.5t-112.5 -26.5q-52 0 -90.5 22t-44.5 46l-31 -251h-137l23 190l86 700h137l-23 -180h1l-6 -39l-1 -4q59 49 139 49zM455 268q7 64 -24.5 102t-78.5 38q-56 0 -98 -38t-53 -118q-8 -74 21 -107.5
t81 -33.5t97.5 43t54.5 114z" />
    <glyph glyph-name="ydieresis" unicode="&#xff;" horiz-adv-x="605" 
d="M289 570h-144l16 145h145zM549 570h-145l17 145h144zM607 520l-375 -710h-137l109 207l-156 503h132l107 -345l182 345h138z" />
    <glyph glyph-name="Amacron" unicode="&#x100;" horiz-adv-x="761" 
d="M629 763h-377l15 117h377zM482 180h-239l-104 -180h-156l429 700h22l257 -700h-150zM443 299l-48 144l-83 -144h131z" />
    <glyph glyph-name="amacron" unicode="&#x101;" 
d="M545 583h-377l15 117h377zM577 520l-64 -520h-137l6 52q-10 -21 -50 -40t-88 -19q-43 0 -84 17.5t-74.5 50t-49.5 86.5t-8 121q15 121 97 189.5t172 68.5q85 0 135 -54l8 48h137zM416 268q8 74 -21 107t-81 33t-97.5 -43t-54.5 -113q-7 -65 24.5 -103t78.5 -38
q56 0 98 38.5t53 118.5z" />
    <glyph glyph-name="Abreve" unicode="&#x102;" horiz-adv-x="761" 
d="M445 751q-82 0 -129.5 63.5t-39.5 132.5h105q1 -31 19 -50.5t49 -19.5q33 0 61 21.5t36 48.5h105q-9 -77 -63.5 -136.5t-142.5 -59.5zM482 180h-239l-104 -180h-156l429 700h22l257 -700h-150zM443 299l-48 144l-83 -144h131z" />
    <glyph glyph-name="abreve" unicode="&#x103;" 
d="M361 571q-82 0 -129.5 63.5t-39.5 132.5h105q1 -31 19 -50.5t49 -19.5q33 0 61 21.5t36 48.5h105q-9 -77 -63.5 -136.5t-142.5 -59.5zM577 520l-64 -520h-137l6 52q-10 -21 -50 -40t-88 -19q-43 0 -84 17.5t-74.5 50t-49.5 86.5t-8 121q15 121 97 189.5t172 68.5
q85 0 135 -54l8 48h137zM416 268q8 74 -21 107t-81 33t-97.5 -43t-54.5 -113q-7 -65 24.5 -103t78.5 -38q56 0 98 38.5t53 118.5z" />
    <glyph glyph-name="Aogonek" unicode="&#x104;" horiz-adv-x="761" 
d="M691 0h-17q-78 -28 -110 -50t-36 -51q-4 -28 21.5 -38t49.5 3l28 -63q-26 -14 -66.5 -14.5t-78.5 10t-63.5 38.5t-20.5 66q10 87 142 99h1l-59 180h-239l-104 -180h-156l429 700h22zM443 299l-48 144l-83 -144h131z" />
    <glyph glyph-name="aogonek" unicode="&#x105;" 
d="M577 520l-64 -520h-6q-78 -28 -110 -50t-36 -51q-4 -28 21.5 -38t49.5 3l28 -63q-26 -14 -66.5 -14.5t-78.5 10t-63.5 38.5t-20.5 66q10 87 142 99h3l6 52q-10 -21 -50 -40t-88 -19q-43 0 -84 17.5t-74.5 50t-49.5 86.5t-8 121q15 121 97 189.5t172 68.5q85 0 135 -54
l8 48h137zM265 111q56 0 98 38.5t53 118.5q8 74 -21 107t-81 33t-97.5 -43t-54.5 -113q-7 -65 24.5 -103t78.5 -38z" />
    <glyph glyph-name="Cacute" unicode="&#x106;" horiz-adv-x="649" 
d="M468 802l132 145h-190l-62 -145h120zM341 129q71 0 140 61l81 -112q-104 -85 -228 -85q-137 0 -232.5 104.5t-75.5 258.5q9 76 46 142.5t90.5 111.5t118 71t128.5 26q128 0 215 -89l-97 -103q-49 56 -120 56q-82 0 -149.5 -67t-80.5 -162q-10 -90 38 -151.5t126 -61.5z
" />
    <glyph glyph-name="cacute" unicode="&#x107;" horiz-adv-x="552" 
d="M369 622l132 145h-190l-62 -145h120zM265 112q71 0 107 48l117 -57q-43 -54 -106 -82t-120 -28q-44 0 -88 17.5t-81 49.5t-56.5 86t-11.5 120q9 84 59.5 145.5t111.5 88t119 26.5q60 0 119 -30t90 -84l-124 -48q-24 43 -87 43q-53 0 -98.5 -42t-55.5 -114
q-9 -66 23 -102.5t82 -36.5z" />
    <glyph glyph-name="Cdotaccent" unicode="&#x10a;" horiz-adv-x="649" 
d="M505 939l-18 -139h-139l17 139h140zM341 129q71 0 140 61l81 -112q-104 -85 -228 -85q-137 0 -232.5 104.5t-75.5 258.5q9 76 46 142.5t90.5 111.5t118 71t128.5 26q128 0 215 -89l-97 -103q-49 56 -120 56q-82 0 -149.5 -67t-80.5 -162q-10 -90 38 -151.5t126 -61.5z
" />
    <glyph glyph-name="cdotaccent" unicode="&#x10b;" horiz-adv-x="552" 
d="M406 759l-18 -139h-139l17 139h140zM265 112q71 0 107 48l117 -57q-43 -54 -106 -82t-120 -28q-44 0 -88 17.5t-81 49.5t-56.5 86t-11.5 120q9 84 59.5 145.5t111.5 88t119 26.5q60 0 119 -30t90 -84l-124 -48q-24 43 -87 43q-53 0 -98.5 -42t-55.5 -114
q-9 -66 23 -102.5t82 -36.5z" />
    <glyph glyph-name="Ccaron" unicode="&#x10c;" horiz-adv-x="649" 
d="M645 961l-101 -159h-252l-62 159h110l83 -99l106 99h116zM341 129q71 0 140 61l81 -112q-104 -85 -228 -85q-137 0 -232.5 104.5t-75.5 258.5q9 76 46 142.5t90.5 111.5t118 71t128.5 26q128 0 215 -89l-97 -103q-49 56 -120 56q-82 0 -149.5 -67t-80.5 -162
q-10 -90 38 -151.5t126 -61.5z" />
    <glyph glyph-name="ccaron" unicode="&#x10d;" horiz-adv-x="552" 
d="M546 781l-101 -159h-252l-62 159h110l83 -99l106 99h116zM265 112q71 0 107 48l117 -57q-43 -54 -106 -82t-120 -28q-44 0 -88 17.5t-81 49.5t-56.5 86t-11.5 120q9 84 59.5 145.5t111.5 88t119 26.5q60 0 119 -30t90 -84l-124 -48q-24 43 -87 43q-53 0 -98.5 -42
t-55.5 -114q-9 -66 23 -102.5t82 -36.5z" />
    <glyph glyph-name="Dcaron" unicode="&#x10e;" horiz-adv-x="725" 
d="M303 802l-62 159h110l83 -99l106 99h116l-101 -159h-252zM118 700h239q92 0 168.5 -47.5t116.5 -129.5t28 -177q-18 -145 -133.5 -245.5t-257.5 -100.5h-106l15 119h98q93 0 162 69.5t82 173.5q12 93 -37.5 156t-142.5 63h-106l-71 -581h-141z" />
    <glyph glyph-name="dcaron" unicode="&#x10f;" horiz-adv-x="919" 
d="M460 700h136l-86 -700h-137l7 52q-11 -21 -51.5 -40t-87.5 -19q-43 0 -84 17.5t-74.5 50t-49.5 86.5t-8 121q15 121 97 189.5t172 68.5q88 0 136 -55zM913 700l-131 -145h-120l62 145h189zM413 268q8 74 -20.5 107t-81.5 33q-52 0 -97 -43t-54 -113q-8 -65 23 -103
t79 -38q56 0 98 38.5t53 118.5z" />
    <glyph glyph-name="Dcroat" unicode="&#x110;" horiz-adv-x="814" 
d="M191 700h239q92 0 168.5 -47.5t116.5 -129.5t28 -177q-18 -145 -133.5 -245.5t-257.5 -100.5h-106l15 119h98q93 0 162 69.5t82 173.5q12 93 -37.5 156t-142.5 63h-106l-22 -182h88l-13 -112h-89l-35 -287h-141l35 287h-80l13 112h81z" />
    <glyph glyph-name="dcroat" unicode="&#x111;" horiz-adv-x="692" 
d="M662 519h-88l-64 -519h-137l7 52q-11 -21 -51.5 -40t-87.5 -19q-43 0 -84 17.5t-74.5 50t-49.5 86.5t-8 121q15 118 94 186.5t168 71.5l14 110h151l8 64h136l-8 -64h89zM436 519h-83q44 -11 77 -48zM413 268q8 74 -20.5 107t-81.5 33q-52 0 -97 -43t-54 -113
q-8 -65 23 -103t79 -38q56 0 98 38.5t53 118.5z" />
    <glyph glyph-name="Emacron" unicode="&#x112;" horiz-adv-x="584" 
d="M544 763h-377l15 117h377zM91 700h145l-35 -287h227l-15 -123h-227l5 41l-26 -208h337l-14 -123h-483zM221 577l15 123h328l-15 -123h-328z" />
    <glyph glyph-name="emacron" unicode="&#x113;" horiz-adv-x="600" 
d="M546 700l-15 -117h-377l15 117h377zM541 203h-377q5 -44 35.5 -67.5t69.5 -23.5q62 0 106 39l113 -66q-91 -92 -221 -92q-43 0 -87 17t-81 49.5t-57 86.5t-11 120q14 121 105.5 190.5t183.5 69.5q43 0 86 -17.5t79.5 -50t55 -87t10.5 -120.5q-1 -21 -10 -48zM179 315
l239 8q8 40 -24.5 62t-75.5 22q-40 0 -80.5 -25t-58.5 -67z" />
    <glyph glyph-name="Edotaccent" unicode="&#x116;" horiz-adv-x="584" 
d="M430 800h-139l17 139h140zM91 700h145l-35 -287h227l-15 -123h-227l5 41l-26 -208h337l-14 -123h-483zM221 577l15 123h328l-15 -123h-328z" />
    <glyph glyph-name="edotaccent" unicode="&#x117;" horiz-adv-x="600" 
d="M435 759l-18 -139h-139l17 139h140zM541 203h-377q5 -44 35.5 -67.5t69.5 -23.5q62 0 106 39l113 -66q-91 -92 -221 -92q-43 0 -87 17t-81 49.5t-57 86.5t-11 120q14 121 105.5 190.5t183.5 69.5q43 0 86 -17.5t79.5 -50t55 -87t10.5 -120.5q-1 -21 -10 -48zM179 315
l239 8q8 40 -24.5 62t-75.5 22q-40 0 -80.5 -25t-58.5 -67z" />
    <glyph glyph-name="Eogonek" unicode="&#x118;" horiz-adv-x="584" 
d="M91 700h145l-35 -287h227l-15 -123h-227l5 41l-26 -208h337l-14 -123h-1q-78 -28 -110 -50t-36 -51q-4 -28 21.5 -38t49.5 3l28 -63q-26 -14 -66.5 -14.5t-78.5 10t-63.5 38.5t-20.5 66q10 87 142 99h-348zM221 577l15 123h328l-15 -123h-328z" />
    <glyph glyph-name="eogonek" unicode="&#x119;" horiz-adv-x="600" 
d="M320 526q43 0 86 -17.5t79.5 -50t55 -87t10.5 -120.5q-1 -21 -10 -48h-377q5 -44 35.5 -67.5t69.5 -23.5q62 0 106 39l113 -66q-63 -65 -156 -85h13q-78 -28 -110 -50t-36 -51q-4 -28 21.5 -38t49.5 3l28 -63q-26 -14 -66.5 -14.5t-78.5 10t-63.5 38.5t-20.5 66
q10 87 142 99q-84 20 -139 89.5t-41 176.5q14 121 105.5 190.5t183.5 69.5zM179 315l239 8q8 40 -24.5 62t-75.5 22q-40 0 -80.5 -25t-58.5 -67z" />
    <glyph glyph-name="Ecaron" unicode="&#x11a;" horiz-adv-x="584" 
d="M235 802l-62 159h110l83 -99l106 99h116l-101 -159h-252zM91 700h145l-35 -287h227l-15 -123h-227l5 41l-26 -208h337l-14 -123h-483zM236 700h328l-15 -123h-328z" />
    <glyph glyph-name="ecaron" unicode="&#x11b;" horiz-adv-x="600" 
d="M575 781l-101 -159h-252l-62 159h110l83 -99l106 99h116zM541 203h-377q5 -44 35.5 -67.5t69.5 -23.5q62 0 106 39l113 -66q-91 -92 -221 -92q-43 0 -87 17t-81 49.5t-57 86.5t-11 120q14 121 105.5 190.5t183.5 69.5q43 0 86 -17.5t79.5 -50t55 -87t10.5 -120.5
q-1 -21 -10 -48zM179 315l239 8q8 40 -24.5 62t-75.5 22q-40 0 -80.5 -25t-58.5 -67z" />
    <glyph glyph-name="Gbreve" unicode="&#x11e;" horiz-adv-x="754" 
d="M451 751q-82 0 -129.5 63.5t-39.5 132.5h105q1 -31 19 -50.5t49 -19.5q33 0 61 21.5t36 48.5h105q-9 -77 -63.5 -136.5t-142.5 -59.5zM662 340l41 -2q-19 -155 -119.5 -250t-234.5 -95q-65 0 -125 27t-104.5 74t-66.5 116.5t-12 147.5q12 100 72 181.5t143 124.5t169 43
q80 0 142.5 -27.5t96.5 -71.5l-101 -94q-41 57 -139 57q-79 0 -152.5 -66.5t-85.5 -160.5q-11 -88 43 -151t128 -63q46 0 88 23.5t71 64.5h-66l15 124h99l1 4l69 -4h28v-2z" />
    <glyph glyph-name="gbreve" unicode="&#x11f;" horiz-adv-x="610" 
d="M361 571q-82 0 -129.5 63.5t-39.5 132.5h105q1 -31 19 -50.5t49 -19.5q33 0 61 21.5t36 48.5h105q-9 -77 -63.5 -136.5t-142.5 -59.5zM577 520l-64 -524q-7 -54 -37 -95.5t-71.5 -63t-83 -32t-79.5 -10.5q-18 0 -33.5 1.5t-29.5 4.5t-24 5.5t-21.5 7.5t-16.5 7.5l-15 7.5
l-12 6l10 117q69 -40 144 -40q56 0 92 28t40 64l6 48q-10 -21 -50 -40t-88 -19q-43 0 -84 17.5t-74.5 50t-49.5 86.5t-8 121q15 121 97 189.5t172 68.5q85 0 135 -54l8 48h137zM416 268q8 74 -21 107t-81 33t-97.5 -43t-54.5 -113q-7 -65 24.5 -103t78.5 -38q56 0 98 38.5
t53 118.5z" />
    <glyph glyph-name="Gdotaccent" unicode="&#x120;" horiz-adv-x="754" 
d="M521 800h-139l17 139h140zM662 340l41 -2q-19 -155 -119.5 -250t-234.5 -95q-65 0 -125 27t-104.5 74t-66.5 116.5t-12 147.5q12 100 72 181.5t143 124.5t169 43q80 0 142.5 -27.5t96.5 -71.5l-101 -94q-41 57 -139 57q-79 0 -152.5 -66.5t-85.5 -160.5q-11 -88 43 -151
t128 -63q46 0 88 23.5t71 64.5h-66l15 124h99l1 4l69 -4h28v-2z" />
    <glyph glyph-name="gdotaccent" unicode="&#x121;" horiz-adv-x="610" 
d="M431 620h-139l17 139h140zM577 520l-64 -524q-7 -54 -37 -95.5t-71.5 -63t-83 -32t-79.5 -10.5q-18 0 -33.5 1.5t-29.5 4.5t-24 5.5t-21.5 7.5t-16.5 7.5l-15 7.5l-12 6l10 117q69 -40 144 -40q56 0 92 28t40 64l6 48q-10 -21 -50 -40t-88 -19q-43 0 -84 17.5t-74.5 50
t-49.5 86.5t-8 121q15 121 97 189.5t172 68.5q85 0 135 -54l8 48h137zM416 268q8 74 -21 107t-81 33t-97.5 -43t-54.5 -113q-7 -65 24.5 -103t78.5 -38q56 0 98 38.5t53 118.5z" />
    <glyph glyph-name="Gcommaaccent" unicode="&#x122;" horiz-adv-x="754" 
d="M662 340l41 -2q-19 -155 -119.5 -250t-234.5 -95q-65 0 -125 27t-104.5 74t-66.5 116.5t-12 147.5q12 100 72 181.5t143 124.5t169 43q80 0 142.5 -27.5t96.5 -71.5l-101 -94q-41 57 -139 57q-79 0 -152.5 -66.5t-85.5 -160.5q-11 -88 43 -151t128 -63q46 0 88 23.5
t71 64.5h-66l15 124h99l1 4l69 -4h28v-2zM241 -60h184l-78 -155h-125z" />
    <glyph glyph-name="gcommaaccent" unicode="&#x123;" horiz-adv-x="641" 
d="M405 578h-184l78 155h125zM577 520l-64 -524q-7 -54 -37 -95.5t-71.5 -63t-83 -32t-79.5 -10.5q-18 0 -33.5 1.5t-29.5 4.5t-24 5.5t-21.5 7.5t-16.5 7.5l-15 7.5l-12 6l10 117q69 -40 144 -40q56 0 92 28t40 64l6 48q-10 -21 -50 -40t-88 -19q-43 0 -84 17.5t-74.5 50
t-49.5 86.5t-8 121q15 121 97 189.5t172 68.5q85 0 135 -54l8 48h137zM416 268q8 74 -21 107t-81 33t-97.5 -43t-54.5 -113q-7 -65 24.5 -103t78.5 -38q56 0 98 38.5t53 118.5z" />
    <glyph glyph-name="Hbar" unicode="&#x126;" horiz-adv-x="745" 
d="M706 700l-86 -700h-141l36 289h-313l9 80l-45 -369h-141l86 700h141l-15 -122h313l15 122h141zM529 409l7 57h-313l-7 -57h313z" />
    <glyph glyph-name="hbar" unicode="&#x127;" horiz-adv-x="672" 
d="M404 525q99 0 155 -59t42 -176l-35 -290h-137l35 289q9 65 -11 92t-65 27q-40 0 -77.5 -27t-55.5 -53t-23 -42l-35 -286h-137l62 502h-77v112h90l11 86h137l-11 -86h66v-102q31 13 66 13zM259 502l-10 -79q4 18 22.5 40.5t45.5 38.5h-58z" />
    <glyph glyph-name="Imacron" unicode="&#x12a;" horiz-adv-x="265" 
d="M393 880l-15 -117h-377l15 117h377zM18 0l86 700h143l-86 -700h-143z" />
    <glyph glyph-name="imacron" unicode="&#x12b;" horiz-adv-x="287" 
d="M385 700l-15 -117h-377l15 117h377zM233 520l-64 -520h-137l64 520h137z" />
    <glyph glyph-name="Iogonek" unicode="&#x12e;" horiz-adv-x="265" 
d="M247 700l-86 -700h-10q-78 -28 -110 -50t-36 -51q-4 -28 21.5 -38t49.5 3l28 -63q-26 -14 -66.5 -14.5t-78.5 10t-63.5 38.5t-20.5 66q10 87 142 99h1l86 700h143z" />
    <glyph glyph-name="iogonek" unicode="&#x12f;" horiz-adv-x="287" 
d="M274 759l-18 -139h-139l17 139h140zM96 520h137l-64 -520q-78 -28 -110 -50t-36 -51q-4 -28 21.5 -38t49.5 3l28 -63q-26 -14 -66.5 -14.5t-78.5 10t-63.5 38.5t-20.5 66q10 87 142 99h-3z" />
    <glyph glyph-name="Idotaccent" unicode="&#x130;" horiz-adv-x="265" 
d="M282 939l-18 -139h-139l17 139h140zM18 0l86 700h143l-86 -700h-143z" />
    <glyph glyph-name="dotlessi" unicode="&#x131;" horiz-adv-x="287" 
d="M233 520l-64 -520h-137l64 520h137z" />
    <glyph glyph-name="IJ" unicode="&#x132;" horiz-adv-x="828" 
d="M18 0l86 700h143l-86 -700h-143zM277 77l98 86q30 -45 95 -45q29 0 48 4.5t42 21t38 55.5t23 100l49 401h137l-54 -439q-17 -139 -96.5 -203.5t-186.5 -64.5q-129 0 -193 84z" />
    <glyph glyph-name="ij" unicode="&#x133;" horiz-adv-x="548" 
d="M248 700l-14 -122h-140l15 122h139zM528 700l-15 -122h-137l15 122h137zM226 520l-64 -520h-139l64 520h139zM160 -179l11 133q12 -3 31.5 -9.5t30.5 -9t21 -2.5q21 0 34 20.5t16 43.5l65 523h137l-71 -574q-19 -151 -166 -151q-46 0 -109 26z" />
    <glyph glyph-name="Kcommaaccent" unicode="&#x136;" horiz-adv-x="769" 
d="M421 350l265 -350h-163l-192 253l-151 -164l14 127l-27 -216h-142l86 700h142l-51 -413l374 413h167zM259 -60h184l-78 -155h-125z" />
    <glyph glyph-name="kcommaaccent" unicode="&#x137;" horiz-adv-x="620" 
d="M315 280l235 -280h-164l-160 197l-47 -43l-19 -154h-137l11 91l10 96l2 2l63 511h137l-45 -365l196 185h175zM185 -60h184l-78 -155h-125z" />
    <glyph glyph-name="Lacute" unicode="&#x139;" horiz-adv-x="639" 
d="M236 800h-120l62 145h189zM514 118l-15 -118h-471l86 700h141l-72 -582h331z" />
    <glyph glyph-name="lacute" unicode="&#x13a;" horiz-adv-x="271" 
d="M251 802l132 145h-190l-62 -145h120zM23 0l86 700h139l-86 -700h-139z" />
    <glyph glyph-name="Lcommaaccent" unicode="&#x13b;" horiz-adv-x="587" 
d="M514 118l-15 -118h-471l86 700h141l-72 -582h331zM185 -60h184l-78 -155h-125z" />
    <glyph glyph-name="lcommaaccent" unicode="&#x13c;" horiz-adv-x="271" 
d="M23 0l86 700h139l-86 -700h-139zM112 -215l78 155h-184l-19 -155h125z" />
    <glyph glyph-name="Lcaron" unicode="&#x13d;" horiz-adv-x="639" 
d="M183 118h331l-15 -118h-471l86 700h141zM444 545h-125l19 155h184z" />
    <glyph glyph-name="lcaron" unicode="&#x13e;" horiz-adv-x="511" 
d="M23 0l86 700h139l-86 -700h-139zM381 545l78 155h-184l-19 -155h125z" />
    <glyph glyph-name="Ldot" unicode="&#x13f;" horiz-adv-x="587" 
d="M514 118l-15 -118h-471l86 700h141l-72 -582h331zM419 293h-152l18 150h152z" />
    <glyph glyph-name="ldot" unicode="&#x140;" horiz-adv-x="468" 
d="M23 0l86 700h139l-86 -700h-139zM370 441l-18 -150h-152l18 150h152z" />
    <glyph glyph-name="Lslash" unicode="&#x141;" horiz-adv-x="695" 
d="M570 118l-15 -118h-471l24 192l-53 -55v138l72 76l43 349h141l-22 -179l51 54h1v-137l-71 -75l-31 -245h331z" />
    <glyph glyph-name="lslash" unicode="&#x142;" horiz-adv-x="382" 
d="M322 426l-55 -58l-45 -368h-139l25 200l-47 -49v139l66 70l42 340h139l-21 -172l34 36h1v-138z" />
    <glyph glyph-name="Nacute" unicode="&#x143;" horiz-adv-x="684" 
d="M458 802l132 145h-190l-62 -145h120zM573 0h-12l-347 370l-46 -370h-143l86 700h10l348 -369l47 369h143z" />
    <glyph glyph-name="nacute" unicode="&#x144;" horiz-adv-x="622" 
d="M416 622h-120l62 145h190zM369 525q99 0 155.5 -59t42.5 -176l-36 -290h-137l35 289q9 65 -11 92t-65 27q-57 0 -100.5 -44t-55.5 -77l-35 -287h-137l64 520h137l-12 -97q9 33 50.5 67.5t104.5 34.5z" />
    <glyph glyph-name="Ncommaaccent" unicode="&#x145;" horiz-adv-x="684" 
d="M573 0h-12l-347 370l-46 -370h-143l86 700h10l348 -369l47 369h143zM319 -215l78 155h-184l-19 -155h125z" />
    <glyph glyph-name="ncommaaccent" unicode="&#x146;" horiz-adv-x="622" 
d="M369 525q99 0 155.5 -59t42.5 -176l-36 -290h-137l35 289q9 65 -11 92t-65 27q-57 0 -100.5 -44t-55.5 -77l-35 -287h-137l64 520h137l-12 -97q9 33 50.5 67.5t104.5 34.5zM193 -60h184l-78 -155h-125z" />
    <glyph glyph-name="Ncaron" unicode="&#x147;" horiz-adv-x="684" 
d="M635 961l-101 -159h-252l-62 159h110l83 -99l106 99h116zM573 0h-12l-347 370l-46 -370h-143l86 700h10l348 -369l47 369h143z" />
    <glyph glyph-name="ncaron" unicode="&#x148;" horiz-adv-x="622" 
d="M240 622l-62 159h110l83 -99l106 99h116l-101 -159h-252zM369 525q99 0 155.5 -59t42.5 -176l-36 -290h-137l35 289q9 65 -11 92t-65 27q-57 0 -100.5 -44t-55.5 -77l-35 -287h-137l64 520h137l-12 -97q9 33 50.5 67.5t104.5 34.5z" />
    <glyph glyph-name="Eng" unicode="&#x14a;" horiz-adv-x="684" 
d="M635 502l-54 -439q-17 -139 -96 -203.5t-187 -64.5q-128 0 -192 84l98 86q30 -45 95 -45q23 0 38.5 2t35 12.5t33 29t25.5 53.5t18 84l2 16l-237 253l-46 -370h-143l86 700h10l348 -369l47 369h143z" />
    <glyph glyph-name="eng" unicode="&#x14b;" horiz-adv-x="616" 
d="M369 525q99 0 155.5 -59t42.5 -176l-36 -290h-12l-6 -51q-9 -77 -54.5 -115.5t-117.5 -38.5q-45 0 -106 25l17 135q11 -3 26 -7.5l23 -7t18 -4.5t19 -2q20 0 31 18.5t13 40.5l21 176h11l15 120q9 65 -11 92t-65 27q-57 0 -100.5 -44t-55.5 -77l-35 -287h-137l64 520h137
l-12 -97q9 33 50.5 67.5t104.5 34.5z" />
    <glyph glyph-name="Omacron" unicode="&#x14c;" horiz-adv-x="781" 
d="M647 880l-15 -117h-377l15 117h377zM421 707q140 0 234 -104.5t74 -260.5q-12 -100 -70.5 -181.5t-142 -124.5t-170.5 -43q-65 0 -125.5 27t-104.5 74t-66 116.5t-12 147.5q12 100 72 181.5t143 124.5t168 43zM575 358q11 97 -32 155t-125 58t-146.5 -64t-77.5 -165
q-12 -95 34 -154t124 -59q86 0 148 63t75 166z" />
    <glyph glyph-name="omacron" unicode="&#x14d;" horiz-adv-x="603" 
d="M541 700l-15 -117h-377l15 117h377zM315 526q43 0 87 -17.5t81.5 -50t57 -87t11.5 -120.5q-8 -63 -39.5 -114.5t-75 -81.5t-89 -46t-86.5 -16q-43 0 -87 17t-81 49.5t-57 86.5t-11 120q14 121 105.5 190.5t183.5 69.5zM418 266q7 67 -25 104t-80 37q-52 0 -97.5 -42
t-55.5 -114q-8 -66 24 -102.5t80 -36.5q52 0 98.5 41.5t55.5 112.5z" />
    <glyph glyph-name="Ohungarumlaut" unicode="&#x150;" horiz-adv-x="781" 
d="M365 802l132 145h-190l-62 -145h120zM568 802l132 145h-190l-62 -145h120zM421 707q140 0 234 -104.5t74 -260.5q-12 -100 -70.5 -181.5t-142 -124.5t-170.5 -43q-65 0 -125.5 27t-104.5 74t-66 116.5t-12 147.5q12 100 72 181.5t143 124.5t168 43zM575 358
q11 97 -32 155t-125 58t-146.5 -64t-77.5 -165q-12 -95 34 -154t124 -59q86 0 148 63t75 166z" />
    <glyph glyph-name="ohungarumlaut" unicode="&#x151;" horiz-adv-x="603" 
d="M260 622l132 145h-190l-62 -145h120zM463 622l132 145h-190l-62 -145h120zM315 526q43 0 87 -17.5t81.5 -50t57 -87t11.5 -120.5q-8 -63 -39.5 -114.5t-75 -81.5t-89 -46t-86.5 -16q-43 0 -87 17t-81 49.5t-57 86.5t-11 120q14 121 105.5 190.5t183.5 69.5zM418 266
q7 67 -25 104t-80 37q-52 0 -97.5 -42t-55.5 -114q-8 -66 24 -102.5t80 -36.5q52 0 98.5 41.5t55.5 112.5z" />
    <glyph glyph-name="OE" unicode="&#x152;" horiz-adv-x="1128" 
d="M636 700h145l-35 -287h227l-15 -123h-227l5 41l-26 -208h337l-14 -123h-483l8 62q-100 -69 -212 -69q-65 0 -125.5 27t-104.5 74t-66 116.5t-12 147.5q12 100 72 181.5t143 124.5t168 43q120 0 206 -77zM766 577l15 123h328l-15 -123h-328zM352 129q86 0 148 63t75 166
q11 97 -32 155t-125 58t-146.5 -64t-77.5 -165q-12 -95 34 -154t124 -59z" />
    <glyph glyph-name="oe" unicode="&#x153;" horiz-adv-x="988" 
d="M712 526q43 0 86 -17.5t79.5 -50t55 -87t10.5 -120.5q-1 -21 -10 -48h-377q5 -44 35.5 -67.5t69.5 -23.5q62 0 106 39l113 -66q-91 -92 -221 -92q-50 0 -102 23t-87 66q-44 -43 -101 -66t-107 -23q-43 0 -87 17t-81 49.5t-57 86.5t-11 120q14 121 105.5 190.5t183.5 69.5
q51 0 103 -23.5t87 -67.5q44 44 100.5 67.5t106.5 23.5zM418 266q7 67 -25 104t-80 37q-52 0 -97.5 -42t-55.5 -114q-8 -66 24 -102.5t80 -36.5q52 0 98.5 41.5t55.5 112.5zM571 315l239 8q8 40 -24.5 62t-75.5 22q-40 0 -80.5 -25t-58.5 -67z" />
    <glyph glyph-name="Racute" unicode="&#x154;" horiz-adv-x="674" 
d="M421 802h-120l62 145h190zM277 271h-78l-33 -271h-141l86 700h257q115 0 179.5 -64.5t53.5 -158.5q-8 -67 -55 -118.5t-122 -73.5l202 -285h-173zM214 392h107q134 0 144 100q6 49 -23.5 68.5t-88.5 19.5h-116z" />
    <glyph glyph-name="racute" unicode="&#x155;" horiz-adv-x="461" 
d="M325 622l132 145h-190l-62 -145h120zM393 525q28 0 58 -3l-8 -127q-25 1 -53 1q-61 1 -123.5 -50t-79.5 -123l-28 -223h-136l64 520h136l-20 -161q18 72 69 119t121 47z" />
    <glyph glyph-name="Rcommaaccent" unicode="&#x156;" horiz-adv-x="674" 
d="M626 0h-173l-176 271h-78l-33 -271h-141l86 700h257q115 0 179.5 -64.5t53.5 -158.5q-8 -67 -55 -118.5t-122 -73.5zM214 392h107q134 0 144 100q6 49 -23.5 68.5t-88.5 19.5h-116zM220 -60h184l-78 -155h-125z" />
    <glyph glyph-name="rcommaaccent" unicode="&#x157;" horiz-adv-x="461" 
d="M393 525q28 0 58 -3l-8 -127q-25 1 -53 1q-61 1 -123.5 -50t-79.5 -123l-28 -223h-136l64 520h136l-20 -161q18 72 69 119t121 47zM107 -215l78 155h-184l-19 -155h125z" />
    <glyph glyph-name="Rcaron" unicode="&#x158;" horiz-adv-x="674" 
d="M245 802l-62 159h110l83 -99l106 99h116l-101 -159h-252zM277 271h-78l-33 -271h-141l86 700h257q115 0 179.5 -64.5t53.5 -158.5q-8 -67 -55 -118.5t-122 -73.5l202 -285h-173zM214 392h107q134 0 144 100q6 49 -23.5 68.5t-88.5 19.5h-116z" />
    <glyph glyph-name="rcaron" unicode="&#x159;" horiz-adv-x="461" 
d="M502 781l-101 -159h-252l-62 159h110l83 -99l106 99h116zM393 525q28 0 58 -3l-8 -127q-25 1 -53 1q-61 1 -123.5 -50t-79.5 -123l-28 -223h-136l64 520h136l-20 -161q18 72 69 119t121 47z" />
    <glyph glyph-name="Sacute" unicode="&#x15a;" horiz-adv-x="579" 
d="M410 802l132 145h-190l-62 -145h120zM298 439l29 -10q114 -41 159.5 -100t36.5 -139q-8 -63 -54.5 -109.5t-103 -67t-113.5 -20.5q-79 0 -142.5 47t-86.5 120l119 40q12 -38 44.5 -62.5t67.5 -24.5q47 0 85.5 23.5t44.5 69.5q5 35 -18.5 59.5t-81.5 43.5l-28 9
q-189 63 -172 211q10 79 83 128.5t162 49.5q87 0 144.5 -44t76.5 -109l-125 -18q-16 51 -98 51q-39 0 -69.5 -21t-34.5 -53q-4 -25 12 -40t63 -34z" />
    <glyph glyph-name="sacute" unicode="&#x15b;" horiz-adv-x="493" 
d="M335 622l132 145h-190l-62 -145h120zM227 331l72 -22q34 -10 55.5 -20t44 -28.5t31 -46.5t3.5 -67q-8 -71 -77 -112.5t-147 -41.5q-72 0 -132 38t-69 101l123 29q7 -27 31 -38.5t49 -11.5q29 0 53.5 14.5t27.5 34.5q0 9 -1 14.5t-10 13.5t-26 14l-63 19q-76 23 -109.5 60
t-25.5 101q8 65 71 104.5t133 39.5q141 0 184 -125l-128 -30q-15 39 -58 39q-23 0 -40 -11.5t-20 -30.5q-2 -26 28 -37z" />
    <glyph glyph-name="Scedilla" unicode="&#x15e;" horiz-adv-x="579" 
d="M298 439l29 -10q114 -41 159.5 -100t36.5 -139q-10 -75 -69.5 -124t-137.5 -66l-57 -54q37 -11 60 -39.5t19 -65.5q-14 -105 -224 -89l14 41q101 12 105 63q2 13 -6.5 21.5t-24 6.5t-29.5 -19l-33 56l56 79q-61 14 -107.5 57.5t-65.5 102.5l119 40q12 -38 44.5 -62.5
t67.5 -24.5q47 0 85.5 23.5t44.5 69.5q5 35 -18.5 59.5t-81.5 43.5l-28 9q-189 63 -172 211q10 79 83 128.5t162 49.5q87 0 144.5 -44t76.5 -109l-125 -18q-16 51 -98 51q-39 0 -69.5 -21t-34.5 -53q-4 -25 12 -40t63 -34z" />
    <glyph glyph-name="scedilla" unicode="&#x15f;" horiz-adv-x="493" 
d="M227 331l72 -22q34 -10 55.5 -20t44 -28.5t31 -46.5t3.5 -67q-6 -55 -51 -93t-108 -53h3l-58 -55q37 -11 60 -39.5t19 -65.5q-14 -105 -224 -89l14 41q101 12 105 63q2 13 -6.5 21.5t-24 6.5t-29.5 -19l-33 56l55 78q-57 12 -98.5 47t-48.5 86l123 29q7 -27 31 -38.5
t49 -11.5q29 0 53.5 14.5t27.5 34.5q0 9 -1 14.5t-10 13.5t-26 14l-63 19q-76 23 -109.5 60t-25.5 101q8 65 71 104.5t133 39.5q141 0 184 -125l-128 -30q-15 39 -58 39q-23 0 -40 -11.5t-20 -30.5q-2 -26 28 -37z" />
    <glyph glyph-name="Scaron" unicode="&#x160;" horiz-adv-x="579" 
d="M588 961l-101 -159h-252l-62 159h110l83 -99l106 99h116zM298 439l29 -10q114 -41 159.5 -100t36.5 -139q-8 -63 -54.5 -109.5t-103 -67t-113.5 -20.5q-79 0 -142.5 47t-86.5 120l119 40q12 -38 44.5 -62.5t67.5 -24.5q47 0 85.5 23.5t44.5 69.5q5 35 -18.5 59.5
t-81.5 43.5l-28 9q-189 63 -172 211q10 79 83 128.5t162 49.5q87 0 144.5 -44t76.5 -109l-125 -18q-16 51 -98 51q-39 0 -69.5 -21t-34.5 -53q-4 -25 12 -40t63 -34z" />
    <glyph glyph-name="scaron" unicode="&#x161;" horiz-adv-x="493" 
d="M512 781l-101 -159h-252l-62 159h110l83 -99l106 99h116zM227 331l72 -22q34 -10 55.5 -20t44 -28.5t31 -46.5t3.5 -67q-8 -71 -77 -112.5t-147 -41.5q-72 0 -132 38t-69 101l123 29q7 -27 31 -38.5t49 -11.5q29 0 53.5 14.5t27.5 34.5q0 9 -1 14.5t-10 13.5t-26 14
l-63 19q-76 23 -109.5 60t-25.5 101q8 65 71 104.5t133 39.5q141 0 184 -125l-128 -30q-15 39 -58 39q-23 0 -40 -11.5t-20 -30.5q-2 -26 28 -37z" />
    <glyph glyph-name="Tcedilla" unicode="&#x162;" horiz-adv-x="653" 
d="M345 0l-58 -55q37 -11 60 -39.5t19 -65.5q-14 -105 -224 -89l14 41q101 12 105 63q2 13 -6.5 21.5t-24 6.5t-29.5 -19l-33 56l57 80h-18l70 573h-199l16 127h546l-16 -127h-198l-70 -573h-11z" />
    <glyph glyph-name="tcedilla" unicode="&#x163;" horiz-adv-x="389" 
d="M238 403l-30 -245q-8 -46 30 -46q36 0 73 13l-9 -114q-36 -17 -99 -17h-3l-51 -48q37 -11 60 -39.5t19 -65.5q-14 -105 -224 -89l14 41q101 12 105 63q2 13 -6.5 21.5t-24 6.5t-29.5 -19l-33 56l57 80h59q-91 26 -74 163l29 239h-70l14 117h70l11 90h137l-11 -90h109
l-14 -117h-109z" />
    <glyph glyph-name="Tcaron" unicode="&#x164;" horiz-adv-x="653" 
d="M263 802l-62 159h110l83 -99l106 99h116l-101 -159h-252zM624 573h-198l-70 -573h-149l70 573h-199l16 127h546z" />
    <glyph glyph-name="tcaron" unicode="&#x165;" horiz-adv-x="536" 
d="M555 700l-131 -145h-120l62 145h189zM252 520h109l-14 -117h-109l-30 -245q-8 -46 30 -46q36 0 73 13l-9 -114q-36 -17 -99 -17q-70 0 -106.5 37t-24.5 133l29 239h-70l14 117h70l11 90h137z" />
    <glyph glyph-name="Tbar" unicode="&#x166;" horiz-adv-x="666" 
d="M426 573l-6 -53h127l-15 -117h-126l-50 -403h-149l50 403h-102l15 117h101l6 53h-199l16 127h546l-16 -127h-198z" />
    <glyph glyph-name="tbar" unicode="&#x167;" horiz-adv-x="437" 
d="M257 336h119v-117h-133l-7 -61q-8 -46 29 -46t74 13l-10 -114q-36 -17 -99 -17q-70 0 -106.5 37t-24.5 133l7 55h-46v117h60l8 67h-70l14 117h70l11 90h137l-11 -90h109l-14 -117h-109z" />
    <glyph glyph-name="Umacron" unicode="&#x16a;" horiz-adv-x="696" 
d="M611 880l-15 -117h-377l15 117h377zM677 700l-56 -453q-10 -77 -57 -136t-113 -88.5t-140 -29.5q-118 0 -196 73t-64 188l55 446h137l-56 -452q-8 -72 28.5 -104.5t97.5 -32.5q63 0 113 36t59 108l55 445h137z" />
    <glyph glyph-name="umacron" unicode="&#x16b;" horiz-adv-x="613" 
d="M525 583h-377l15 117h377zM570 520l-64 -520h-136l12 97q-19 -37 -64 -70.5t-101 -33.5q-92 0 -145 58t-39 174l37 295h136l-37 -294q-8 -60 10.5 -87.5t52.5 -27.5q55 0 105.5 47t62.5 87l34 275h136z" />
    <glyph glyph-name="Ubreve" unicode="&#x16c;" horiz-adv-x="696" 
d="M513 947h105q-9 -77 -63.5 -136.5t-142.5 -59.5q-82 0 -129.5 63.5t-39.5 132.5h105q1 -31 19 -50.5t49 -19.5q33 0 61 21.5t36 48.5zM677 700l-56 -453q-10 -77 -57 -136t-113 -88.5t-140 -29.5q-118 0 -196 73t-64 188l55 446h137l-56 -452q-8 -72 28.5 -104.5
t97.5 -32.5q63 0 113 36t59 108l55 445h137z" />
    <glyph glyph-name="ubreve" unicode="&#x16d;" horiz-adv-x="613" 
d="M341 571q-82 0 -129.5 63.5t-39.5 132.5h105q1 -31 19 -50.5t49 -19.5q33 0 61 21.5t36 48.5h105q-9 -77 -63.5 -136.5t-142.5 -59.5zM570 520l-64 -520h-136l12 97q-19 -37 -64 -70.5t-101 -33.5q-92 0 -145 58t-39 174l37 295h136l-37 -294q-8 -60 10.5 -87.5
t52.5 -27.5q55 0 105.5 47t62.5 87l34 275h136z" />
    <glyph glyph-name="Uring" unicode="&#x16e;" horiz-adv-x="696" 
d="M416 769q-48 0 -79 35t-26 82q5 43 39 73t79 30q47 0 77.5 -35t24.5 -83q-5 -42 -39 -72t-76 -30zM417 854q12 0 20.5 8t10.5 19t-5.5 18.5t-18.5 7.5q-26 0 -30 -28q-1 -10 6 -17.5t17 -7.5zM677 700l-56 -453q-10 -77 -57 -136t-113 -88.5t-140 -29.5q-118 0 -196 73
t-64 188l55 446h137l-56 -452q-8 -72 28.5 -104.5t97.5 -32.5q63 0 113 36t59 108l55 445h137z" />
    <glyph glyph-name="uring" unicode="&#x16f;" horiz-adv-x="613" 
d="M345 589q-48 0 -79 35t-26 82q5 43 39 73t79 30q47 0 77.5 -35t24.5 -83q-5 -42 -39 -72t-76 -30zM323 699q-1 -10 6 -17.5t17 -7.5q12 0 20.5 8t10.5 19t-5.5 18.5t-18.5 7.5q-12 0 -20 -8t-10 -20zM570 520l-64 -520h-136l12 97q-19 -37 -64 -70.5t-101 -33.5
q-92 0 -145 58t-39 174l37 295h136l-37 -294q-8 -60 10.5 -87.5t52.5 -27.5q55 0 105.5 47t62.5 87l34 275h136z" />
    <glyph glyph-name="Uhungarumlaut" unicode="&#x170;" horiz-adv-x="696" 
d="M330 802l132 145h-190l-62 -145h120zM533 802l132 145h-190l-62 -145h120zM677 700l-56 -453q-10 -77 -57 -136t-113 -88.5t-140 -29.5q-118 0 -196 73t-64 188l55 446h137l-56 -452q-8 -72 28.5 -104.5t97.5 -32.5q63 0 113 36t59 108l55 445h137z" />
    <glyph glyph-name="uhungarumlaut" unicode="&#x171;" horiz-adv-x="613" 
d="M259 622h-120l62 145h190zM342 622l62 145h190l-132 -145h-120zM434 520h136l-64 -520h-136l12 97q-19 -37 -64 -70.5t-101 -33.5q-92 0 -145 58t-39 174l37 295h136l-37 -294q-8 -60 10.5 -87.5t52.5 -27.5q55 0 105.5 47t62.5 87z" />
    <glyph glyph-name="Uogonek" unicode="&#x172;" horiz-adv-x="696" 
d="M677 700l-56 -453q-12 -100 -83.5 -166t-169.5 -83q-74 -27 -105 -49t-35 -50t21.5 -38t49.5 3l28 -63q-26 -14 -66.5 -14.5t-78.5 10t-63.5 38.5t-20.5 66q10 87 142 99h4q-94 20 -149.5 88.5t-43.5 165.5l55 446h137l-56 -452q-8 -72 28.5 -104.5t97.5 -32.5
q63 0 113 36t59 108l55 445h137z" />
    <glyph glyph-name="uogonek" unicode="&#x173;" horiz-adv-x="613" 
d="M570 520l-64 -520q-78 -28 -110 -50t-36 -51q-4 -28 21.5 -38t49.5 3l28 -63q-26 -14 -66.5 -14.5t-78.5 10t-63.5 38.5t-20.5 66q10 87 142 99h-2l12 97q-19 -37 -64 -70.5t-101 -33.5q-92 0 -145 58t-39 174l37 295h136l-37 -294q-8 -60 10.5 -87.5t52.5 -27.5
q55 0 105.5 47t62.5 87l34 275h136z" />
    <glyph glyph-name="Wcircumflex" unicode="&#x174;" horiz-adv-x="1106" 
d="M632 887l-109 -99h-116l101 159h252l62 -159h-110zM740 0h-12l-162 427l-271 -427h-12l-199 700h149l102 -389l248 389h24l151 -389l198 389h155z" />
    <glyph glyph-name="wcircumflex" unicode="&#x175;" horiz-adv-x="901" 
d="M499 707l-109 -99h-116l101 159h252l62 -159h-110zM587 0h-15l-128 298l-204 -298h-15l-182 520h138l94 -265l186 265h19l119 -265l160 265h139z" />
    <glyph glyph-name="Ycircumflex" unicode="&#x176;" horiz-adv-x="735" 
d="M435 887l-109 -99h-116l101 159h252l62 -159h-110zM383 0h-137l40 314l-218 386h153l145 -262l210 262h159l-312 -386z" />
    <glyph glyph-name="ycircumflex" unicode="&#x177;" horiz-adv-x="605" 
d="M257 608h-116l101 159h252l62 -159h-110l-80 99zM607 520l-375 -710h-137l109 207l-156 503h132l107 -345l182 345h138z" />
    <glyph glyph-name="Ydieresis" unicode="&#x178;" horiz-adv-x="735" 
d="M375 895l-17 -145h-144l16 145h145zM634 895l-16 -145h-145l17 145h144zM383 0h-137l40 314l-218 386h153l145 -262l210 262h159l-312 -386z" />
    <glyph glyph-name="Zacute" unicode="&#x179;" horiz-adv-x="693" 
d="M462 802l132 145h-190l-62 -145h120zM615 0h-624l439 583h-341l15 117h594l-439 -582h371z" />
    <glyph glyph-name="zacute" unicode="&#x17a;" horiz-adv-x="559" 
d="M374 622l132 145h-190l-62 -145h120zM486 118l-15 -118h-480l294 403h-234l15 117h471l-294 -402h243z" />
    <glyph glyph-name="Zdotaccent" unicode="&#x17b;" horiz-adv-x="693" 
d="M499 939l-18 -139h-139l17 139h140zM615 0h-624l439 583h-341l15 117h594l-439 -582h371z" />
    <glyph glyph-name="zdotaccent" unicode="&#x17c;" horiz-adv-x="559" 
d="M411 759l-18 -139h-139l17 139h140zM486 118l-15 -118h-480l294 403h-234l15 117h471l-294 -402h243z" />
    <glyph glyph-name="Zcaron" unicode="&#x17d;" horiz-adv-x="693" 
d="M639 961l-101 -159h-252l-62 159h110l83 -99l106 99h116zM615 0h-624l439 583h-341l15 117h594l-439 -582h371z" />
    <glyph glyph-name="zcaron" unicode="&#x17e;" horiz-adv-x="559" 
d="M551 781l-101 -159h-252l-62 159h110l83 -99l106 99h116zM486 118l-15 -118h-480l294 403h-234l15 117h471l-294 -402h243z" />
    <glyph glyph-name="florin" unicode="&#x192;" horiz-adv-x="304" 
d="M328 697l-7 -118q-37 0 -53.5 -14.5t-22.5 -44.5h65l-15 -117h-65l-51 -413q-12 -94 -67 -137t-154 -43l6 117q25 0 41 6.5t24 22.5t11 30t6 41l47 376h-60l14 117h60q21 177 221 177z" />
    <glyph glyph-name="Acaron" unicode="&#x1cd;" horiz-adv-x="761" 
d="M321 802l-62 159h110l83 -99l106 99h116l-101 -159h-252zM482 180h-239l-104 -180h-156l429 700h22l257 -700h-150zM443 299l-48 144l-83 -144h131z" />
    <glyph glyph-name="acaron" unicode="&#x1ce;" 
d="M236 622l-62 159h110l83 -99l106 99h116l-101 -159h-252zM440 520h137l-64 -520h-137l6 52q-10 -21 -50 -40t-88 -19q-43 0 -84 17.5t-74.5 50t-49.5 86.5t-8 121q15 121 97 189.5t172 68.5q85 0 135 -54zM416 268q8 74 -21 107t-81 33t-97.5 -43t-54.5 -113
q-7 -65 24.5 -103t78.5 -38q56 0 98 38.5t53 118.5z" />
    <glyph glyph-name="Icaron" unicode="&#x1cf;" horiz-adv-x="265" 
d="M422 961l-101 -159h-252l-62 159h110l83 -99l106 99h116zM18 0l86 700h143l-86 -700h-143z" />
    <glyph glyph-name="icaron" unicode="&#x1d0;" horiz-adv-x="287" 
d="M414 781l-101 -159h-252l-62 159h110l83 -99l106 99h116zM233 520l-64 -520h-137l64 520h137z" />
    <glyph glyph-name="Ocaron" unicode="&#x1d1;" horiz-adv-x="781" 
d="M676 961l-101 -159h-252l-62 159h110l83 -99l106 99h116zM421 707q140 0 234 -104.5t74 -260.5q-12 -100 -70.5 -181.5t-142 -124.5t-170.5 -43q-65 0 -125.5 27t-104.5 74t-66 116.5t-12 147.5q12 100 72 181.5t143 124.5t168 43zM575 358q11 97 -32 155t-125 58
t-146.5 -64t-77.5 -165q-12 -95 34 -154t124 -59q86 0 148 63t75 166z" />
    <glyph glyph-name="ocaron" unicode="&#x1d2;" horiz-adv-x="603" 
d="M570 781l-101 -159h-252l-62 159h110l83 -99l106 99h116zM315 526q43 0 87 -17.5t81.5 -50t57 -87t11.5 -120.5q-8 -63 -39.5 -114.5t-75 -81.5t-89 -46t-86.5 -16q-43 0 -87 17t-81 49.5t-57 86.5t-11 120q14 121 105.5 190.5t183.5 69.5zM418 266q7 67 -25 104t-80 37
q-52 0 -97.5 -42t-55.5 -114q-8 -66 24 -102.5t80 -36.5q52 0 98.5 41.5t55.5 112.5z" />
    <glyph glyph-name="Ucaron" unicode="&#x1d3;" horiz-adv-x="696" 
d="M640 961l-101 -159h-252l-62 159h110l83 -99l106 99h116zM677 700l-56 -453q-10 -77 -57 -136t-113 -88.5t-140 -29.5q-118 0 -196 73t-64 188l55 446h137l-56 -452q-8 -72 28.5 -104.5t97.5 -32.5q63 0 113 36t59 108l55 445h137z" />
    <glyph glyph-name="ucaron" unicode="&#x1d4;" horiz-adv-x="613" 
d="M216 622l-62 159h110l83 -99l106 99h116l-101 -159h-252zM570 520l-64 -520h-136l12 97q-19 -37 -64 -70.5t-101 -33.5q-92 0 -145 58t-39 174l37 295h136l-37 -294q-8 -60 10.5 -87.5t52.5 -27.5q55 0 105.5 47t62.5 87l34 275h136z" />
    <glyph glyph-name="Oogonek" unicode="&#x1ea;" horiz-adv-x="794" 
d="M421 707q140 0 234 -104.5t74 -260.5q-15 -133 -109.5 -228t-216.5 -116h11q-78 -28 -110.5 -50t-36.5 -51q-3 -28 22 -38t49 3l28 -63q-25 -14 -66 -14.5t-79 10t-63.5 38.5t-20.5 66q5 44 43.5 68.5t99.5 30.5h11q-120 22 -195 121.5t-58 238.5q12 100 72 181.5
t143 124.5t168 43zM575 358q11 97 -32 155t-125 58t-146.5 -64t-77.5 -165q-12 -95 34 -154t124 -59q86 0 148 63t75 166z" />
    <glyph glyph-name="oogonek" unicode="&#x1eb;" horiz-adv-x="605" 
d="M315 526q43 0 87 -17.5t81.5 -50t57 -87t11.5 -120.5q-13 -105 -83.5 -170t-155.5 -82q-76 -28 -107.5 -50t-34.5 -50q-4 -28 21 -38t49 3l29 -63q-26 -14 -66.5 -14.5t-79 10t-64 38.5t-20.5 66q5 44 43.5 68.5t99.5 30.5h23q-84 20 -139 89.5t-41 176.5
q14 121 105.5 190.5t183.5 69.5zM418 266q7 67 -25 104t-80 37q-52 0 -97.5 -42t-55.5 -114q-8 -66 24 -102.5t80 -36.5q52 0 98.5 41.5t55.5 112.5z" />
    <glyph glyph-name="Scommaaccent" unicode="&#x218;" horiz-adv-x="579" 
d="M298 439l29 -10q114 -41 159.5 -100t36.5 -139q-8 -63 -54.5 -109.5t-103 -67t-113.5 -20.5q-79 0 -142.5 47t-86.5 120l119 40q12 -38 44.5 -62.5t67.5 -24.5q47 0 85.5 23.5t44.5 69.5q5 35 -18.5 59.5t-81.5 43.5l-28 9q-189 63 -172 211q10 79 83 128.5t162 49.5
q87 0 144.5 -44t76.5 -109l-125 -18q-16 51 -98 51q-39 0 -69.5 -21t-34.5 -53q-4 -25 12 -40t63 -34zM272 -215l78 155h-184l-19 -155h125z" />
    <glyph glyph-name="scommaaccent" unicode="&#x219;" horiz-adv-x="493" 
d="M227 331l72 -22q34 -10 55.5 -20t44 -28.5t31 -46.5t3.5 -67q-8 -71 -77 -112.5t-147 -41.5q-72 0 -132 38t-69 101l123 29q7 -27 31 -38.5t49 -11.5q29 0 53.5 14.5t27.5 34.5q0 9 -1 14.5t-10 13.5t-26 14l-63 19q-76 23 -109.5 60t-25.5 101q8 65 71 104.5t133 39.5
q141 0 184 -125l-128 -30q-15 39 -58 39q-23 0 -40 -11.5t-20 -30.5q-2 -26 28 -37zM231 -215l78 155h-184l-19 -155h125z" />
    <glyph glyph-name="uni021A" unicode="&#x21a;" horiz-adv-x="653" 
d="M624 573h-198l-70 -573h-149l70 573h-199l16 127h546zM194 -61h184l-78 -155h-125z" />
    <glyph glyph-name="uni021B" unicode="&#x21b;" horiz-adv-x="389" 
d="M238 403l-30 -245q-8 -46 30 -46q36 0 73 13l-9 -114q-36 -17 -99 -17q-70 0 -106.5 37t-24.5 133l29 239h-70l14 117h70l11 90h137l-11 -90h109l-14 -117h-109zM56 -60h184l-78 -155h-125z" />
    <glyph glyph-name="dotlessj" unicode="&#x237;" horiz-adv-x="273" 
d="M-135 -180l16 135l25.5 -8t23.5 -7t18.5 -4t19.5 -2q36 0 44 59l65 527h137l-71 -571q-9 -77 -54.5 -115.5t-118.5 -38.5q-44 0 -105 25z" />
    <glyph glyph-name="circumflex" unicode="&#x2c6;" horiz-adv-x="415" 
d="M255 707l-109 -99h-116l101 159h252l62 -159h-110z" />
    <glyph glyph-name="caron" unicode="&#x2c7;" horiz-adv-x="415" 
d="M469 781l-101 -159h-252l-62 159h110l83 -99l106 99h116z" />
    <glyph glyph-name="breve" unicode="&#x2d8;" horiz-adv-x="376" 
d="M322 767h105q-9 -77 -63.5 -136.5t-142.5 -59.5q-82 0 -129.5 63.5t-39.5 132.5h105q1 -31 19 -50.5t49 -19.5q33 0 61 21.5t36 48.5z" />
    <glyph glyph-name="dotaccent" unicode="&#x2d9;" horiz-adv-x="147" 
d="M194 759l-18 -139h-139l17 139h140z" />
    <glyph glyph-name="ring" unicode="&#x2da;" horiz-adv-x="222" 
d="M149 589q-48 0 -79 35t-26 82q5 43 39 73t79 30q47 0 77.5 -35t24.5 -83q-5 -42 -39 -72t-76 -30zM150 674q12 0 20.5 8t10.5 19t-5.5 18.5t-18.5 7.5q-12 0 -20 -8t-10 -20q-1 -10 6 -17.5t17 -7.5z" />
    <glyph glyph-name="ogonek" unicode="&#x2db;" horiz-adv-x="262" 
d="M146 -136l28 -63q-26 -14 -66.5 -14.5t-78.5 10t-63.5 38.5t-20.5 66q10 87 142 99h134q-78 -28 -110 -50t-36 -51q-4 -28 21.5 -38t49.5 3z" />
    <glyph glyph-name="tilde" unicode="&#x2dc;" horiz-adv-x="396" 
d="M387 704l52 -8q-8 -55 -40.5 -90.5t-85.5 -35.5q-32 0 -65 20t-62 40t-50 20q-17 0 -34.5 -11.5t-18.5 -24.5l-49 7q6 55 39 90t89 35q40 0 95 -35t76 -35q18 0 35.5 9t18.5 19z" />
    <glyph glyph-name="hungarumlaut" unicode="&#x2dd;" horiz-adv-x="439" 
d="M111 622l132 145h-190l-62 -145h120zM314 622l132 145h-190l-62 -145h120z" />
    <glyph glyph-name="uni0326" unicode="&#x326;" horiz-adv-x="0" 
d="M73 -215l78 155h-184l-19 -155h125z" />
    <glyph glyph-name="Delta" unicode="&#x394;" horiz-adv-x="733" 
d="M6 0l387 700h30l216 -700h-633zM386 480l-192 -362h291z" />
    <glyph glyph-name="Omega" unicode="&#x3a9;" horiz-adv-x="803" 
d="M439 707q136 0 232 -103.5t77 -255.5q-16 -122 -109 -217h58l-16 -131h-233l19 157l33 27q97 72 110 179q12 97 -39 152.5t-135 55.5q-88 0 -158 -60.5t-83 -162.5q-11 -103 60 -168l32 -23l-18 -157h-232l16 131h67q-79 101 -64 232q12 98 72 178t143 123t168 43z" />
    <glyph glyph-name="mu" unicode="&#x3bc;" horiz-adv-x="672" 
d="M619 520l-64 -520h-136l12 100q-16 -37 -62 -72t-104 -35q-33 0 -63 8l-24 -191h-137l41 328q-7 36 -1 87l37 295h148l-45 -364q14 -45 60 -45q57 0 108.5 49.5t59.5 87.5l-5 -44l39 316h136z" />
    <glyph glyph-name="pi" unicode="&#x3c0;" horiz-adv-x="730" 
d="M582 403l-30 -240q-4 -33 2.5 -42.5t26.5 -9.5q32 0 74 20l-10 -120q-36 -17 -109 -17q-52 0 -93.5 26t-35.5 78l38 305h-151l-50 -403h-137l50 403h-101l15 117h624l-15 -117h-98z" />
    <glyph glyph-name="uni0401" unicode="&#x401;" horiz-adv-x="584" 
d="M297 750h-144l16 145h145zM557 750h-145l17 145h144zM91 700h145l-35 -287h227l-15 -123h-227l5 41l-26 -208h337l-14 -123h-483zM236 700h328l-15 -123h-328z" />
    <glyph glyph-name="uni0404" unicode="&#x404;" horiz-adv-x="648" 
d="M357 129q71 0 140 61l80 -112q-104 -85 -228 -85q-65 0 -125 27t-104.5 74t-66.5 116t-12 146q18 151 134.5 251t249.5 100q128 0 215 -89l-98 -103q-48 56 -119 56q-67 0 -126 -45.5t-87 -116.5h115l-14 -117h-119q6 -71 52 -117t113 -46z" />
    <glyph glyph-name="uni0407" unicode="&#x407;" horiz-adv-x="265" 
d="M148 895l-17 -145h-144l16 145h145zM407 895l-16 -145h-145l17 145h144zM18 0l86 700h143l-86 -700h-143z" />
    <glyph glyph-name="uni0410" unicode="&#x410;" horiz-adv-x="761" 
d="M482 180h-239l-104 -180h-156l429 700h22l257 -700h-150zM443 299l-48 144l-83 -144h131z" />
    <glyph glyph-name="uni0411" unicode="&#x411;" horiz-adv-x="678" 
d="M219 429h116q115 0 179.5 -63t53.5 -158q-12 -89 -88.5 -148.5t-190.5 -59.5h-264l86 700h421l-15 -117h-279l-57 -463h107q132 0 144 103q6 50 -23 68t-89 18h-116z" />
    <glyph glyph-name="uni0412" unicode="&#x412;" horiz-adv-x="633" 
d="M458 387q125 -63 112 -187q-12 -91 -92 -145.5t-207 -54.5h-112l15 119h104q64 0 108 29.5t48 67.5q6 41 -27.5 70t-97.5 29h-111l-39 -315h-139l86 700h243q98 0 155.5 -50t46.5 -144q-9 -84 -93 -119zM415 521q4 29 -18 44.5t-55 15.5h-112l-18 -148h104
q42 0 68.5 25.5t30.5 62.5z" />
    <glyph glyph-name="uni0413" unicode="&#x413;" horiz-adv-x="602" 
d="M561 583h-327l-72 -583h-137l86 700h464z" />
    <glyph glyph-name="uni0414" unicode="&#x414;" horiz-adv-x="930" 
d="M848 118l-22 -187h-137l8 69h-550l-8 -69h-137l22 187h101q33 65 52.5 167.5t40.5 278.5l17 136h566l-72 -582h119zM592 118l57 465h-292l-3 -27q-17 -136 -24 -186.5t-24.5 -128.5t-39.5 -123h326z" />
    <glyph glyph-name="uni0415" unicode="&#x415;" horiz-adv-x="584" 
d="M91 700h145l-35 -287h227l-15 -123h-227l5 41l-26 -208h337l-14 -123h-483zM221 577l15 123h328l-15 -123h-328z" />
    <glyph glyph-name="uni0416" unicode="&#x416;" horiz-adv-x="1262" 
d="M913 350l266 -350h-163l-192 254l-152 -165l21 185l-34 -274h-142l11 90l-111 165l-255 -255h-166l354 352l-236 348h165l273 -414l-3 -22l54 436h142l-51 -414l374 414h168z" />
    <glyph glyph-name="uni0417" unicode="&#x417;" 
d="M417 363q21 0 45.5 -11t46.5 -31.5t34.5 -52.5t7.5 -68q-11 -93 -94.5 -151.5t-190.5 -58.5q-114 0 -184.5 63t-59.5 152l143 -7q-3 -27 6.5 -46.5t28 -28t34.5 -12t33 -3.5q28 0 53.5 5.5t54.5 31.5t34 70q3 39 -25 61t-112 25l5 111q45 3 71.5 10t39.5 23t16.5 29.5
t7.5 44.5q4 32 -23 51.5t-50 19.5q-104 0 -115 -95l-143 9q11 92 86 147.5t174 55.5q95 0 159 -61t54 -143q-7 -56 -47 -93.5t-90 -46.5z" />
    <glyph glyph-name="uni0418" unicode="&#x418;" horiz-adv-x="738" 
d="M308 700l-45 -369l438 369h12l-86 -700h-143l44 370l-436 -370h-13l86 700h143z" />
    <glyph glyph-name="uni0419" unicode="&#x419;" horiz-adv-x="738" 
d="M561 947h104q-9 -77 -63.5 -136.5t-142.5 -59.5q-82 0 -129.5 63.5t-38.5 132.5h104q2 -32 19.5 -51t48.5 -19q34 0 62 21.5t36 48.5zM308 700l-45 -369l438 369h12l-86 -700h-143l44 370l-436 -370h-13l86 700h143z" />
    <glyph glyph-name="uni041A" unicode="&#x41a;" horiz-adv-x="769" 
d="M421 350l265 -350h-163l-192 253l-151 -164l14 127l-27 -216h-142l86 700h142l-51 -413l374 413h167z" />
    <glyph glyph-name="uni041B" unicode="&#x41b;" horiz-adv-x="745" 
d="M764 700l-86 -700h-137l72 583h-321l-53 -426q-12 -97 -52 -130t-109 -33q-66 0 -101 19l9 116q32 -17 62 -17q22 0 37 18t18 36l66 534h595z" />
    <glyph glyph-name="uni041C" unicode="&#x41c;" horiz-adv-x="885" 
d="M775 0h-144l40 307l-255 -292h-27l-181 292l-40 -307h-143l86 700h23l292 -470l408 470h27z" />
    <glyph glyph-name="uni041D" unicode="&#x41d;" horiz-adv-x="731" 
d="M706 700l-86 -700h-141l36 289h-313l9 80l-45 -369h-141l86 700h141l-36 -291h313l36 291h141z" />
    <glyph glyph-name="uni041E" unicode="&#x41e;" horiz-adv-x="781" 
d="M421 707q140 0 234 -104.5t74 -260.5q-12 -100 -70.5 -181.5t-142 -124.5t-170.5 -43q-65 0 -125.5 27t-104.5 74t-66 116.5t-12 147.5q12 100 72 181.5t143 124.5t168 43zM575 358q11 97 -32 155t-125 58t-146.5 -64t-77.5 -165q-12 -95 34 -154t124 -59q86 0 148 63
t75 166z" />
    <glyph glyph-name="uni041F" unicode="&#x41f;" horiz-adv-x="731" 
d="M706 700l-86 -700h-137l72 583h-321l-72 -583h-137l86 700h595z" />
    <glyph glyph-name="uni0420" unicode="&#x420;" horiz-adv-x="648" 
d="M111 700h257q115 0 179.5 -64.5t53.5 -158.5q-11 -89 -87.5 -147.5t-191.5 -58.5h-123l-33 -271h-141zM465 492q6 49 -23.5 68.5t-88.5 19.5h-116l-23 -188h107q134 0 144 100z" />
    <glyph glyph-name="uni0421" unicode="&#x421;" horiz-adv-x="649" 
d="M341 129q71 0 140 61l81 -112q-104 -85 -228 -85q-137 0 -232.5 104.5t-75.5 258.5q9 76 46 142.5t90.5 111.5t118 71t128.5 26q128 0 215 -89l-97 -103q-49 56 -120 56q-82 0 -149.5 -67t-80.5 -162q-10 -90 38 -151.5t126 -61.5z" />
    <glyph glyph-name="uni0422" unicode="&#x422;" horiz-adv-x="653" 
d="M624 573h-198l-70 -573h-149l70 573h-199l16 127h546z" />
    <glyph glyph-name="uni0423" unicode="&#x423;" horiz-adv-x="758" 
d="M752 700l-467 -700h-147l154 231l-198 469h142l143 -339l226 339h147z" />
    <glyph glyph-name="uni0424" unicode="&#x424;" horiz-adv-x="926" 
d="M567 700l-8 -66q148 -8 237 -90t73 -202q-14 -116 -121 -193.5t-259 -83.5l-8 -65h-137l8 66q-148 10 -235.5 91.5t-72.5 200.5q14 115 120.5 192t257.5 84l8 66h137zM735 358q3 26 -3 50.5t-24.5 49.5t-60.5 41t-102 18l-41 -333q113 7 168 58t63 116zM178 342
q-3 -26 3 -50.5t24.5 -48.5t60 -40t100.5 -19l41 333q-59 -4 -103.5 -21.5t-70 -44t-38.5 -53.5t-17 -56z" />
    <glyph glyph-name="uni0425" unicode="&#x425;" horiz-adv-x="757" 
d="M459 354l201 -354h-162l-134 237l-193 -237h-163l288 357l-195 343h162l128 -226l182 226h167z" />
    <glyph glyph-name="uni0426" unicode="&#x426;" horiz-adv-x="841" 
d="M730 -69h-136l8 69h-577l86 700h137l-72 -582h321l72 582h137l-72 -582h119z" />
    <glyph glyph-name="uni0427" unicode="&#x427;" horiz-adv-x="657" 
d="M637 700l-86 -700h-137l36 290q-17 -28 -62.5 -54t-105.5 -26q-108 0 -165.5 55t-43.5 169l33 266h137l-34 -274q-11 -98 100 -98q84 0 157 103l-5 -46l39 315h137z" />
    <glyph glyph-name="uni0428" unicode="&#x428;" horiz-adv-x="1189" 
d="M1078 0h-1053l86 700h137l-72 -582h321l72 582h137l-72 -582h321l72 582h137z" />
    <glyph glyph-name="uni0429" unicode="&#x429;" horiz-adv-x="1300" 
d="M1189 -69h-136l8 69h-1036l86 700h137l-72 -582h321l72 582h137l-72 -582h321l72 582h137l-72 -582h119z" />
    <glyph glyph-name="uni042A" unicode="&#x42a;" horiz-adv-x="811" 
d="M342 700l-86 -700h-141l72 583h-91l15 117h231zM309 429h116q115 0 179.5 -63t53.5 -158q-11 -89 -87.5 -148.5t-190.5 -59.5h-124l15 120h107q59 0 98.5 24.5t46.5 78.5q6 50 -23.5 68t-89.5 18h-116z" />
    <glyph glyph-name="uni042B" unicode="&#x42b;" horiz-adv-x="930" 
d="M219 429h116q115 0 179.5 -63t53.5 -158q-12 -89 -88.5 -148.5t-190.5 -59.5h-264l86 700h141l-71 -580h107q132 0 144 103q6 50 -23 68t-89 18h-116zM898 700l-86 -700h-143l86 700h143z" />
    <glyph glyph-name="uni042C" unicode="&#x42c;" horiz-adv-x="658" 
d="M168 0h-141l86 700h141zM168 0l15 120h107q59 0 98.5 24.5t46.5 78.5q6 50 -23.5 68t-89.5 18h-116l15 120h116q115 0 179.5 -63t53.5 -158q-11 -89 -87.5 -148.5t-190.5 -59.5h-124z" />
    <glyph glyph-name="uni042D" unicode="&#x42d;" horiz-adv-x="648" 
d="M299 707q65 0 125 -27.5t104.5 -74.5t66.5 -116.5t12 -147.5q-18 -149 -134.5 -248.5t-249.5 -99.5q-128 0 -215 89l98 103q49 -56 119 -56q67 0 126 45.5t87 117.5h-115l14 117h119q-7 70 -53 116t-112 46q-75 0 -140 -60l-80 111q104 85 228 85z" />
    <glyph glyph-name="uni042E" unicode="&#x42e;" horiz-adv-x="986" 
d="M617 707q140 0 234 -104.5t74 -260.5q-12 -100 -70.5 -181.5t-142 -124.5t-170.5 -43q-121 0 -212 84t-98 215h-35l-36 -292h-143l86 700h143l-36 -291h33q34 130 143.5 214t229.5 84zM771 358q11 97 -32 155t-125 58t-146.5 -64t-77.5 -165q-12 -95 34 -154t124 -59
q86 0 148 63t75 166z" />
    <glyph glyph-name="uni042F" unicode="&#x42f;" horiz-adv-x="678" 
d="M565 0h-141l33 271h-30l-242 -271h-179l269 277q-85 17 -130.5 76.5t-36.5 138.5q11 89 87.5 148.5t190.5 59.5h265zM495 580h-107q-59 0 -98.5 -24.5t-46.5 -78.5q-6 -49 23.5 -67t89.5 -18h116z" />
    <glyph glyph-name="uni0430" unicode="&#x430;" 
d="M577 520l-64 -520h-137l6 52q-10 -21 -50 -40t-88 -19q-43 0 -84 17.5t-74.5 50t-49.5 86.5t-8 121q15 121 97 189.5t172 68.5q85 0 135 -54l8 48h137zM416 268q8 74 -21 107t-81 33t-97.5 -43t-54.5 -113q-7 -65 24.5 -103t78.5 -38q56 0 98 38.5t53 118.5z" />
    <glyph glyph-name="uni0431" unicode="&#x431;" horiz-adv-x="598" 
d="M347 526q94 0 162.5 -73.5t53.5 -200.5q-15 -123 -97 -191t-172 -68q-53 0 -92 22.5t-44 45.5l-7 -61h-137l65 524q11 91 66.5 133.5t159.5 42.5h64q49 0 82 22l134 -4q-43 -65 -90.5 -100t-113.5 -35h-83q-44 0 -61 -16t-21 -51l-7 -36l9 6q8 6 12.5 8.5l15 8.5t20 9
l22 7t28 5.5t31.5 1.5zM428 268q8 64 -23.5 102t-78.5 38q-56 0 -98 -38t-53 -118q-8 -74 20.5 -107.5t81.5 -33.5q52 0 97 43t54 114z" />
    <glyph glyph-name="uni0432" unicode="&#x432;" horiz-adv-x="605" 
d="M421 286q100 -41 89 -138q-18 -148 -246 -148h-275l64 520h267q85 0 135 -39t41 -108q-5 -62 -75 -87zM177 410l-9 -72h129q14 0 25.5 3t17.5 7t11 10t6.5 10t2.5 10l2 6v2q6 18 -22 22q-10 2 -25 2h-138zM375 164q3 5 0.5 15t-7.5 19.5t-25 16.5t-52 7h-137l-14 -112
h129q98 0 106 54z" />
    <glyph glyph-name="uni0433" unicode="&#x433;" horiz-adv-x="569" 
d="M506 403h-294l-50 -403h-137l64 520h431z" />
    <glyph glyph-name="uni0434" unicode="&#x434;" horiz-adv-x="760" 
d="M634 118h44l-21 -173h-137l7 55h-380l-7 -55h-137l21 173h58q35 41 51.5 109.5t32.5 196.5l12 96h505zM497 118l35 285h-231q-10 -83 -16.5 -122.5t-21.5 -87.5t-37 -75h271z" />
    <glyph glyph-name="uni0435" unicode="&#x435;" horiz-adv-x="600" 
d="M541 203h-377q5 -44 35.5 -67.5t69.5 -23.5q62 0 106 39l113 -66q-91 -92 -221 -92q-43 0 -87 17t-81 49.5t-57 86.5t-11 120q14 121 105.5 190.5t183.5 69.5q43 0 86 -17.5t79.5 -50t55 -87t10.5 -120.5q-1 -21 -10 -48zM179 315l239 8q8 40 -24.5 62t-75.5 22
q-40 0 -80.5 -25t-58.5 -67z" />
    <glyph glyph-name="uni0436" unicode="&#x436;" horiz-adv-x="944" 
d="M520 0l-20 -24l-32 -210l-56 100l-81 -100l20 211l-13 23l39 258l25 262l19 24l32 210l56 -100l81 100l-19 -210l13 -24l-40 -258zM214 210l-32 42l-424 -367l111 115l283 289l1 1l-176 230l-66 120l296 -327l92 40l-72 -63l131 -145zM1068 -115l-333 367l-42 -42
l-153 -65l163 142l-60 66l88 -42l377 329l-102 -120l-232 -229l4 -2l214 -289z" />
    <glyph glyph-name="uni0437" unicode="&#x437;" horiz-adv-x="579" 
d="M369 277q26 -1 48.5 -7t47 -19t37 -39.5t7.5 -63.5q-9 -70 -86 -112.5t-175 -42.5q-107 0 -171 50t-54 125l136 -7q-4 -22 25 -36t66 -14q44 0 83 13t42 40q3 24 -26 39.5t-94 14.5l6 114q104 2 109 56q1 7 -4 11.5t-18 6.5t-20.5 2h-28.5q-40 0 -65.5 -9.5t-27.5 -24.5
l-136 8q8 60 74 101.5t156 41.5t151 -45t53 -108q-7 -63 -64 -81q-16 -6 -71 -14z" />
    <glyph glyph-name="uni0438" unicode="&#x438;" horiz-adv-x="641" 
d="M530 0h-137l31 240l-385 -240h-14l64 520h137l-31 -240l385 240h14z" />
    <glyph glyph-name="uni0439" unicode="&#x439;" horiz-adv-x="641" 
d="M464 767h105q-9 -77 -63.5 -136.5t-142.5 -59.5q-82 0 -129.5 63.5t-39.5 132.5h105q1 -31 19 -50.5t49 -19.5q33 0 61 21.5t36 48.5zM530 0h-137l31 240l-385 -240h-14l64 520h137l-31 -240l385 240h14z" />
    <glyph glyph-name="uni043A" unicode="&#x43a;" horiz-adv-x="608" 
d="M306 260l220 -260h-175l-141 171l-28 -26l11 106l-31 -251h-137l64 520h137l-23 -188l204 188h179z" />
    <glyph glyph-name="uni043B" unicode="&#x43b;" horiz-adv-x="717" 
d="M670 520l-64 -520h-137l50 403h-250l-30 -246q-12 -97 -52 -130t-109 -33q-66 0 -101 19l9 116q32 -17 62 -17q22 0 37 18t18 36l44 354h523z" />
    <glyph glyph-name="uni043C" unicode="&#x43c;" horiz-adv-x="780" 
d="M667 0h-137l20 157l-192 -157h-19l-154 157l-20 -157h-137l64 520h16l263 -306l340 306h20z" />
    <glyph glyph-name="uni043D" unicode="&#x43d;" horiz-adv-x="617" 
d="M570 520l-64 -520h-137l25 202h-207l-25 -202h-137l64 520h137l-25 -201h207l25 201h137z" />
    <glyph glyph-name="uni043E" unicode="&#x43e;" horiz-adv-x="603" 
d="M315 526q43 0 87 -17.5t81.5 -50t57 -87t11.5 -120.5q-8 -63 -39.5 -114.5t-75 -81.5t-89 -46t-86.5 -16q-43 0 -87 17t-81 49.5t-57 86.5t-11 120q14 121 105.5 190.5t183.5 69.5zM418 266q7 67 -25 104t-80 37q-52 0 -97.5 -42t-55.5 -114q-8 -66 24 -102.5t80 -36.5
q52 0 98.5 41.5t55.5 112.5z" />
    <glyph glyph-name="uni043F" unicode="&#x43f;" horiz-adv-x="641" 
d="M594 520l-64 -520h-137l50 403h-231l-50 -403h-137l64 520h505z" />
    <glyph glyph-name="uni0440" unicode="&#x440;" horiz-adv-x="629" 
d="M373 526q94 0 162.5 -73.5t53.5 -200.5q-10 -84 -55.5 -145t-101 -87.5t-112.5 -26.5q-52 0 -90.5 22t-44.5 46l-31 -251h-137l87 710h137l-7 -43q59 49 139 49zM455 268q7 64 -24.5 102t-78.5 38q-56 0 -98 -38t-53 -118q-8 -74 21 -107.5t81 -33.5t97.5 43t54.5 114z
" />
    <glyph glyph-name="uni0441" unicode="&#x441;" horiz-adv-x="552" 
d="M265 112q71 0 107 48l117 -57q-43 -54 -106 -82t-120 -28q-44 0 -88 17.5t-81 49.5t-56.5 86t-11.5 120q9 84 59.5 145.5t111.5 88t119 26.5q60 0 119 -30t90 -84l-124 -48q-24 43 -87 43q-53 0 -98.5 -42t-55.5 -114q-9 -66 23 -102.5t82 -36.5z" />
    <glyph glyph-name="uni0442" unicode="&#x442;" horiz-adv-x="537" 
d="M483 403h-139l-50 -403h-137l50 403h-141l15 117h417z" />
    <glyph glyph-name="uni0443" unicode="&#x443;" horiz-adv-x="605" 
d="M607 520l-375 -710h-137l109 207l-156 503h132l107 -345l182 345h138z" />
    <glyph glyph-name="uni0444" unicode="&#x444;" horiz-adv-x="962" 
d="M707 526q94 0 162 -73.5t53 -200.5q-10 -84 -55.5 -145t-101 -87.5t-112.5 -26.5q-51 0 -90 22t-45 46l-31 -251h-137l23 190l1 7l4 35q-54 -48 -137 -48q-94 0 -162.5 73.5t-53.5 200.5q15 123 97 191t172 68q53 0 92 -22.5t44 -45.5l30 251h137l-23 -190l-2 -17l-4 -26
q59 49 139 49zM262 112q99 0 137 99l14 113q-12 86 -102 86q-51 0 -96.5 -43.5t-54.5 -114.5q-8 -64 23.5 -102t78.5 -38zM788 268q7 64 -24 102t-78 38q-103 0 -139 -101l-13 -109q11 -87 102 -87q52 0 97.5 43t54.5 114z" />
    <glyph glyph-name="uni0445" unicode="&#x445;" horiz-adv-x="613" 
d="M372 274l171 -274h-148l-109 174l-151 -174h-154l241 277l-151 243h148l89 -143l125 143h153z" />
    <glyph glyph-name="uni0446" unicode="&#x446;" horiz-adv-x="684" 
d="M573 -69h-136l8 69h-420l64 520h137l-50 -402h231l50 402h137l-50 -402h51z" />
    <glyph glyph-name="uni0447" unicode="&#x447;" horiz-adv-x="631" 
d="M587 520l-64 -520h-137l27 223q-42 -57 -87 -76q-29 -12 -61 -12q-94 0 -153.5 63.5t-47.5 165.5l20 156h137l-20 -165q-13 -100 68 -100q102 0 161 120l-9 -93l29 238h137z" />
    <glyph glyph-name="uni0448" unicode="&#x448;" horiz-adv-x="861" 
d="M750 0h-725l64 520h137l-50 -402h157l50 402h137l-50 -402h157l50 402h137z" />
    <glyph glyph-name="uni0449" unicode="&#x449;" horiz-adv-x="902" 
d="M814 118l-23 -187h-136l8 69h-681l64 520h137l-50 -402h157l50 402h137l-50 -402h157l50 402h137l-49 -402h92z" />
    <glyph glyph-name="uni044A" unicode="&#x44a;" horiz-adv-x="729" 
d="M241 306h162q91 0 144 -45.5t44 -119.5q-8 -65 -67.5 -103t-150.5 -38h-307l50 403h-50l15 117h186l-34 -280zM455 157q2 5 0.5 10.5t-5 10t-17.5 8t-38 3.5h-168l-9 -71h161q32 0 49 6t21.5 13t5.5 20z" />
    <glyph glyph-name="uni044B" unicode="&#x44b;" horiz-adv-x="838" 
d="M157 306h162q91 0 144 -45.5t44 -119.5q-8 -65 -67.5 -103t-150.5 -38h-307l64 520h137l-34 -280zM792 520l-64 -520h-137l64 520h137zM371 157q2 5 0.5 10.5t-5 10t-17.5 8t-38 3.5h-168l-9 -71h161q32 0 49 6t21.5 13t5.5 20z" />
    <glyph glyph-name="uni044C" unicode="&#x44c;" horiz-adv-x="645" 
d="M200 306h162q91 0 144 -45.5t44 -119.5q-8 -65 -67.5 -103t-150.5 -38h-307l64 520h137l-34 -280zM414 157q2 5 0.5 10.5t-5 10t-17.5 8t-38 3.5h-168l-9 -71h161q32 0 49 6t21.5 13t5.5 20z" />
    <glyph glyph-name="uni044D" unicode="&#x44d;" horiz-adv-x="556" 
d="M268 526q44 0 88 -17.5t81 -50t56.5 -87t10.5 -120.5q-8 -63 -39.5 -114.5t-74 -81.5t-88.5 -46t-88 -16q-60 0 -119 30t-89 84l124 48q24 -43 86 -43q38 0 73.5 21.5t57.5 60.5h-90l16 124h96q-7 43 -35.5 66t-67.5 23q-72 0 -107 -48l-117 58q42 53 105 81t121 28z" />
    <glyph glyph-name="uni044E" unicode="&#x44e;" horiz-adv-x="823" 
d="M539 526q43 0 87 -17.5t81.5 -50t57 -87t11.5 -120.5q-8 -63 -39.5 -114.5t-75 -81.5t-89 -46t-86.5 -16q-80 0 -152 53t-84 148h-71l-24 -194h-137l64 520h137l-25 -202h67q20 66 69.5 115.5t104 71t104.5 21.5zM642 266q7 67 -25 104t-80 37q-52 0 -97.5 -42
t-55.5 -114q-8 -66 24 -102.5t80 -36.5q52 0 98.5 41.5t55.5 112.5z" />
    <glyph glyph-name="uni044F" unicode="&#x44f;" horiz-adv-x="671" 
d="M622 520l-64 -520h-137l18 149h-103l-156 -149h-169l184 170q-54 25 -83.5 73.5t-22.5 106.5q10 74 79 122t162 48h292zM453 266l-7 -62l25 199h-147q-41 0 -68 -19t-32 -50q-3 -26 16.5 -47t57.5 -21h155z" />
    <glyph glyph-name="uni0451" unicode="&#x451;" horiz-adv-x="600" 
d="M267 715l-17 -145h-144l16 145h145zM526 715l-16 -145h-145l17 145h144zM541 203h-377q5 -44 35.5 -67.5t69.5 -23.5q62 0 106 39l113 -66q-91 -92 -221 -92q-43 0 -87 17t-81 49.5t-57 86.5t-11 120q14 121 105.5 190.5t183.5 69.5q43 0 86 -17.5t79.5 -50t55 -87
t10.5 -120.5q-1 -21 -10 -48zM179 315l239 8q8 40 -24.5 62t-75.5 22q-40 0 -80.5 -25t-58.5 -67z" />
    <glyph glyph-name="uni0454" unicode="&#x454;" horiz-adv-x="541" 
d="M265 112q71 0 107 48l117 -57q-43 -54 -106 -82t-120 -28q-44 0 -88 17.5t-81 49.5t-56.5 86t-11.5 120q7 64 38 115.5t74.5 82t89.5 46.5t88 16q60 0 119 -30t90 -84l-124 -48q-24 43 -87 43q-39 0 -75.5 -23.5t-58.5 -65.5h103l-15 -124h-106q9 -40 37 -61t66 -21z" />
    <glyph glyph-name="uni0457" unicode="&#x457;" horiz-adv-x="287" 
d="M98 715l-17 -145h-144l16 145h145zM357 715l-16 -145h-145l17 145h144zM210 520l-64 -520h-137l64 520h137z" />
    <glyph glyph-name="uni0490" unicode="&#x490;" horiz-adv-x="602" 
d="M538 747l-20 -164h-327l-72 -583h-137l86 700h325l6 47h139z" />
    <glyph glyph-name="uni0491" unicode="&#x491;" horiz-adv-x="630" 
d="M514 475h-42l-9 -72h-294l-50 -403h-137l64 520h335l6 46h139z" />
    <glyph glyph-name="Wgrave" unicode="&#x1e80;" horiz-adv-x="1106" 
d="M660 947h-195l95 -145h125zM740 0h-12l-162 427l-271 -427h-12l-199 700h149l102 -389l248 389h24l151 -389l198 389h155z" />
    <glyph glyph-name="wgrave" unicode="&#x1e81;" horiz-adv-x="901" 
d="M527 767h-195l95 -145h125zM587 0h-15l-128 298l-204 -298h-15l-182 520h138l94 -265l186 265h19l119 -265l160 265h139z" />
    <glyph glyph-name="Wacute" unicode="&#x1e82;" horiz-adv-x="1106" 
d="M669 802l132 145h-190l-62 -145h120zM740 0h-12l-162 427l-271 -427h-12l-199 700h149l102 -389l248 389h24l151 -389l198 389h155z" />
    <glyph glyph-name="wacute" unicode="&#x1e83;" horiz-adv-x="901" 
d="M535 622l132 145h-190l-62 -145h120zM587 0h-15l-128 298l-204 -298h-15l-182 520h138l94 -265l186 265h19l119 -265l160 265h139z" />
    <glyph glyph-name="Wdieresis" unicode="&#x1e84;" horiz-adv-x="1106" 
d="M572 895l-17 -145h-144l16 145h145zM831 895l-16 -145h-145l17 145h144zM740 0h-12l-162 427l-271 -427h-12l-199 700h149l102 -389l248 389h24l151 -389l198 389h155z" />
    <glyph glyph-name="wdieresis" unicode="&#x1e85;" horiz-adv-x="901" 
d="M439 715l-17 -145h-144l16 145h145zM698 715l-16 -145h-145l17 145h144zM587 0h-15l-128 298l-204 -298h-15l-182 520h138l94 -265l186 265h19l119 -265l160 265h139z" />
    <glyph glyph-name="Ygrave" unicode="&#x1ef2;" horiz-adv-x="735" 
d="M464 947h-195l95 -145h125zM383 0h-137l40 314l-218 386h153l145 -262l210 262h159l-312 -386z" />
    <glyph glyph-name="ygrave" unicode="&#x1ef3;" horiz-adv-x="605" 
d="M294 622l-95 145h195l25 -145h-125zM607 520l-375 -710h-137l109 207l-156 503h132l107 -345l182 345h138z" />
    <glyph glyph-name="endash" unicode="&#x2013;" horiz-adv-x="600" 
d="M553 331l-13 -112h-510l13 112h510z" />
    <glyph glyph-name="emdash" unicode="&#x2014;" horiz-adv-x="660" 
d="M613 331l-13 -112h-570l13 112h570z" />
    <glyph glyph-name="quoteleft" unicode="&#x2018;" horiz-adv-x="283" 
d="M113 700l-78 -155h184l19 155h-125z" />
    <glyph glyph-name="quoteright" unicode="&#x2019;" horiz-adv-x="270" 
d="M162 545l78 155h-183l-20 -155h125z" />
    <glyph glyph-name="quotesinglbase" unicode="&#x201a;" horiz-adv-x="322" 
d="M200 -135l78 155h-184l-19 -155h125z" />
    <glyph glyph-name="quotedblleft" unicode="&#x201c;" horiz-adv-x="531" 
d="M113 700l-78 -155h184l19 155h-125zM361 700l-78 -155h184l19 155h-125z" />
    <glyph glyph-name="quotedblright" unicode="&#x201d;" horiz-adv-x="539" 
d="M162 545l78 155h-184l-19 -155h125zM409 545l78 155h-184l-19 -155h125z" />
    <glyph glyph-name="quotedblbase" unicode="&#x201e;" horiz-adv-x="569" 
d="M200 -135l78 155h-184l-19 -155h125zM447 -135l78 155h-183l-19 -155h124z" />
    <glyph glyph-name="dagger" unicode="&#x2020;" horiz-adv-x="376" 
d="M343 448h-109l-38 -136h-24l-5 136h-110l14 117h93l-5 135h145l-38 -135h91z" />
    <glyph glyph-name="daggerdbl" unicode="&#x2021;" horiz-adv-x="366" 
d="M352 565l-14 -117h-111l-21 -74h-39l-3 74h-112l14 117h93l-5 135h145l-39 -135h92zM203 253h111l-14 -118h-92l5 -135h-145l39 135h-93l14 118h112l21 73h39z" />
    <glyph glyph-name="bullet" unicode="&#x2022;" horiz-adv-x="240" 
d="M198 379l-18 -150h-150l19 150h149z" />
    <glyph glyph-name="ellipsis" unicode="&#x2026;" horiz-adv-x="752" 
d="M121 150l-18 -150h-152l18 150h152zM368 150l-18 -150h-152l18 150h152zM615 150l-18 -150h-152l18 150h152z" />
    <glyph glyph-name="perthousand" unicode="&#x2030;" horiz-adv-x="1060" 
d="M177 459q-53 0 -86 38.5t-27 92.5q6 49 44 82t88 33q54 0 87.5 -38t26.5 -93q-6 -48 -44.5 -81.5t-88.5 -33.5zM541 702l102 -68l-500 -634l-103 68zM178 562q8 0 16.5 8.5t9.5 19.5q3 11 -9 11q-11 0 -20.5 -8t-10.5 -19q-1 -5 2.5 -8.5t11.5 -3.5zM501 -5
q-53 0 -86 38.5t-27 92.5q6 49 44 82t88 33q54 0 87.5 -38t26.5 -93q-6 -48 -44.5 -81.5t-88.5 -33.5zM871 -5q-53 0 -86 38.5t-28 92.5q6 49 44 82t88 33q54 0 87.5 -38t26.5 -93q-6 -48 -44 -81.5t-88 -33.5zM502 98q8 0 16.5 8.5t9.5 19.5q3 11 -9 11q-11 0 -20.5 -8
t-10.5 -19q-1 -5 2.5 -8.5t11.5 -3.5zM871 98q8 0 16.5 8.5t9.5 19.5q1 5 -1.5 8t-6.5 3q-11 0 -20.5 -8t-10.5 -19q-1 -5 2.5 -8.5t10.5 -3.5z" />
    <glyph glyph-name="guilsinglleft" unicode="&#x2039;" horiz-adv-x="215" 
d="M85 309l88 -95l-14 -113l-149 81l30 253l170 81l-14 -113z" />
    <glyph glyph-name="guilsinglright" unicode="&#x203a;" horiz-adv-x="201" 
d="M70 516l150 -81l-31 -253l-169 -81l13 113l112 95l-88 94z" />
    <glyph glyph-name="fraction" unicode="&#x2044;" horiz-adv-x="108" 
d="M-234 0l522 700h44l-516 -700h-50z" />
    <glyph glyph-name="Euro" unicode="&#x20ac;" horiz-adv-x="695" 
d="M396 129q70 0 139 61l81 -112q-104 -85 -228 -85q-99 0 -181 58.5t-114 154.5h-73l12 104h45q0 22 3 46l3 21h-43l14 104h63q51 102 147.5 164t198.5 62q128 0 215 -89l-97 -103q-49 56 -120 56q-98 0 -170 -90h60l-14 -104h-98q-3 -11 -7 -35q-2 -22 -2 -32h99l-12 -104
h-59q48 -77 138 -77z" />
    <glyph glyph-name="hryvnia" unicode="&#x20b4;" horiz-adv-x="575" 
d="M344 707q90 0 150.5 -49.5t50.5 -128.5q-3 -23 -11 -48h11v-104h-95q-51 -35 -127 -59l-28 -8h250v-104h-378q-6 -46 26 -69.5t80 -23.5q35 0 74.5 25t59.5 62l109 -40q-39 -73 -114.5 -120t-154.5 -47q-57 0 -109 20.5t-86.5 67t-27.5 109.5q4 39 23 76v44h29
q34 39 82 67h-111v104h342q11 12 14 32q4 32 -21.5 53t-64.5 21q-82 0 -110 -51l-120 18q34 65 102.5 109t154.5 44z" />
    <glyph glyph-name="trademark" unicode="&#x2122;" horiz-adv-x="582" 
d="M215 656l-17 -136h-53l16 136h-58l5 44h171l-5 -44h-59zM538 520h-51l11 76l-72 -76h-19l-54 76l-11 -76h-50l22 180h27l78 -116l110 116h31z" />
    <glyph glyph-name="oneeighth" unicode="&#x215b;" horiz-adv-x="556" 
d="M25 440h-37l28 221l-17 -11l-16 31l36 20h38zM-62 0l522 700h44l-516 -700h-50zM419 139q41 -18 35 -70q-4 -31 -31.5 -51t-63.5 -20q-39 0 -65 25t-22 62q5 38 51 62q-28 18 -23 57q3 24 24.5 41.5t54.5 17.5q38 0 59 -23t17 -52q-4 -28 -36 -49zM335 188
q-2 -12 7.5 -21.5t23.5 -9.5q19 0 35 14.5t18 32.5q2 12 -4.5 20t-26.5 8q-21 0 -36 -13t-17 -31zM351 29q26 0 44.5 15.5t21.5 40.5q2 19 -9.5 30t-33.5 11q-23 0 -43 -16.5t-23 -40.5q-2 -18 10.5 -29t32.5 -11z" />
    <glyph glyph-name="threeeighths" unicode="&#x215c;" horiz-adv-x="574" 
d="M108 578q16 -6 26.5 -24.5t7.5 -45.5q-4 -31 -31.5 -51.5t-63.5 -20.5q-43 0 -68.5 29t-17.5 66l37 -8q-9 -23 3.5 -39t36.5 -16t44 16t23 40q3 25 -13.5 33.5t-51.5 2.5l-4 32q66 3 73 51q2 12 -7.5 20.5t-25.5 8.5q-23 0 -41 -18t-19 -44l-37 8q1 37 26.5 61t61.5 24
q34 0 57.5 -23.5t19.5 -52.5q-3 -27 -36 -49zM-42 0l522 700h44l-516 -700h-50zM437 139q41 -18 35 -70q-4 -31 -31.5 -51t-63.5 -20q-39 0 -65 25t-22 62q5 38 51 62q-28 18 -23 57q3 24 24.5 41.5t54.5 17.5q38 0 59 -23t17 -52q-4 -28 -36 -49zM353 188q-2 -12 7.5 -21.5
t23.5 -9.5q19 0 35 14.5t18 32.5q2 12 -4.5 20t-26.5 8q-21 0 -36 -13t-17 -31zM369 29q26 0 44.5 15.5t21.5 40.5q2 19 -9.5 30t-33.5 11q-23 0 -43 -16.5t-23 -40.5q-2 -18 10.5 -29t32.5 -11z" />
    <glyph glyph-name="fiveeighths" unicode="&#x215d;" horiz-adv-x="576" 
d="M-42 502l34 11q-1 -20 10.5 -32.5t34.5 -12.5q25 0 46.5 20t25.5 49q2 22 -10.5 37t-30.5 15q-37 0 -64 -31l-33 10l34 133h138l-4 -32h-104l-17 -57q21 9 42 9q37 0 63.5 -29.5t21.5 -70.5q-5 -36 -33.5 -60.5t-65.5 -24.5q-34 0 -58.5 20.5t-29.5 45.5zM-42 0l522 700
h44l-516 -700h-50zM439 139q41 -18 35 -70q-4 -31 -31.5 -51t-63.5 -20q-39 0 -65 25t-22 62q5 38 51 62q-28 18 -23 57q3 24 24.5 41.5t54.5 17.5q38 0 59 -23t17 -52q-4 -28 -36 -49zM355 188q-2 -12 7.5 -21.5t23.5 -9.5q19 0 35 14.5t18 32.5q2 12 -4.5 20t-26.5 8
q-21 0 -36 -13t-17 -31zM371 29q26 0 44.5 15.5t21.5 40.5q2 19 -9.5 30t-33.5 11q-23 0 -43 -16.5t-23 -40.5q-2 -18 10.5 -29t32.5 -11z" />
    <glyph glyph-name="seveneighths" unicode="&#x215e;" horiz-adv-x="556" 
d="M24 440h-41l117 229h-120l4 32h174zM-62 0l522 700h44l-516 -700h-50zM419 139q41 -18 35 -70q-4 -31 -31.5 -51t-63.5 -20q-39 0 -65 25t-22 62q5 38 51 62q-28 18 -23 57q3 24 24.5 41.5t54.5 17.5q38 0 59 -23t17 -52q-4 -28 -36 -49zM335 188q-2 -12 7.5 -21.5
t23.5 -9.5q19 0 35 14.5t18 32.5q2 12 -4.5 20t-26.5 8q-21 0 -36 -13t-17 -31zM351 29q26 0 44.5 15.5t21.5 40.5q2 19 -9.5 30t-33.5 11q-23 0 -43 -16.5t-23 -40.5q-2 -18 10.5 -29t32.5 -11z" />
    <glyph glyph-name="partialdiff" unicode="&#x2202;" horiz-adv-x="561" 
d="M285 700l106 -188l20 -33l19.5 -32l18.5 -31t16.5 -31l14 -32t11 -33.5t7.5 -35.5t2.5 -37.5t-2.5 -40.5q-11 -90 -89.5 -153t-167.5 -63q-92 0 -158 68t-54 163q10 88 89 155.5t166 67.5l-147 256h148zM372 221q5 39 -18.5 67.5t-71.5 28.5q-46 0 -83 -34t-42 -77
q-5 -41 19.5 -69t68.5 -28q48 0 85 33t42 79z" />
    <glyph glyph-name="product" unicode="&#x220f;" horiz-adv-x="735" 
d="M745 800l-15 -122l-106 -868h-132l106 868h-381l-106 -868h-132l106 868l15 122h645z" />
    <glyph glyph-name="summation" unicode="&#x2211;" horiz-adv-x="692" 
d="M300 678l161 -373l-249 -373h383l-14 -122h-603l336 495l-213 495h601l-15 -122h-387z" />
    <glyph glyph-name="minus" unicode="&#x2212;" horiz-adv-x="425" 
d="M378 331l-13 -112h-335l13 112h335z" />
    <glyph glyph-name="radical" unicode="&#x221a;" horiz-adv-x="830" 
d="M446 -190h-158l-133 429h-124l19 151h211l118 -403l325 813h137z" />
    <glyph glyph-name="infinity" unicode="&#x221e;" horiz-adv-x="855" 
d="M620 428q78 0 130 -52t43 -122q-7 -66 -66.5 -113.5t-133.5 -47.5q-101 0 -182 83q-100 -83 -197 -83q-78 0 -130.5 52.5t-43.5 124.5q7 64 67 111t134 47q99 0 181 -82q101 82 198 82zM215 197q42 0 66.5 12t63.5 59q-26 40 -44 49.5t-57 9.5q-30 0 -53 -22.5t-27 -50.5
q-2 -23 11 -40t40 -17zM669 270q3 22 -10.5 39.5t-40.5 17.5q-42 0 -66 -12.5t-62 -58.5q26 -41 43 -50t56 -9q31 0 53.5 22.5t26.5 50.5z" />
    <glyph glyph-name="integral" unicode="&#x222b;" horiz-adv-x="304" 
d="M46 27l73 593q12 94 67 137t154 43l-6 -117q-25 0 -41 -6.5t-24 -22.5t-11 -30t-6 -41l-73 -593q-12 -94 -67 -137t-154 -43l6 117q25 0 41 6.5t24 22.5t11 30t6 41z" />
    <glyph glyph-name="approxequal" unicode="&#x2248;" horiz-adv-x="468" 
d="M371 396h51q0 -56 -32.5 -93t-93.5 -37q-44 0 -110 40t-96 40q-23 0 -38.5 -9.5t-14.5 -23.5h-50q0 56 32.5 92.5t96.5 36.5q43 0 107.5 -35t92.5 -35q23 0 39 7t16 17zM352 236h52q0 -56 -33 -93t-94 -37q-43 0 -109.5 40t-96.5 40q-22 0 -37.5 -9.5t-14.5 -23.5h-51
q0 56 32.5 92.5t96.5 36.5q43 0 108 -35t93 -35q23 0 38.5 7t15.5 17z" />
    <glyph glyph-name="notequal" unicode="&#x2260;" horiz-adv-x="425" 
d="M305 371l-74 -192h143l-14 -112h-173l-26 -67h-115l26 67h-47l14 112h77l74 192h-128l13 112h159l30 78h115l-30 -78h61l-13 -112h-92z" />
    <glyph glyph-name="lessequal" unicode="&#x2264;" horiz-adv-x="418" 
d="M191 375l197 103l13 115l-364 -198l-6 -40l320 -198l15 116zM386 114l-14 -113h-335l14 113h335z" />
    <glyph glyph-name="greaterequal" unicode="&#x2265;" horiz-adv-x="434" 
d="M21 157l367 198l6 40l-318 198l-16 -115l174 -103l-197 -102zM338 1h-335l14 113h335z" />
    <glyph glyph-name="lozenge" unicode="&#x25ca;" horiz-adv-x="593" 
d="M548 350l-197 -350h-193l-113 350l197 350h192zM409 350l-81 254l-144 -254l80 -253z" />
    <glyph glyph-name="Gdotaccent.001" horiz-adv-x="754" 
d="M521 800h-139l17 139h140zM662 340l41 -2q-19 -155 -119.5 -250t-234.5 -95q-65 0 -125 27t-104.5 74t-66.5 116.5t-12 147.5q12 100 72 181.5t143 124.5t169 43q80 0 142.5 -27.5t96.5 -71.5l-101 -94q-41 57 -139 57q-79 0 -152.5 -66.5t-85.5 -160.5q-11 -88 43 -151
t128 -63q46 0 88 23.5t71 64.5h-66l15 124h99l1 4l69 -4h28v-2z" />
    <glyph glyph-name="i.loclTRK" horiz-adv-x="287" 
d="M274 759l-18 -139h-139l17 139h140zM233 520l-64 -520h-137l64 520h137z" />
    <glyph glyph-name="e.ss01" horiz-adv-x="594" 
d="M312 526q42 0 83.5 -17.5t76.5 -50.5t53 -89.5t9 -127.5l-374 -58q23 -71 106 -71q54 0 96 37l110 -61q-46 -47 -106.5 -71t-119.5 -24q-42 0 -85 16.5t-79.5 47.5t-56 84t-11.5 118q8 64 40.5 117t76.5 84.5t91.5 48.5t89.5 17zM303 407q-55 0 -90 -29.5t-50 -78.5
l238 36q-6 26 -30 49t-68 23z" />
    <glyph glyph-name="w.ss01" horiz-adv-x="863" 
d="M861 520l-348 -520h-22l-79 186l-127 -186h-22l-220 520h145l115 -286l55 81l-87 205h145l115 -286l185 286h145z" />
    <glyph glyph-name="f_t" horiz-adv-x="776" 
d="M635 403l-30 -245q-2 -16 1.5 -31t13.5 -15q49 0 89 19l-10 -120q-36 -17 -113 -17q-138 0 -117 171l29 238h-270l-49 -403h-137l50 403h-66l15 117h65l4 30q19 157 189 157q49 0 90.5 -20t59.5 -48l-53 -88q-54 39 -99 39q-17 0 -28 -5.5t-16 -16.5t-6.5 -16.5
t-2.5 -16.5l-2 -15h270l11 90h137l-11 -90h109l-14 -117h-109z" />
    <glyph glyph-name="t_t" horiz-adv-x="778" 
d="M637 403l-30 -245q-2 -16 1.5 -31t13.5 -15q49 0 89 19l-10 -120q-36 -17 -113 -17q-138 0 -117 171l29 238h-262l-30 -245q-8 -46 30 -46q36 0 73 13l-9 -114q-36 -17 -99 -17q-70 0 -106.5 37t-24.5 133l29 239h-70l14 117h70l11 90h137l-11 -90h262l11 90h137l-11 -90
h109l-14 -117h-109z" />
    <glyph glyph-name="zero.tf" horiz-adv-x="700" 
d="M345 707q128 0 206 -92t58 -256l-3 -26q-21 -163 -116.5 -251.5t-220.5 -88.5q-127 0 -205.5 92t-58.5 256l3 26q19 162 115.5 251t221.5 89zM470 341l3 26q7 37 3 77t-15.5 72t-42 53t-75.5 21q-47 0 -84.5 -21.5t-60 -57t-36 -73.5t-18.5 -79l-3 -26q-7 -38 -3 -77.5
t15.5 -71.5t42 -52.5t75.5 -20.5q47 0 84.5 21t60.5 56.5t36 73.5t18 79z" />
    <glyph glyph-name="one.tf" horiz-adv-x="700" 
d="M330 0h-137l71 583h-116l15 117h253z" />
    <glyph glyph-name="two.tf" horiz-adv-x="700" 
d="M26 37l194 201l80 79l60 59t35.5 39.5t25 39t9.5 40.5q6 52 -21 72t-64 20q-41 0 -78.5 -23.5t-44.5 -75.5l-2 -15h-140l4 23q10 82 83.5 146.5t179.5 64.5q107 0 169.5 -70t51.5 -158q-7 -59 -45.5 -112.5t-153.5 -171.5l-79 -77h217l-15 -118h-469z" />
    <glyph glyph-name="three.tf" horiz-adv-x="700" 
d="M633 700l-191 -268q51 -20 84.5 -77.5t23.5 -146.5q-12 -96 -95 -157t-187 -61q-112 0 -179 65.5t-56 158.5l135 -7q-6 -52 28.5 -75.5t72.5 -23.5q18 0 38.5 5t44.5 17t41 36.5t21 57.5q9 66 -32.5 99t-137.5 26l152 234h-293l15 117h515z" />
    <glyph glyph-name="four.tf" horiz-adv-x="700" 
d="M467 187l-23 -187h-137l23 187h-311l2 21l459 492h50l-48 -395h75l-15 -118h-75zM360 415l-84 -110h69z" />
    <glyph glyph-name="five.tf" horiz-adv-x="700" 
d="M30 137l110 48q4 -3 17.5 -25.5t38 -37t67.5 -14.5q36 0 79.5 33t51.5 98q4 34 -4.5 58.5t-25.5 35.5t-32.5 15.5t-30.5 4.5q-38 0 -55.5 -3.5t-52.5 -21.5l-120 28l86 344h364l-15 -117h-248l-29 -116q9 -4 11.5 -3.5l21 4t40.5 3.5q104 0 171.5 -70t54.5 -178
q-13 -100 -91 -166.5t-177 -66.5q-171 0 -232 147z" />
    <glyph glyph-name="six.tf" horiz-adv-x="700" 
d="M311 444q90 0 156.5 -72.5t53.5 -165.5q-11 -90 -88 -153t-165 -63q-93 0 -160 68t-55 163q4 35 13.5 64.5t33 65l34 50.5t49 61l46.5 55l153 183h154l-218 -253q3 0 -2 -1q-1 -1 -2 -1q-4 -1 -3 -1zM269 109q47 0 83.5 33t41.5 79q5 38 -20.5 67t-67.5 29
q-52 0 -86.5 -33t-40.5 -78q-5 -41 20.5 -69t69.5 -28z" />
    <glyph glyph-name="seven.tf" horiz-adv-x="700" 
d="M258 0h-147l296 583h-294l15 117h486z" />
    <glyph glyph-name="eight.tf" horiz-adv-x="700" 
d="M462 396q76 -65 62 -184q-13 -96 -93 -157.5t-167 -61.5q-92 0 -161 66.5t-57 168.5q16 117 107 177q-35 53 -27 119q10 79 68.5 131t144.5 52q90 0 139 -57.5t38 -141.5q-8 -63 -54 -112zM259 508q-2 -23 11.5 -41t37.5 -18q28 0 50.5 23t26.5 52q2 26 -12 43.5
t-36 17.5q-26 0 -50 -23t-28 -54zM380 228q5 47 -18.5 72t-57.5 25q-32 0 -68 -31t-42 -82q-6 -42 15 -69t57 -27q38 0 73 33t41 79z" />
    <glyph glyph-name="nine.tf" horiz-adv-x="700" 
d="M299 255q-90 0 -156 72.5t-53 165.5q10 90 87 153t165 63q93 0 160.5 -68t55.5 -163q-4 -29 -13.5 -57.5t-19.5 -49t-30.5 -49.5t-32 -43.5t-40.5 -48.5t-40 -48l-154 -183h-154l218 253q-2 0 2 1q1 0 2 1q4 1 3 1zM341 590q-47 0 -83 -33t-42 -79q-4 -38 20.5 -67
t66.5 -29q52 0 87.5 33.5t41.5 77.5q5 41 -21 69t-70 28z" />
    <glyph glyph-name="zero.dnom" horiz-adv-x="260" 
d="M113 263q48 0 75 -37t20 -93l-1 -13q-7 -56 -38 -89t-76 -33q-47 0 -74.5 37t-20.5 93l1 13q7 56 38.5 89t75.5 33zM171 128l1 13q12 91 -50 91q-31 0 -56 -27.5t-31 -71.5l-1 -13q-5 -44 9 -67.5t42 -23.5q32 0 56 27t30 72z" />
    <glyph glyph-name="one.dnom" horiz-adv-x="122" 
d="M54 0h-37l28 221l-17 -11l-16 31l36 20h38z" />
    <glyph glyph-name="two.dnom" horiz-adv-x="221" 
d="M-12 32l76 71q32 30 41.5 39.5t19 24t11.5 30.5t-8 26t-27 10q-20 0 -38.5 -15t-21.5 -39l-1 -10h-37l2 18q4 35 29 56t58 21q36 0 60.5 -25.5t19.5 -57.5q-2 -16 -12.5 -32.5t-21.5 -28.5t-42 -41l-56 -47h117l-4 -32h-168z" />
    <glyph glyph-name="three.dnom" horiz-adv-x="233" 
d="M140 138q16 -6 26.5 -24.5t7.5 -45.5q-4 -31 -31.5 -51.5t-63.5 -20.5q-43 0 -68.5 29t-17.5 66l37 -8q-9 -23 3.5 -39t36.5 -16t44 16t23 40q3 25 -13.5 33.5t-51.5 2.5l-4 32q66 3 73 51q2 12 -7.5 20.5t-25.5 8.5q-23 0 -41 -18t-19 -44l-37 8q1 37 26.5 61t61.5 24
q34 0 57.5 -23.5t19.5 -52.5q-3 -27 -36 -49z" />
    <glyph glyph-name="four.dnom" horiz-adv-x="246" 
d="M160 76l-9 -76h-37l9 76h-133l155 185h38l-19 -154h27l-4 -31h-27zM140 202l-77 -95h64z" />
    <glyph glyph-name="five.dnom" horiz-adv-x="235" 
d="M-10 62l34 11q-1 -20 10.5 -32.5t34.5 -12.5q25 0 46.5 20t25.5 49q2 22 -10.5 37t-30.5 15q-37 0 -64 -31l-33 10l34 133h138l-4 -32h-104l-17 -57q21 9 42 9q37 0 63.5 -29.5t21.5 -70.5q-5 -36 -33.5 -60.5t-65.5 -24.5q-34 0 -58.5 20.5t-29.5 45.5z" />
    <glyph glyph-name="six.dnom" horiz-adv-x="223" 
d="M84 165h1q34 0 58.5 -28t20.5 -64q-4 -32 -30.5 -54.5t-58.5 -22.5q-36 0 -61 27.5t-21 65.5q2 14 8.5 28t13 22l19.5 23l19 22l67 77h44zM66 28q20 0 39.5 17.5t23.5 43.5q2 20 -9.5 32t-28.5 12q-24 0 -41.5 -16.5t-21.5 -43.5q-2 -20 9.5 -32.5t28.5 -12.5z" />
    <glyph glyph-name="seven.dnom" horiz-adv-x="223" 
d="M54 0h-41l117 229h-120l4 32h174z" />
    <glyph glyph-name="eight.dnom" horiz-adv-x="233" 
d="M139 139q41 -18 35 -70q-4 -31 -31.5 -51t-63.5 -20q-39 0 -65 25t-22 62q5 38 51 62q-28 18 -23 57q3 24 24.5 41.5t54.5 17.5q38 0 59 -23t17 -52q-4 -28 -36 -49zM55 188q-2 -12 7.5 -21.5t23.5 -9.5q19 0 35 14.5t18 32.5q2 12 -4.5 20t-26.5 8q-21 0 -36 -13
t-17 -31zM71 29q26 0 44.5 15.5t21.5 40.5q2 19 -9.5 30t-33.5 11q-23 0 -43 -16.5t-23 -40.5q-2 -18 10.5 -29t32.5 -11z" />
    <glyph glyph-name="nine.dnom" horiz-adv-x="224" 
d="M5 0l80 95q-35 0 -59.5 28.5t-20.5 64.5q4 32 30.5 54t59.5 22q36 0 61.5 -27.5t20.5 -64.5q-2 -14 -9 -28.5t-12.5 -22t-20 -24t-19.5 -21.5l-66 -76h-45zM104 232q-21 0 -40.5 -17.5t-23.5 -42.5q-2 -20 10 -32.5t29 -12.5q24 0 41.5 17t20.5 44q2 19 -9 31.5t-28 12.5
z" />
    <glyph glyph-name="zero.numr" horiz-adv-x="260" 
d="M124 703q48 0 75 -37t20 -93l-1 -13q-7 -56 -38 -89t-76 -33q-47 0 -74.5 37t-20.5 93l1 13q7 56 38.5 89t75.5 33zM182 568l1 13q12 91 -50 91q-31 0 -56 -27.5t-31 -71.5l-1 -13q-5 -44 9 -67.5t42 -23.5q32 0 56 27t30 72z" />
    <glyph glyph-name="one.numr" horiz-adv-x="122" 
d="M65 440h-37l28 221l-17 -11l-16 31l36 20h38z" />
    <glyph glyph-name="two.numr" horiz-adv-x="221" 
d="M-1 472l76 71q32 30 41.5 39.5t19 24t11.5 30.5t-8 26t-27 10q-20 0 -38.5 -15t-21.5 -39l-1 -10h-37l2 18q4 35 29 56t58 21q36 0 60.5 -25.5t19.5 -57.5q-2 -16 -12.5 -32.5t-21.5 -28.5t-42 -41l-56 -47h117l-4 -32h-168z" />
    <glyph glyph-name="three.numr" horiz-adv-x="233" 
d="M151 578q16 -6 26.5 -24.5t7.5 -45.5q-4 -31 -31.5 -51.5t-63.5 -20.5q-43 0 -68.5 29t-17.5 66l37 -8q-9 -23 3.5 -39t36.5 -16t44 16t23 40q3 25 -13.5 33.5t-51.5 2.5l-4 32q66 3 73 51q2 12 -7.5 20.5t-25.5 8.5q-23 0 -41 -18t-19 -44l-37 8q1 37 26.5 61t61.5 24
q34 0 57.5 -23.5t19.5 -52.5q-3 -27 -36 -49z" />
    <glyph glyph-name="four.numr" horiz-adv-x="246" 
d="M171 516l-9 -76h-37l9 76h-133l155 185h38l-19 -154h27l-4 -31h-27zM151 642l-77 -95h64z" />
    <glyph glyph-name="five.numr" horiz-adv-x="235" 
d="M1 502l34 11q-1 -20 10.5 -32.5t34.5 -12.5q25 0 46.5 20t25.5 49q2 22 -10.5 37t-30.5 15q-37 0 -64 -31l-33 10l34 133h138l-4 -32h-104l-17 -57q21 9 42 9q37 0 63.5 -29.5t21.5 -70.5q-5 -36 -33.5 -60.5t-65.5 -24.5q-34 0 -58.5 20.5t-29.5 45.5z" />
    <glyph glyph-name="six.numr" horiz-adv-x="223" 
d="M95 605h1q34 0 58.5 -28t20.5 -64q-4 -32 -30.5 -54.5t-58.5 -22.5q-36 0 -61 27.5t-21 65.5q2 14 8.5 28t13 22l19.5 23l19 22l67 77h44zM77 468q20 0 39.5 17.5t23.5 43.5q2 20 -9.5 32t-28.5 12q-24 0 -41.5 -16.5t-21.5 -43.5q-2 -20 9.5 -32.5t28.5 -12.5z" />
    <glyph glyph-name="seven.numr" horiz-adv-x="223" 
d="M65 440h-41l117 229h-120l4 32h174z" />
    <glyph glyph-name="eight.numr" horiz-adv-x="233" 
d="M150 579q41 -18 35 -70q-4 -31 -31.5 -51t-63.5 -20q-39 0 -65 25t-22 62q5 38 51 62q-28 18 -23 57q3 24 24.5 41.5t54.5 17.5q38 0 59 -23t17 -52q-4 -28 -36 -49zM66 628q-2 -12 7.5 -21.5t23.5 -9.5q19 0 35 14.5t18 32.5q2 12 -4.5 20t-26.5 8q-21 0 -36 -13
t-17 -31zM82 469q26 0 44.5 15.5t21.5 40.5q2 19 -9.5 30t-33.5 11q-23 0 -43 -16.5t-23 -40.5q-2 -18 10.5 -29t32.5 -11z" />
    <glyph glyph-name="nine.numr" horiz-adv-x="224" 
d="M16 440l80 95q-35 0 -59.5 28.5t-20.5 64.5q4 32 30.5 54t59.5 22q36 0 61.5 -27.5t20.5 -64.5q-2 -14 -9 -28.5t-12.5 -22t-20 -24t-19.5 -21.5l-66 -76h-45zM115 672q-21 0 -40.5 -17.5t-23.5 -42.5q-2 -20 10 -32.5t29 -12.5q24 0 41.5 17t20.5 44q2 19 -9 31.5
t-28 12.5z" />
    </font>
</defs>
</svg>
